<svg
  width="20"
  height="21"
  viewBox="0 0 20 21"
  fill="none"
  xmlns="http://www.w3.org/2000/svg"
>
  <path
    fill-rule="evenodd"
    clip-rule="evenodd"
    d="M10 4C6.13401 4 3 7.13401 3 11C3 14.866 6.13401 18 10 18C13.866 18 17 14.866 17 11C17 7.13401 13.866 4 10 4ZM1 11C1 6.02944 5.02944 2 10 2C14.9706 2 19 6.02944 19 11C19 15.9706 14.9706 20 10 20C5.02944 20 1 15.9706 1 11Z"
    fill="currentColor"
  />
  <path
    fill-rule="evenodd"
    clip-rule="evenodd"
    d="M9 6H11V11H15V13H9V6Z"
    fill="currentColor"
  />
</svg>
