<svg
  width="32"
  height="32"
  viewBox="0 0 32 32"
  fill="none"
  xmlns="http://www.w3.org/2000/svg"
>
  <path
    fill-rule="evenodd"
    clip-rule="evenodd"
    d="M15.1738 2.47727C15.541 1.84091 16.459 1.84091 16.8262 2.47727L30.8708 26.8182C31.238 27.4545 30.779 28.25 30.0446 28.25H1.95538C1.22103 28.25 0.76205 27.4545 1.12923 26.8182L15.1738 2.47727ZM17.2305 20.6348H14.8867L14.5547 10.7812H17.5625L17.2305 20.6348ZM17.2012 22.5977C16.9147 22.3177 16.5339 22.1777 16.0586 22.1777C15.5898 22.1777 15.209 22.321 14.916 22.6074C14.6296 22.8874 14.4863 23.2422 14.4863 23.6719C14.4863 24.1016 14.6296 24.4564 14.916 24.7363C15.209 25.0163 15.5898 25.1562 16.0586 25.1562C16.5339 25.1562 16.9147 25.0163 17.2012 24.7363C17.4941 24.4564 17.6406 24.1016 17.6406 23.6719C17.6406 23.2357 17.4941 22.8776 17.2012 22.5977Z"
    fill="currentColor"
  />
</svg>
