<svg
  width="20"
  height="20"
  viewBox="0 0 20 20"
  fill="none"
  xmlns="http://www.w3.org/2000/svg"
>
  <path
    fill-rule="evenodd"
    clip-rule="evenodd"
    d="M10 5C5.25834 5 2.74346 8.19658 2.06959 9.83119L2 10L2.06959 10.1688C2.74346 11.8034 5.25834 15 10 15C14.7417 15 17.2565 11.8034 17.9304 10.1688L18 10L17.9304 9.83119C17.2565 8.19658 14.7417 5 10 5ZM10 13C11.6569 13 13 11.6569 13 10C13 8.34315 11.6569 7 10 7C8.34315 7 7 8.34315 7 10C7 11.6569 8.34315 13 10 13ZM12 10C12 11.1046 11.1046 12 10 12C8.89543 12 8 11.1046 8 10C8 8.89543 8.89543 8 10 8C11.1046 8 12 8.89543 12 10Z"
    fill="currentColor"
  />
</svg>
