<svg
  width="20"
  height="20"
  viewBox="0 0 20 20"
  fill="none"
  xmlns="http://www.w3.org/2000/svg"
>
  <path
    fill-rule="evenodd"
    clip-rule="evenodd"
    d="M12.591 5.34835C11.8151 5.12896 10.9525 4.99998 10 4.99998C5.25834 4.99998 2.74346 8.19656 2.06959 9.83116L2 9.99998L2.06959 10.1688C2.41779 11.0134 3.25753 12.2751 4.64202 13.2973L7.11475 10.8246C7.04001 10.5626 7 10.286 7 9.99998C7 8.34312 8.34315 6.99998 10 6.99998C10.286 6.99998 10.5626 7.03999 10.8246 7.11472L12.591 5.34835ZM8.00093 9.93839L9.93841 8.00091C8.88279 8.03284 8.03286 8.88277 8.00093 9.93839Z"
    fill="currentColor"
  />
  <path
    fill-rule="evenodd"
    clip-rule="evenodd"
    d="M18 9.99998L17.9304 9.83116C17.5182 8.83137 16.4174 7.24725 14.5395 6.16762L16.3536 4.35353L16.0303 4.03031L15.6464 3.64642L13.5937 5.69916L11.7383 7.5546L11.016 8.27689L8.27691 11.016L7.55463 11.7382L5.46053 13.8323L3.64645 15.6464L4.03033 16.0303L4.35355 16.3535L6.40629 14.3008C7.42073 14.7274 8.61543 15 10 15C14.7417 15 17.2565 11.8034 17.9304 10.1688L18 9.99998ZM10 13C11.6569 13 13 11.6568 13 9.99998C13 9.35206 12.7946 8.75212 12.4454 8.26171L11.7231 8.98399C11.899 9.28175 12 9.62907 12 9.99998C12 11.1045 11.1046 12 10 12C9.6291 12 9.28177 11.899 8.98402 11.7231L8.26173 12.4454C8.75214 12.7946 9.35208 13 10 13Z"
    fill="currentColor"
  />
</svg>
