<svg
  width="24"
  height="24"
  viewBox="0 0 24 24"
  fill="none"
  xmlns="http://www.w3.org/2000/svg"
>
  <path
    fill-rule="evenodd"
    clip-rule="evenodd"
    d="M12 21C16.9706 21 21 16.9706 21 12C21 7.02944 16.9706 3 12 3C7.02944 3 3 7.02944 3 12C3 16.9706 7.02944 21 12 21ZM12 23C18.0751 23 23 18.0751 23 12C23 5.92487 18.0751 1 12 1C5.92487 1 1 5.92487 1 12C1 18.0751 5.92487 23 12 23Z"
    fill="currentColor"
  />
  <path
    d="M10.9219 14.6719C10.9219 14.3021 10.9323 13.9922 10.9531 13.7422C10.974 13.4922 11.0208 13.2708 11.0938 13.0781C11.1667 12.8854 11.276 12.7057 11.4219 12.5391C11.5677 12.3672 11.7682 12.1719 12.0234 11.9531C12.1953 11.7812 12.3724 11.6042 12.5547 11.4219C12.737 11.2344 12.901 11.0417 13.0469 10.8438C13.1979 10.6406 13.3203 10.4323 13.4141 10.2188C13.513 10.0052 13.5625 9.78385 13.5625 9.55469C13.5625 9.03906 13.4193 8.65625 13.1328 8.40625C12.8464 8.15104 12.4323 8.02344 11.8906 8.02344C11.6823 8.02344 11.4766 8.05208 11.2734 8.10938C11.0755 8.16146 10.8984 8.24479 10.7422 8.35938C10.5859 8.47396 10.4583 8.6224 10.3594 8.80469C10.2656 8.98177 10.2188 9.19531 10.2188 9.44531H8.34375C8.34896 8.96094 8.44271 8.53385 8.625 8.16406C8.8125 7.78906 9.0651 7.47656 9.38281 7.22656C9.70052 6.97135 10.0729 6.78125 10.5 6.65625C10.9271 6.52604 11.3906 6.46094 11.8906 6.46094C12.4531 6.46094 12.9531 6.52865 13.3906 6.66406C13.8281 6.79427 14.1979 6.98698 14.5 7.24219C14.8073 7.4974 15.0391 7.8125 15.1953 8.1875C15.3568 8.5625 15.4375 8.99219 15.4375 9.47656C15.4375 9.84635 15.3724 10.1927 15.2422 10.5156C15.1172 10.8333 14.9505 11.1328 14.7422 11.4141C14.5391 11.6953 14.3099 11.9583 14.0547 12.2031C13.7995 12.4479 13.5469 12.6823 13.2969 12.9062C13.1406 13.0625 13.0208 13.2031 12.9375 13.3281C12.8542 13.4531 12.7917 13.5807 12.75 13.7109C12.7135 13.8411 12.6927 13.9818 12.6875 14.1328C12.6823 14.2839 12.6797 14.4635 12.6797 14.6719H10.9219ZM10.6797 17.0625C10.6797 16.7552 10.7734 16.5026 10.9609 16.3047C11.1536 16.1016 11.4271 16 11.7812 16C12.1354 16 12.4089 16.1016 12.6016 16.3047C12.7995 16.5026 12.8984 16.7552 12.8984 17.0625C12.8984 17.3594 12.7995 17.6068 12.6016 17.8047C12.4089 17.9974 12.1354 18.0938 11.7812 18.0938C11.4271 18.0938 11.1536 17.9974 10.9609 17.8047C10.7734 17.6068 10.6797 17.3594 10.6797 17.0625Z"
    fill="currentColor"
  />
</svg>
