<svg width="131" height="153" viewBox="0 0 131 153" fill="none" xmlns="http://www.w3.org/2000/svg">
<path fill-rule="evenodd" clip-rule="evenodd" d="M15.9756 3.1875V0H19.1707V3.1875H15.9756Z" fill="black"/>
<path fill-rule="evenodd" clip-rule="evenodd" d="M15.9754 3.1875V6.375V9.5625H12.7803V6.375V3.1875H15.9754Z" fill="black"/>
<path fill-rule="evenodd" clip-rule="evenodd" d="M19.1709 3.1875H22.366V6.375V9.5625H19.1709V6.375V3.1875Z" fill="black"/>
<path fill-rule="evenodd" clip-rule="evenodd" d="M12.7806 9.5625V12.75V15.9375H9.58545V12.75V9.5625H12.7806Z" fill="black"/>
<path fill-rule="evenodd" clip-rule="evenodd" d="M22.3657 9.5625H25.5608V12.75V15.9375H22.3657V12.75V9.5625Z" fill="black"/>
<path fill-rule="evenodd" clip-rule="evenodd" d="M9.58526 15.9375V22.3125V31.875H6.39014V28.6875V25.5V15.9375H9.58526Z" fill="black"/>
<path fill-rule="evenodd" clip-rule="evenodd" d="M25.561 15.9375H28.7562V19.125V22.3125V25.5V28.6875V31.875H25.561V25.5V15.9375Z" fill="black"/>
<path fill-rule="evenodd" clip-rule="evenodd" d="M47.9268 22.3125V19.125H51.1219H54.317H57.5121V22.3125H54.317V25.5H57.5121H60.7072V28.6875H57.5121H54.317H51.1219V25.5V22.3125H47.9268Z" fill="black"/>
<path fill-rule="evenodd" clip-rule="evenodd" d="M41.5366 25.5V22.3125H44.7317H47.9269V25.5H44.7317H41.5366Z" fill="black"/>
<path fill-rule="evenodd" clip-rule="evenodd" d="M60.7075 25.5V22.3125H63.9026H67.0978H73.488V25.5H70.2929V28.6875H67.0978V25.5H63.9026H60.7075Z" fill="black"/>
<path fill-rule="evenodd" clip-rule="evenodd" d="M41.5364 25.5V28.6875V31.875H38.3413V28.6875V25.5H41.5364Z" fill="black"/>
<path fill-rule="evenodd" clip-rule="evenodd" d="M67.0975 28.6875V31.875H70.2926H79.878H92.6584V35.0625H89.4633V38.25H86.2682V35.0625H83.0731H76.6828H63.9023V31.875V28.6875H67.0975Z" fill="black"/>
<path fill-rule="evenodd" clip-rule="evenodd" d="M9.58545 31.875H19.1708H25.5611V35.0625V38.25V41.4375H22.3659V38.25V35.0625H19.1708H15.9757H12.7806V38.25V41.4375H9.58545V38.25V35.0625V31.875Z" fill="black"/>
<path fill-rule="evenodd" clip-rule="evenodd" d="M38.3416 31.875V38.25H35.1465V35.0625V31.875H38.3416Z" fill="black"/>
<path fill-rule="evenodd" clip-rule="evenodd" d="M41.5366 38.25V35.0625H44.7317H47.9269H54.3171V38.25H41.5366Z" fill="black"/>
<path fill-rule="evenodd" clip-rule="evenodd" d="M31.9512 41.4375V38.25H35.1463V41.4375H31.9512Z" fill="black"/>
<path fill-rule="evenodd" clip-rule="evenodd" d="M38.3413 41.4375V38.25H41.5364V41.4375H38.3413Z" fill="black"/>
<path fill-rule="evenodd" clip-rule="evenodd" d="M54.3169 38.25H57.512H60.7071V41.4375H57.512H54.3169V38.25Z" fill="black"/>
<path fill-rule="evenodd" clip-rule="evenodd" d="M86.2682 38.25V41.4375H89.4633V44.625H79.8779V41.4375H83.0731V38.25H86.2682Z" fill="black"/>
<path fill-rule="evenodd" clip-rule="evenodd" d="M12.7806 41.4375H15.9757V44.625V47.8125V51V57.375V66.9375V79.6875V86.0625V89.25V92.4375V95.625H19.1708V92.4375V89.25V86.0625V79.6875V70.125V57.375V51V47.8125V44.625V41.4375H22.3659V47.8125V57.375V60.5625V63.75V66.9375V70.125H25.5611V66.9375V57.375V54.1875V51V47.8125H28.7562V76.5V79.6875H25.5611V76.5V73.3125H22.3659V76.5V79.6875V82.875V86.0625V89.25V92.4375V95.625H25.5611V98.8125H19.1708H9.58545V95.625H12.7806V92.4375V89.25V86.0625V82.875V79.6875H9.58545V76.5H12.7806V73.3125V70.125V66.9375V63.75V60.5625V54.1875V41.4375Z" fill="black"/>
<path fill-rule="evenodd" clip-rule="evenodd" d="M31.951 41.4375V47.8125H28.7559V44.625V41.4375H31.951Z" fill="black"/>
<path fill-rule="evenodd" clip-rule="evenodd" d="M35.1465 41.4375H38.3416V44.625V47.8125H35.1465V41.4375Z" fill="black"/>
<path fill-rule="evenodd" clip-rule="evenodd" d="M60.7075 41.4375H63.9026V44.625H60.7075V41.4375Z" fill="black"/>
<path fill-rule="evenodd" clip-rule="evenodd" d="M63.9023 44.625H67.0975V47.8125V51H63.9023V47.8125V44.625Z" fill="black"/>
<path fill-rule="evenodd" clip-rule="evenodd" d="M89.4634 44.625H102.244V47.8125H99.0487V51H95.8536V47.8125H92.6585H89.4634V44.625Z" fill="black"/>
<path fill-rule="evenodd" clip-rule="evenodd" d="M31.9512 47.8125H35.1463V70.125H38.3414H41.5365H44.7317H47.9268H51.1219H54.317V73.3125H47.9268H38.3414V79.6875H35.1463V76.5V73.3125H31.9512V47.8125Z" fill="black"/>
<path fill-rule="evenodd" clip-rule="evenodd" d="M41.5366 54.1875V51H44.7317H47.9269H51.122V54.1875H41.5366Z" fill="black"/>
<path fill-rule="evenodd" clip-rule="evenodd" d="M67.0975 51H70.2926V54.1875H73.4877V63.75H70.2926V60.5625V57.375H67.0975H63.9023V54.1875H67.0975V51Z" fill="black"/>
<path fill-rule="evenodd" clip-rule="evenodd" d="M95.8538 51V63.75H92.6587V60.5625V57.375V54.1875V51H95.8538Z" fill="black"/>
<path fill-rule="evenodd" clip-rule="evenodd" d="M41.5364 54.1875V63.75H38.3413V60.5625V57.375V54.1875H41.5364Z" fill="black"/>
<path fill-rule="evenodd" clip-rule="evenodd" d="M51.1221 54.1875H54.3172V57.375V60.5625V63.75H51.1221V54.1875Z" fill="black"/>
<path fill-rule="evenodd" clip-rule="evenodd" d="M41.5366 63.75H51.122V66.9375H47.9269H44.7317H41.5366V63.75Z" fill="black"/>
<path fill-rule="evenodd" clip-rule="evenodd" d="M70.2926 63.75V66.9375H67.0975V70.125V73.3125H63.9023V63.75H70.2926Z" fill="black"/>
<path fill-rule="evenodd" clip-rule="evenodd" d="M95.8535 63.75H99.0486V66.9375H95.8535V63.75Z" fill="black"/>
<path fill-rule="evenodd" clip-rule="evenodd" d="M99.0486 66.9375H102.244V70.125H105.439V73.3125H102.244H99.0486V76.5H95.8535V73.3125V70.125H99.0486V66.9375Z" fill="black"/>
<path fill-rule="evenodd" clip-rule="evenodd" d="M63.9026 73.3125V76.5V79.6875H60.7075V76.5V73.3125H63.9026Z" fill="black"/>
<path fill-rule="evenodd" clip-rule="evenodd" d="M83.0732 76.5V73.3125H86.2684H89.4635H92.6586V76.5H83.0732Z" fill="black"/>
<path fill-rule="evenodd" clip-rule="evenodd" d="M79.8779 79.6875V76.5H83.073V79.6875H79.8779Z" fill="black"/>
<path fill-rule="evenodd" clip-rule="evenodd" d="M92.6587 76.5H95.8538V79.6875H92.6587V76.5Z" fill="black"/>
<path fill-rule="evenodd" clip-rule="evenodd" d="M99.0488 79.6875V76.5H102.244V79.6875H99.0488Z" fill="black"/>
<path fill-rule="evenodd" clip-rule="evenodd" d="M6.39014 82.875V79.6875H9.58526V82.875H6.39014Z" fill="black"/>
<path fill-rule="evenodd" clip-rule="evenodd" d="M28.7559 79.6875H31.951V82.875H28.7559V79.6875Z" fill="black"/>
<path fill-rule="evenodd" clip-rule="evenodd" d="M38.3413 79.6875H41.5364V82.875H38.3413V79.6875Z" fill="black"/>
<path fill-rule="evenodd" clip-rule="evenodd" d="M57.5122 82.875V79.6875H60.7073V82.875H57.5122Z" fill="black"/>
<path fill-rule="evenodd" clip-rule="evenodd" d="M79.8782 79.6875V82.875V86.0625V89.25H76.6831V79.6875H79.8782Z" fill="black"/>
<path fill-rule="evenodd" clip-rule="evenodd" d="M95.8535 79.6875H99.0486V86.0625H95.8535V82.875V79.6875Z" fill="black"/>
<path fill-rule="evenodd" clip-rule="evenodd" d="M102.244 79.6875H105.439H108.634V82.875H105.439H102.244V79.6875Z" fill="black"/>
<path fill-rule="evenodd" clip-rule="evenodd" d="M6.39043 82.875V86.0625V89.25H3.19531V86.0625V82.875H6.39043Z" fill="black"/>
<path fill-rule="evenodd" clip-rule="evenodd" d="M31.9512 82.875H35.1463V86.0625V89.25V92.4375V95.625H38.3414V98.8125H35.1463V102H31.9512V82.875Z" fill="black"/>
<path fill-rule="evenodd" clip-rule="evenodd" d="M41.5366 82.875H51.122H57.5122V86.0625H54.3171H51.122H41.5366V82.875Z" fill="black"/>
<path fill-rule="evenodd" clip-rule="evenodd" d="M108.634 82.875H111.829V86.0625H108.634V82.875Z" fill="black"/>
<path fill-rule="evenodd" clip-rule="evenodd" d="M67.0978 92.4375H63.9026V95.625V105.188H60.7075V86.0625H63.9026V89.25H67.0978V92.4375Z" fill="black"/>
<path fill-rule="evenodd" clip-rule="evenodd" d="M99.0488 86.0625H102.244V89.25V92.4375V95.625H99.0488V92.4375V89.25V86.0625Z" fill="black"/>
<path fill-rule="evenodd" clip-rule="evenodd" d="M111.829 86.0625H115.024H118.219V89.25H115.024H111.829V86.0625Z" fill="black"/>
<path fill-rule="evenodd" clip-rule="evenodd" d="M0 89.25H3.19512V95.625V105.188H0V95.625V89.25Z" fill="black"/>
<path fill-rule="evenodd" clip-rule="evenodd" d="M76.6829 89.25V92.4375V95.625H73.4878V92.4375V89.25H76.6829Z" fill="black"/>
<path fill-rule="evenodd" clip-rule="evenodd" d="M118.22 89.25H121.415V95.625H111.829V105.188H108.634V102V92.4375H111.829H115.025H118.22V89.25Z" fill="black"/>
<path fill-rule="evenodd" clip-rule="evenodd" d="M38.3413 95.625V92.4375H41.5364H44.7315V95.625V98.8125V102V105.188H47.9267V108.375H44.7315V111.562H41.5364V108.375V105.188V102V98.8125V95.625H38.3413Z" fill="black"/>
<path fill-rule="evenodd" clip-rule="evenodd" d="M54.317 98.8125H51.1219V102V105.187H47.9268V102V95.625V92.4375H51.1219V95.625H54.317V98.8125Z" fill="black"/>
<path fill-rule="evenodd" clip-rule="evenodd" d="M67.0977 92.4375H70.2928V95.625H67.0977V92.4375Z" fill="black"/>
<path fill-rule="evenodd" clip-rule="evenodd" d="M86.2686 95.625V92.4375H92.6588V95.625H89.4637H86.2686Z" fill="black"/>
<path fill-rule="evenodd" clip-rule="evenodd" d="M70.2925 95.625H73.4876V98.8125H70.2925V95.625Z" fill="black"/>
<path fill-rule="evenodd" clip-rule="evenodd" d="M79.8779 98.8125V95.625H83.0731H86.2682V98.8125H83.0731H79.8779Z" fill="black"/>
<path fill-rule="evenodd" clip-rule="evenodd" d="M102.244 95.625H105.439V98.8125V102V111.562H86.2686V108.375H89.4637H92.6588H102.244V95.625Z" fill="black"/>
<path fill-rule="evenodd" clip-rule="evenodd" d="M9.58556 98.8125V108.375V114.75H6.39044V111.563V108.375H3.19531V105.188H6.39044V102V98.8125H9.58556Z" fill="black"/>
<path fill-rule="evenodd" clip-rule="evenodd" d="M25.561 98.8125H28.7561V102V105.188V108.375V111.563H31.9512V114.75H25.561V111.563H22.3658H19.1707H15.9756V108.375H19.1707H22.3658H25.561V105.188H22.3658H19.1707H15.9756V102H19.1707H22.3658H25.561V98.8125Z" fill="black"/>
<path fill-rule="evenodd" clip-rule="evenodd" d="M54.3169 98.8125H57.512V102V105.188H54.3169V102V98.8125Z" fill="black"/>
<path fill-rule="evenodd" clip-rule="evenodd" d="M76.6831 102V98.8125H79.8782V102H76.6831Z" fill="black"/>
<path fill-rule="evenodd" clip-rule="evenodd" d="M73.4878 105.187V102H76.6829V105.187H73.4878Z" fill="black"/>
<path fill-rule="evenodd" clip-rule="evenodd" d="M57.5122 105.188H60.7073V108.375H57.5122V105.188Z" fill="black"/>
<path fill-rule="evenodd" clip-rule="evenodd" d="M73.4876 105.188V108.375V111.562H70.2925V108.375V105.188H73.4876Z" fill="black"/>
<path fill-rule="evenodd" clip-rule="evenodd" d="M111.829 105.188H115.024V108.375H111.829V105.188Z" fill="black"/>
<path fill-rule="evenodd" clip-rule="evenodd" d="M115.024 108.375H124.61H131V114.75H127.805V111.563H124.61H115.024V108.375Z" fill="black"/>
<path fill-rule="evenodd" clip-rule="evenodd" d="M67.0977 114.75V111.562H70.2928V114.75H67.0977Z" fill="black"/>
<path fill-rule="evenodd" clip-rule="evenodd" d="M79.8779 114.75V111.562H83.0731H86.2682V114.75H83.0731H79.8779Z" fill="black"/>
<path fill-rule="evenodd" clip-rule="evenodd" d="M105.439 111.562H108.634V114.75H105.439V111.562Z" fill="black"/>
<path fill-rule="evenodd" clip-rule="evenodd" d="M6.39043 114.75V124.312V130.688H3.19531V127.5V124.312V121.125V117.938V114.75H6.39043Z" fill="black"/>
<path fill-rule="evenodd" clip-rule="evenodd" d="M9.58556 114.75H25.5612V117.938H22.366V127.5H25.5612V130.688H22.366V149.812H38.3417V140.25H41.5368V149.812H44.7319V133.875H47.927V149.812H67.0978V133.875H63.9026V130.688H67.0978V127.5H70.2929V149.812H73.488V140.25H76.6831V149.812H108.634V140.25H111.829V153H3.19531V137.062H6.39043V149.812H12.7807V130.688H9.58556V127.5H12.7807V117.938H9.58556V114.75ZM15.9758 127.5V149.812H19.1709V117.938H15.9758V127.5Z" fill="black"/>
<path fill-rule="evenodd" clip-rule="evenodd" d="M31.9512 114.75H35.1463V117.938H31.9512V114.75Z" fill="black"/>
<path fill-rule="evenodd" clip-rule="evenodd" d="M60.7075 117.938V114.75H63.9026H67.0978V117.938H63.9026H60.7075Z" fill="black"/>
<path fill-rule="evenodd" clip-rule="evenodd" d="M76.6831 117.938V114.75H79.8782V117.938H76.6831Z" fill="black"/>
<path fill-rule="evenodd" clip-rule="evenodd" d="M108.634 114.75H111.829V117.938V121.125H108.634V117.938V114.75Z" fill="black"/>
<path fill-rule="evenodd" clip-rule="evenodd" d="M124.61 117.938V114.75H127.805V117.938H124.61Z" fill="black"/>
<path fill-rule="evenodd" clip-rule="evenodd" d="M35.1465 117.938H38.3416V121.125H35.1465V117.938Z" fill="black"/>
<path fill-rule="evenodd" clip-rule="evenodd" d="M60.7073 117.938V127.5H57.5122V124.312V121.125V117.938H60.7073Z" fill="black"/>
<path fill-rule="evenodd" clip-rule="evenodd" d="M73.4878 121.125V117.938H76.6829V121.125H73.4878Z" fill="black"/>
<path fill-rule="evenodd" clip-rule="evenodd" d="M121.415 121.125V117.938H124.61V121.125H121.415Z" fill="black"/>
<path fill-rule="evenodd" clip-rule="evenodd" d="M38.3413 121.125H41.5364V124.312H38.3413V121.125Z" fill="black"/>
<path fill-rule="evenodd" clip-rule="evenodd" d="M67.0975 127.5H63.9023V124.312V121.125H67.0975V124.312V127.5Z" fill="black"/>
<path fill-rule="evenodd" clip-rule="evenodd" d="M73.4876 121.125V124.312V127.5H70.2925V124.312V121.125H73.4876Z" fill="black"/>
<path fill-rule="evenodd" clip-rule="evenodd" d="M111.829 121.125H115.024V124.312V127.5V130.688H124.61V133.875H121.414H118.219H115.024V140.25H111.829V121.125Z" fill="black"/>
<path fill-rule="evenodd" clip-rule="evenodd" d="M121.415 121.125V124.312H124.61H127.805V130.688H124.61V127.5H118.22V121.125H121.415Z" fill="black"/>
<path fill-rule="evenodd" clip-rule="evenodd" d="M41.5366 124.312H44.7317V127.5V130.688V133.875H41.5366V130.688V127.5V124.312Z" fill="black"/>
<path fill-rule="evenodd" clip-rule="evenodd" d="M60.7075 127.5H63.9026V130.688H60.7075V127.5Z" fill="black"/>
<path fill-rule="evenodd" clip-rule="evenodd" d="M86.2686 130.688V127.5H89.4637H102.244V130.688H92.6588H86.2686Z" fill="black"/>
<path fill-rule="evenodd" clip-rule="evenodd" d="M6.39014 130.688H9.58526V133.875V137.062H6.39014V130.688Z" fill="black"/>
<path fill-rule="evenodd" clip-rule="evenodd" d="M25.561 130.688H28.7562H31.9513V133.875H28.7562H25.561V130.688Z" fill="black"/>
<path fill-rule="evenodd" clip-rule="evenodd" d="M79.8779 133.875V130.688H83.0731H86.2682V133.875H83.0731H79.8779Z" fill="black"/>
<path fill-rule="evenodd" clip-rule="evenodd" d="M102.244 130.688H105.439V133.875H102.244V130.688Z" fill="black"/>
<path fill-rule="evenodd" clip-rule="evenodd" d="M31.9512 133.875H35.1463V137.062H31.9512V133.875Z" fill="black"/>
<path fill-rule="evenodd" clip-rule="evenodd" d="M79.8782 133.875V137.062V140.25H76.6831V137.062V133.875H79.8782Z" fill="black"/>
<path fill-rule="evenodd" clip-rule="evenodd" d="M105.439 133.875H108.634V137.062V140.25H105.439V137.062V133.875Z" fill="black"/>
<path fill-rule="evenodd" clip-rule="evenodd" d="M35.1465 137.062H38.3416V140.25H35.1465V137.062Z" fill="black"/>
<path fill-rule="evenodd" clip-rule="evenodd" d="M15.9754 12.75H19.1705V15.9375V19.125H22.3656V22.3125H19.1705V25.5H15.9754V22.3125H12.7803V19.125H15.9754V15.9375V12.75Z" fill="#64664C"/>
<path fill-rule="evenodd" clip-rule="evenodd" d="M12.7803 28.6875V25.5H15.9754V28.6875H12.7803Z" fill="#64664C"/>
<path fill-rule="evenodd" clip-rule="evenodd" d="M19.1709 28.6875V25.5H22.366V28.6875H19.1709Z" fill="#64664C"/>
<path fill-rule="evenodd" clip-rule="evenodd" d="M15.9756 31.875V28.6875H19.1707V31.875H15.9756Z" fill="#64664C"/>
<path fill-rule="evenodd" clip-rule="evenodd" d="M15.9757 3.1875H19.1708V6.375V9.5625H22.3659V12.75V15.9375H25.5611V19.125H22.3659H19.1708V15.9375V12.75H15.9757V15.9375V19.125H12.7806H9.58545V15.9375H12.7806V12.75V9.5625H15.9757V6.375V3.1875Z" fill="#898C69"/>
<path fill-rule="evenodd" clip-rule="evenodd" d="M9.58545 22.3125H12.7806V25.5V28.6875V31.875H9.58545V25.5V22.3125Z" fill="#898C69"/>
<path fill-rule="evenodd" clip-rule="evenodd" d="M25.5608 22.3125V25.5V28.6875V31.875H22.3657V28.6875V25.5V22.3125H25.5608Z" fill="#898C69"/>
<path fill-rule="evenodd" clip-rule="evenodd" d="M9.58545 22.3125V19.125H12.7806V22.3125H9.58545Z" fill="#823535"/>
<path fill-rule="evenodd" clip-rule="evenodd" d="M22.3657 22.3125V19.125H25.5608V22.3125H22.3657Z" fill="#823535"/>
<path fill-rule="evenodd" clip-rule="evenodd" d="M12.7803 22.3125H15.9754V25.5H12.7803V22.3125Z" fill="#823535"/>
<path fill-rule="evenodd" clip-rule="evenodd" d="M19.1709 25.5V22.3125H22.366V25.5H19.1709Z" fill="#823535"/>
<path fill-rule="evenodd" clip-rule="evenodd" d="M15.9756 28.6875V25.5H19.1707V28.6875H15.9756Z" fill="#823535"/>
<path fill-rule="evenodd" clip-rule="evenodd" d="M15.9754 28.6875V31.875H12.7803V28.6875H15.9754Z" fill="#823535"/>
<path fill-rule="evenodd" clip-rule="evenodd" d="M19.1709 28.6875H22.366V31.875H19.1709V28.6875Z" fill="#823535"/>
<path fill-rule="evenodd" clip-rule="evenodd" d="M15.9754 38.25H12.7803V35.0625H15.9754V38.25Z" fill="#823535"/>
<path fill-rule="evenodd" clip-rule="evenodd" d="M19.1709 38.25V35.0625H22.366V38.25H19.1709Z" fill="#823535"/>
<path fill-rule="evenodd" clip-rule="evenodd" d="M15.9756 38.25H19.1707V41.4375H15.9756V38.25Z" fill="#823535"/>
<path fill-rule="evenodd" clip-rule="evenodd" d="M15.9756 47.8125V44.625H19.1707V47.8125H15.9756Z" fill="#823535"/>
<path fill-rule="evenodd" clip-rule="evenodd" d="M15.9756 38.25V35.0625H19.1707V38.25H15.9756Z" fill="#A67C52"/>
<path fill-rule="evenodd" clip-rule="evenodd" d="M12.7803 41.4375V38.25H15.9754V41.4375H12.7803Z" fill="#A67C52"/>
<path fill-rule="evenodd" clip-rule="evenodd" d="M19.1709 41.4375V38.25H22.366V41.4375H19.1709Z" fill="#A67C52"/>
<path fill-rule="evenodd" clip-rule="evenodd" d="M15.9756 41.4375H19.1707V44.625H15.9756V41.4375Z" fill="#A67C52"/>
<path fill-rule="evenodd" clip-rule="evenodd" d="M15.9756 47.8125H19.1707V51V54.1875V66.9375V76.5V95.625H15.9756V92.4375V89.25V70.125V60.5625V54.1875V47.8125Z" fill="#A67C52"/>
<path fill-rule="evenodd" clip-rule="evenodd" d="M19.1707 149.813H15.9756V146.625V140.25V130.688V121.125V117.938H19.1707V121.125V124.313V133.875V140.25V149.813Z" fill="#A67C52"/>
<path fill-rule="evenodd" clip-rule="evenodd" d="M41.5366 54.1875H44.7317V57.375V60.5625H41.5366V57.375V54.1875Z" fill="#FAFAFA"/>
<path fill-rule="evenodd" clip-rule="evenodd" d="M44.7314 54.1875H47.9266H51.1217V57.375H47.9266H44.7314V54.1875Z" fill="#E5D78E"/>
<path fill-rule="evenodd" clip-rule="evenodd" d="M41.5366 60.5625H44.7317V63.75H41.5366V60.5625Z" fill="#E5D78E"/>
<path fill-rule="evenodd" clip-rule="evenodd" d="M44.7314 57.375H51.1217V63.75H47.9266H44.7314V60.5625V57.375Z" fill="#A00402"/>
<path fill-rule="evenodd" clip-rule="evenodd" d="M47.9266 22.3125H51.1217V28.6875H57.512H60.7071V25.5H63.9022H67.0973V28.6875H63.9022V31.875V35.0625H73.4876H86.2681V38.25H83.0729V41.4375H79.8778V44.625H86.2681H89.4632V47.8125H92.6583H95.8534V51H92.6583V54.1875V57.375V60.5625V63.75H95.8534V66.9375H99.0485V70.125H95.8534V73.3125V76.5H92.6583V73.3125H89.4632H86.2681H83.0729V76.5H79.8778V79.6875H76.6827V82.875V86.0625V89.25H73.4876V92.4375V95.625H70.2924V92.4375H67.0973V89.25H63.9022V86.0625H60.7071V95.625V102V105.188H57.512V102V98.8125H54.3168V95.625H51.1217V92.4375H47.9266V95.625V98.8125V102V105.188H44.7315V102V98.8125V95.625V92.4375H41.5363H38.3412V95.625H35.1461V82.875H31.951V79.6875H28.7559V76.5V47.8125H31.951V73.3125H35.1461V76.5V79.6875H38.3412V82.875H41.5363V86.0625H54.3168H57.512V82.875H60.7071V79.6875H63.9022V76.5V73.3125H67.0973V70.125V66.9375H70.2924V63.75H73.4876V54.1875H70.2924V51H67.0973V47.8125V44.625H63.9022V41.4375H60.7071V38.25H57.512H54.3168V35.0625H47.9266H44.7315H41.5363V38.25H38.3412V35.0625V31.875H41.5363V28.6875V25.5H44.7315H47.9266V22.3125Z" fill="#61995A"/>
<path fill-rule="evenodd" clip-rule="evenodd" d="M35.1465 41.4375V38.25H38.3416V41.4375H35.1465Z" fill="#61995A"/>
<path fill-rule="evenodd" clip-rule="evenodd" d="M35.1463 41.4375V44.625V47.8125H31.9512V44.625V41.4375H35.1463Z" fill="#61995A"/>
<path fill-rule="evenodd" clip-rule="evenodd" d="M95.8535 76.5H99.0486V79.6875H95.8535V76.5Z" fill="#61995A"/>
<path fill-rule="evenodd" clip-rule="evenodd" d="M99.0488 79.6875H102.244V82.875H105.439H108.634V86.0625H111.829V89.25H115.024H118.22V92.4375H115.024H108.634V98.8125V105.187H111.829V108.375H115.024V111.562H118.22H121.415H127.805V114.75H124.61V117.937H121.415V121.125H118.22V124.312V127.5H121.415H124.61V130.687H115.024V121.125H111.829V117.937V114.75H108.634V111.562H105.439V108.375V105.187V102V98.8125V95.625H102.244V92.4375V89.25V86.0625H99.0488V82.875V79.6875Z" fill="#61995A"/>
<path fill-rule="evenodd" clip-rule="evenodd" d="M12.7806 143.438V149.812H9.58545V146.625V143.438H12.7806Z" fill="#E5E5CA"/>
<path fill-rule="evenodd" clip-rule="evenodd" d="M22.3657 143.438H25.5608V149.812H22.3657V143.438Z" fill="#E5E5CA"/>
<path fill-rule="evenodd" clip-rule="evenodd" d="M28.7559 143.438H35.1461V149.812H28.7559V143.438Z" fill="#E5E5CA"/>
<path fill-rule="evenodd" clip-rule="evenodd" d="M79.8779 143.438H86.2682V149.812H79.8779V143.438Z" fill="#E5E5CA"/>
<path fill-rule="evenodd" clip-rule="evenodd" d="M89.4634 143.438H95.8536V149.812H89.4634V143.438Z" fill="#E5E5CA"/>
<path fill-rule="evenodd" clip-rule="evenodd" d="M99.0488 143.438H102.244H105.439V146.625V149.812H99.0488V143.438Z" fill="#E5E5CA"/>
<path fill-rule="evenodd" clip-rule="evenodd" d="M41.5367 38.25H54.3172V41.4375H60.7075V44.625H63.9026V51H67.0977V54.1875H63.9026V57.375H70.2928V63.75H63.9026V73.3125H60.7075V79.6875H57.5123V82.875H41.5367V79.6875H38.3416V73.3125H54.3172V70.125H35.1465V47.8125H38.3416V41.4375H41.5367V38.25ZM51.1221 54.1875V51H41.5367V54.1875H38.3416V63.75H41.5367V66.9375H51.1221V63.75H54.3172V54.1875H51.1221Z" fill="#A8BFBD"/>
<path fill-rule="evenodd" clip-rule="evenodd" d="M86.2682 111.563H83.073H79.8779V114.75H76.6828V117.938H73.4877V121.125H70.2925V124.313V127.5H67.0974V124.313V121.125H63.9023V124.313V127.5H60.7072V117.938H63.9023H67.0974V114.75H70.2925V111.563H73.4877V108.375V105.188H76.6828V102H79.8779V98.8125H83.073H86.2682V95.625H89.4633H92.6584V92.4375H86.2682V95.625H83.073H79.8779V98.8125H76.6828V102H73.4877V105.188H70.2925V108.375V111.563H67.0974V114.75H63.9023H60.7072V117.938H57.5121V121.125V124.313V127.5H60.7072V130.688H63.9023V133.875H67.0974V137.063V140.25V143.438V146.625V149.813H47.9267V140.25V137.063V133.875H44.7316V130.688V127.5V124.313H41.5365V121.125H38.3413V117.938H35.1462V114.75H31.9511V111.563H28.756V108.375V105.188V102V98.8125H25.5608V95.625H22.3657V92.4375V89.25V86.0625V82.875V73.3125H25.5608V76.5V79.6875H28.756V82.875H31.9511V86.0625V89.25V98.8125V102H35.1462V98.8125H38.3413V95.625H41.5365V102V111.563H44.7316V108.375H47.9267V105.188H51.1218V102V98.8125H54.3169V102V105.188H57.5121V108.375H60.7072V105.188H63.9023V102V98.8125V92.4375H67.0974V95.625H70.2925V98.8125H73.4877V95.625H76.6828V92.4375V89.25H79.8779V86.0625V82.875V79.6875H83.073V76.5H89.4633H92.6584V79.6875H95.8535V82.875V86.0625H99.0486V89.25V92.4375V95.625H102.244V98.8125V102V105.188V108.375H99.0486H92.6584H89.4633H86.2682V111.563Z" fill="#A8BFBD"/>
<path fill-rule="evenodd" clip-rule="evenodd" d="M9.58556 98.8125H6.39043V102V105.187H3.19531V98.8125V89.25H6.39043V86.0625V82.875H9.58556V79.6875H12.7807V82.875V86.0625V89.25V92.4375V95.625H9.58556V98.8125Z" fill="#A8BFBD"/>
<path fill-rule="evenodd" clip-rule="evenodd" d="M9.58545 98.8125H19.1708H25.5611V102H22.3659H19.1708H15.9757V105.188H19.1708H22.3659H25.5611V108.375H22.3659H19.1708H15.9757V111.563H19.1708H22.3659H25.5611V114.75H15.9757H9.58545V105.188V98.8125Z" fill="#A8BFBD"/>
<path fill-rule="evenodd" clip-rule="evenodd" d="M86.2681 111.562H95.8535H99.0486H102.244H105.439V114.75H108.634V117.938V121.125H111.829V140.25H108.634V137.062V133.875H105.439V130.688H102.244V127.5H89.4632H86.2681V130.688H83.073H79.8779V133.875H76.6827V137.062V140.25H73.4876V143.438V146.625V149.812H70.2925V127.5H73.4876V124.312V121.125H76.6827V117.938H79.8779V114.75H83.073H86.2681V111.562Z" fill="#A8BFBD"/>
<path fill-rule="evenodd" clip-rule="evenodd" d="M9.58526 114.75V117.938H12.7804V121.125V124.312V127.5H9.58526V130.688H6.39014V127.5V124.312V121.125V117.938V114.75H9.58526Z" fill="#A8BFBD"/>
<path fill-rule="evenodd" clip-rule="evenodd" d="M25.5608 114.75H31.9511V117.938H35.1462V121.125H38.3413V124.312H41.5365V127.5V130.688V133.875H44.7316V143.438V149.812H41.5365V146.625V143.438V140.25H38.3413V137.062H35.1462V133.875H31.9511V130.688H28.756H25.5608V127.5H22.3657V124.312V121.125V117.938H25.5608V114.75Z" fill="#A8BFBD"/>
<path fill-rule="evenodd" clip-rule="evenodd" d="M63.9023 130.688V127.5H67.0975V130.688H63.9023Z" fill="#A8BFBD"/>
<path fill-rule="evenodd" clip-rule="evenodd" d="M9.58526 130.688H12.7804V133.875V137.062V140.25V143.438H9.58526V146.625V149.812H6.39014V146.625V143.438V140.25V137.062H9.58526V130.688Z" fill="#A8BFBD"/>
<path fill-rule="evenodd" clip-rule="evenodd" d="M25.5608 130.688V133.875H28.756H31.9511V137.062H35.1462V140.25H38.3413V149.812H35.1462V146.625V143.438H31.9511H28.756V146.625V149.812H25.5608V146.625V143.438H22.3657V140.25V137.062V133.875V130.688H25.5608Z" fill="#A8BFBD"/>
<path fill-rule="evenodd" clip-rule="evenodd" d="M86.2685 130.688H92.6587H102.244V133.875H105.439V137.062V140.25H108.634V149.812H105.439V146.625V143.438H102.244H99.0489V146.625V149.812H95.8538V146.625V143.438H92.6587H89.4636V146.625V149.812H86.2685V146.625V143.438H83.0733H79.8782V146.625V149.812H76.6831V140.25H79.8782V137.062V133.875H83.0733H86.2685V130.688Z" fill="#A8BFBD"/>
</svg>
