<svg width="89" height="171" viewBox="0 0 89 171" fill="none" xmlns="http://www.w3.org/2000/svg">
<g clip-path="url(#clip0)">
<path fill-rule="evenodd" clip-rule="evenodd" d="M28.48 3.5625V0H49.84H71.2V3.5625H49.84H39.16H32.04H28.48Z" fill="black"/>
<path fill-rule="evenodd" clip-rule="evenodd" d="M24.9199 7.125V3.5625H28.4799V7.125H24.9199Z" fill="black"/>
<path fill-rule="evenodd" clip-rule="evenodd" d="M71.2 3.5625H74.7599V7.125V10.6875H71.2V3.5625Z" fill="black"/>
<path fill-rule="evenodd" clip-rule="evenodd" d="M24.9201 7.125V10.6875V14.25H21.3601V10.6875V7.125H24.9201Z" fill="black"/>
<path fill-rule="evenodd" clip-rule="evenodd" d="M39.1599 10.6875V7.125H42.7199H46.2799H49.8399H53.3999V10.6875H39.1599Z" fill="black"/>
<path fill-rule="evenodd" clip-rule="evenodd" d="M35.6001 14.25V10.6875H39.1601V14.25H35.6001Z" fill="black"/>
<path fill-rule="evenodd" clip-rule="evenodd" d="M53.3999 10.6875H71.1999V14.25H67.6399V17.8125H74.7599V28.5H78.3199V32.0625H74.7599V39.1875H71.1999V21.375H67.6399V39.1875H71.1999V42.75H67.6399V46.3125H64.0799V28.5H56.9599V24.9375H53.3999V28.5H39.1599V24.9375H28.4799V28.5H32.0399V46.3125H24.9199V42.75H28.4799V32.0625H24.9199V21.375H28.4799V17.8125H32.0399V21.375H39.1599V17.8125H53.3999V21.375H56.9599V17.8125H64.0799V14.25H53.3999V10.6875ZM42.7199 24.9375H49.8399V21.375H42.7199V24.9375ZM64.0799 24.9375V21.375H60.5199V24.9375H64.0799Z" fill="black"/>
<path fill-rule="evenodd" clip-rule="evenodd" d="M21.36 14.25V24.9375V39.1875H17.8V35.625V32.0625V28.5V21.375V17.8125V14.25H21.36Z" fill="black"/>
<path fill-rule="evenodd" clip-rule="evenodd" d="M32.04 17.8125V14.25H35.6V17.8125H32.04Z" fill="black"/>
<path fill-rule="evenodd" clip-rule="evenodd" d="M78.3201 32.0625H81.8801V35.625V39.1875H85.4401V42.75V46.3125H81.8801V42.75H78.3201V32.0625Z" fill="black"/>
<path fill-rule="evenodd" clip-rule="evenodd" d="M21.3601 39.1875H24.9201V42.75H21.3601V39.1875Z" fill="black"/>
<path fill-rule="evenodd" clip-rule="evenodd" d="M71.2 46.3125V42.75H78.3199V46.3125H74.7599H71.2Z" fill="black"/>
<path fill-rule="evenodd" clip-rule="evenodd" d="M32.04 49.875V46.3125H35.6H39.16V49.875H32.04Z" fill="black"/>
<path fill-rule="evenodd" clip-rule="evenodd" d="M56.96 49.875V46.3125H60.52H64.08V60.5625H60.52V57V53.4375V49.875H56.96Z" fill="black"/>
<path fill-rule="evenodd" clip-rule="evenodd" d="M67.6399 46.3125H71.1999V53.4375V57V60.5625H67.6399V46.3125Z" fill="black"/>
<path fill-rule="evenodd" clip-rule="evenodd" d="M85.4399 46.3125H88.9999V57V67.6875H85.4399V53.4375V49.875V46.3125Z" fill="black"/>
<path fill-rule="evenodd" clip-rule="evenodd" d="M17.8 53.4375V49.875H21.36H24.92H32.04V57H28.48V53.4375H24.92H21.36H17.8Z" fill="black"/>
<path fill-rule="evenodd" clip-rule="evenodd" d="M39.1599 49.875H46.2799H56.9599V53.4375V57H53.3999V53.4375H49.8399H46.2799V57H42.7199V53.4375H39.1599V49.875Z" fill="black"/>
<path fill-rule="evenodd" clip-rule="evenodd" d="M10.6799 57V53.4375H14.2399H17.7999V57H14.2399H10.6799Z" fill="black"/>
<path fill-rule="evenodd" clip-rule="evenodd" d="M7.12012 60.5625V57H10.6801V60.5625H7.12012Z" fill="black"/>
<path fill-rule="evenodd" clip-rule="evenodd" d="M32.04 57H35.6V60.5625H32.04V57Z" fill="black"/>
<path fill-rule="evenodd" clip-rule="evenodd" d="M46.28 57H53.4V60.5625V64.125H56.96V67.6875H53.4V71.25V74.8125V85.5V96.1875H49.84V92.625H46.28V89.0625H49.84V85.5V78.375V74.8125V71.25H46.28V67.6875H49.84V64.125V60.5625H46.28V57Z" fill="black"/>
<path fill-rule="evenodd" clip-rule="evenodd" d="M7.12006 60.5625V64.125V67.6875H3.56006V64.125V60.5625H7.12006Z" fill="black"/>
<path fill-rule="evenodd" clip-rule="evenodd" d="M35.6001 60.5625H39.1601V64.125H35.6001V60.5625Z" fill="black"/>
<path fill-rule="evenodd" clip-rule="evenodd" d="M56.96 64.125V60.5625H60.52V64.125H56.96Z" fill="black"/>
<path fill-rule="evenodd" clip-rule="evenodd" d="M64.0801 60.5625H67.6401V74.8125H78.3201V78.375H67.6401V92.625V103.312V110.437V114V117.562V121.125V124.687V128.25V131.812H64.0801V99.75V85.5V78.375V64.125V60.5625Z" fill="black"/>
<path fill-rule="evenodd" clip-rule="evenodd" d="M28.48 67.6875V64.125H32.04V67.6875H28.48Z" fill="black"/>
<path fill-rule="evenodd" clip-rule="evenodd" d="M39.1599 64.125H42.7199H46.2799V67.6875H42.7199H39.1599V64.125Z" fill="black"/>
<path fill-rule="evenodd" clip-rule="evenodd" d="M0 67.6875H3.56V78.375H0V67.6875Z" fill="black"/>
<path fill-rule="evenodd" clip-rule="evenodd" d="M24.9199 71.25V67.6875H28.4799V71.25H24.9199Z" fill="black"/>
<path fill-rule="evenodd" clip-rule="evenodd" d="M81.8799 71.25V67.6875H85.4399V71.25H81.8799Z" fill="black"/>
<path fill-rule="evenodd" clip-rule="evenodd" d="M24.92 71.25V74.8125H21.36H17.8V71.25H21.36H24.92Z" fill="black"/>
<path fill-rule="evenodd" clip-rule="evenodd" d="M78.3201 74.8125V71.25H81.8801V74.8125H78.3201Z" fill="black"/>
<path fill-rule="evenodd" clip-rule="evenodd" d="M24.9199 74.8125H28.4799V78.375H24.9199V74.8125Z" fill="black"/>
<path fill-rule="evenodd" clip-rule="evenodd" d="M32.04 78.375V74.8125H35.6V78.375H32.04Z" fill="black"/>
<path fill-rule="evenodd" clip-rule="evenodd" d="M3.56006 78.375H7.12006V81.9375H3.56006V78.375Z" fill="black"/>
<path fill-rule="evenodd" clip-rule="evenodd" d="M28.48 81.9375V78.375H32.04V81.9375H28.48Z" fill="black"/>
<path fill-rule="evenodd" clip-rule="evenodd" d="M35.6001 81.9375V78.375H39.1601V81.9375H35.6001Z" fill="black"/>
<path fill-rule="evenodd" clip-rule="evenodd" d="M7.12012 81.9375H10.6801V85.5H7.12012V81.9375Z" fill="black"/>
<path fill-rule="evenodd" clip-rule="evenodd" d="M24.9199 85.5V81.9375H28.4799V85.5H24.9199Z" fill="black"/>
<path fill-rule="evenodd" clip-rule="evenodd" d="M32.04 81.9375H35.6V85.5H32.04V81.9375Z" fill="black"/>
<path fill-rule="evenodd" clip-rule="evenodd" d="M39.1599 85.5V81.9375H42.7199V85.5H39.1599Z" fill="black"/>
<path fill-rule="evenodd" clip-rule="evenodd" d="M10.6799 85.5H14.2399V89.0625H10.6799V85.5Z" fill="black"/>
<path fill-rule="evenodd" clip-rule="evenodd" d="M24.92 85.5V92.625H35.6V96.1875H21.36V92.625H17.8V103.312H24.92V106.875H17.8V131.812H46.28V153.188H60.52V135.375H49.84V131.812H64.08V156.75H60.52V160.312H56.96V156.75H42.72V160.312H39.16V156.75H24.92V167.438H46.28V163.875H42.72V160.312H49.84V167.438H64.08V163.875H60.52V160.312H67.64V171H21.36V156.75H17.8V135.375H14.24V89.0625H21.36V85.5H24.92ZM21.36 146.062V153.188H42.72V135.375H21.36V146.062Z" fill="black"/>
<path fill-rule="evenodd" clip-rule="evenodd" d="M35.6001 85.5H39.1601V92.625H35.6001V85.5Z" fill="black"/>
<path fill-rule="evenodd" clip-rule="evenodd" d="M42.72 85.5H46.28V89.0625H42.72V85.5Z" fill="black"/>
<path fill-rule="evenodd" clip-rule="evenodd" d="M39.1599 92.625H46.2799V96.1875H42.7199H39.1599V92.625Z" fill="black"/>
<path fill-rule="evenodd" clip-rule="evenodd" d="M46.28 96.1875H49.84V99.75H46.28V96.1875Z" fill="black"/>
<path fill-rule="evenodd" clip-rule="evenodd" d="M53.4001 96.1875H56.9601V99.75V103.313H53.4001V106.875V110.438V114V117.563V121.125V124.688H49.8401V114V99.75H53.4001V96.1875Z" fill="black"/>
<path fill-rule="evenodd" clip-rule="evenodd" d="M24.9199 103.313V99.75H28.4799H32.0399V103.313H28.4799H24.9199Z" fill="black"/>
<path fill-rule="evenodd" clip-rule="evenodd" d="M49.84 124.688V131.812H46.28V128.25V124.688H49.84Z" fill="black"/>
<path fill-rule="evenodd" clip-rule="evenodd" d="M28.4801 3.5625H42.7201H49.8401H53.4001H56.9601H60.5201H64.0801H67.6401H71.2001V7.125V10.6875H60.5201H56.9601H53.4001V7.125H49.8401H46.2801H42.7201H39.1601V10.6875H35.6001V14.25H32.0401V17.8125H28.4801V21.375H24.9201V24.9375V28.5V32.0625H28.4801V35.625V39.1875V42.75H24.9201V39.1875H21.3601V24.9375V14.25H24.9201V10.6875V7.125H28.4801V3.5625Z" fill="#5F443A"/>
<path fill-rule="evenodd" clip-rule="evenodd" d="M49.84 21.375V24.9375H46.28H42.72V21.375H46.28H49.84Z" fill="#333C5F"/>
<path fill-rule="evenodd" clip-rule="evenodd" d="M60.52 24.9375V21.375H64.08V24.9375H60.52Z" fill="#333C5F"/>
<path fill-rule="evenodd" clip-rule="evenodd" d="M53.4 35.625H56.96H60.52V39.1875H53.4H49.84H46.28V35.625H49.84H53.4Z" fill="#752121"/>
<path fill-rule="evenodd" clip-rule="evenodd" d="M71.1999 21.375V28.5V32.0625V35.625V39.1875H67.6399V32.0625V28.5V24.9375V21.375H71.1999Z" fill="#797E90"/>
<path fill-rule="evenodd" clip-rule="evenodd" d="M46.28 53.4375H49.84H53.4V57H49.84H46.28V53.4375Z" fill="#8DA1B3"/>
<path fill-rule="evenodd" clip-rule="evenodd" d="M39.16 10.6875H53.4V14.25H56.96H60.52H64.08V17.8125H60.52H56.96V21.375H53.4V17.8125H49.84H39.16V21.375H35.6H32.04V17.8125H35.6V14.25H39.16V10.6875Z" fill="#FFCB96"/>
<path fill-rule="evenodd" clip-rule="evenodd" d="M56.96 28.5H64.08V46.3125H56.96V49.875H39.16V46.3125H32.04V28.5H28.48V24.9375H39.16V28.5H53.4V24.9375H56.96V28.5ZM49.84 35.625H46.28V39.1875H60.52V35.625H49.84Z" fill="#FFCB96"/>
<path fill-rule="evenodd" clip-rule="evenodd" d="M78.3199 32.0625V42.75H74.7599H71.2V39.1875H74.7599V35.625V32.0625H78.3199Z" fill="#FFCB96"/>
<path fill-rule="evenodd" clip-rule="evenodd" d="M35.5999 92.625H32.0399H28.4799H24.9199V89.0625V85.5H28.4799V81.9375H32.0399V85.5H35.5999V89.0625V92.625Z" fill="#FFCB96"/>
<path fill-rule="evenodd" clip-rule="evenodd" d="M32.04 81.9375V78.375H35.6V81.9375H32.04Z" fill="#2E2B36"/>
<path fill-rule="evenodd" clip-rule="evenodd" d="M35.6001 81.9375H39.1601V85.5H35.6001V81.9375Z" fill="#2E2B36"/>
<path fill-rule="evenodd" clip-rule="evenodd" d="M39.1599 85.5H42.7199V89.0625H46.2799V92.625H39.1599V85.5Z" fill="#2E2B36"/>
<path fill-rule="evenodd" clip-rule="evenodd" d="M46.28 92.625H49.84V96.1875H46.28V92.625Z" fill="#2E2B36"/>
<path fill-rule="evenodd" clip-rule="evenodd" d="M49.8401 99.75V96.1875H53.4001V99.75H49.8401Z" fill="#2E2B36"/>
<path fill-rule="evenodd" clip-rule="evenodd" d="M67.6399 46.3125V42.75H71.1999V46.3125H67.6399Z" fill="#9E744A"/>
<path fill-rule="evenodd" clip-rule="evenodd" d="M78.3199 42.75H81.8799V46.3125H85.4399V67.6875H81.8799V71.25H78.3199V74.8125H74.7599H71.1999H67.6399V60.5625H71.1999V57V53.4375V46.3125H74.7599H78.3199V42.75Z" fill="#9E744A"/>
<path fill-rule="evenodd" clip-rule="evenodd" d="M67.6401 46.3125V60.5625H64.0801V49.875V46.3125H67.6401Z" fill="#9E744A"/>
<path fill-rule="evenodd" clip-rule="evenodd" d="M46.28 67.6875V64.125H42.72H39.16V60.5625H35.6V57H32.04V53.4375V49.875H35.6H39.16V53.4375H42.72V57H46.28V60.5625H49.84V64.125V67.6875H46.28Z" fill="#9E744A"/>
<path fill-rule="evenodd" clip-rule="evenodd" d="M60.5199 60.5625H56.9599V64.125H53.3999V60.5625V57H56.9599V53.4375V49.875H60.5199V53.4375V60.5625Z" fill="#9E744A"/>
<path fill-rule="evenodd" clip-rule="evenodd" d="M32.0401 57V60.5625H35.6001V64.125H39.1601V67.6875H42.7201H46.2801V71.25H49.8401V74.8125V78.375V81.9375V89.0625H46.2801V85.5H42.7201V81.9375H39.1601V78.375H35.6001V74.8125H32.0401V78.375H28.4801V74.8125H24.9201V71.25H28.4801V67.6875H32.0401V64.125H28.4801V67.6875H24.9201V71.25H21.3601H17.8001V74.8125H21.3601H24.9201V78.375H28.4801V81.9375H24.9201V85.5H21.3601V89.0625H17.8001H14.2401V85.5H10.6801V81.9375H7.12006V78.375H3.56006V67.6875H7.12006V64.125V60.5625H10.6801V57H14.2401H17.8001V53.4375H21.3601H24.9201H28.4801V57H32.0401Z" fill="#9E744A"/>
<path fill-rule="evenodd" clip-rule="evenodd" d="M60.5201 60.5625H64.0801V64.125V78.375V85.5V99.75V131.812H49.8401V124.687H53.4001V121.125V117.562V114V110.437V106.875V103.312H56.9601V99.75V96.1875H53.4001V92.625V89.0625V85.5V81.9375V78.375V74.8125V71.25V67.6875H56.9601V64.125H60.5201V60.5625Z" fill="#9E744A"/>
<path fill-rule="evenodd" clip-rule="evenodd" d="M49.84 124.687H46.28V128.25V131.812H17.8V106.875H21.36H24.92V103.312H28.48H32.04V99.75H28.48H24.92V103.312H21.36H17.8V99.75V92.625H21.36V96.1875H24.92H28.48H32.04H35.6V92.625H39.16V96.1875H42.72H46.28V99.75H49.84V103.312V106.875V114V124.687Z" fill="#9E744A"/>
<path fill-rule="evenodd" clip-rule="evenodd" d="M46.28 131.812H49.84V135.375H53.4H56.96H60.52V149.625V153.188H46.28V138.938V131.812Z" fill="#3D4B5B"/>
<path fill-rule="evenodd" clip-rule="evenodd" d="M21.3601 135.375H24.9201H28.4801H32.0401H35.6001H39.1601H42.7201V138.937V153.187H35.6001H21.3601V138.937V135.375Z" fill="#3D4B5B"/>
<path fill-rule="evenodd" clip-rule="evenodd" d="M39.1599 156.75V160.312H42.7199V163.875H46.2799V167.438H35.5999H28.4799H24.9199V160.312V156.75H32.0399H35.5999H39.1599Z" fill="#735F4C"/>
<path fill-rule="evenodd" clip-rule="evenodd" d="M42.72 160.312V156.75H56.96V160.312H60.52V163.875H64.08V167.438H60.52H56.96H49.84V163.875V160.312H46.28H42.72Z" fill="#735F4C"/>
</g>
<defs>
<clipPath id="clip0">
<rect width="89" height="171" fill="white"/>
</clipPath>
</defs>
</svg>
