<svg width="120" height="156" viewBox="0 0 120 156" fill="none" xmlns="http://www.w3.org/2000/svg">
<path fill-rule="evenodd" clip-rule="evenodd" d="M19.4595 3.25V0H32.4324H42.1622V3.25H29.1892H19.4595Z" fill="black"/>
<path fill-rule="evenodd" clip-rule="evenodd" d="M12.9729 6.5V3.25H16.2161H19.4594V6.5H16.2161H12.9729Z" fill="black"/>
<path fill-rule="evenodd" clip-rule="evenodd" d="M42.1621 3.25H45.4054V6.5H42.1621V3.25Z" fill="black"/>
<path fill-rule="evenodd" clip-rule="evenodd" d="M9.72974 9.75V6.5H12.973V9.75H9.72974Z" fill="black"/>
<path fill-rule="evenodd" clip-rule="evenodd" d="M29.1892 9.75V6.5H32.4325H35.6757V9.75H29.1892Z" fill="black"/>
<path fill-rule="evenodd" clip-rule="evenodd" d="M45.4054 6.5H48.6486V9.75V13V22.75H42.1621V19.5H45.4054V16.25V13V9.75V6.5Z" fill="black"/>
<path fill-rule="evenodd" clip-rule="evenodd" d="M9.72982 9.75V13H12.9731V16.25H9.72982V19.5V22.75V26V29.25H12.9731V32.5H9.72982V35.75V39H6.48657V35.75V32.5V29.25V22.75V9.75H9.72982Z" fill="black"/>
<path fill-rule="evenodd" clip-rule="evenodd" d="M25.946 13V9.75H29.1893V13H25.946Z" fill="black"/>
<path fill-rule="evenodd" clip-rule="evenodd" d="M35.6758 9.75H38.919V13V16.25V19.5V22.75H42.1623V26H38.919H35.6758V16.25V9.75Z" fill="black"/>
<path fill-rule="evenodd" clip-rule="evenodd" d="M22.7026 16.25V13H25.9459V16.25H22.7026Z" fill="black"/>
<path fill-rule="evenodd" clip-rule="evenodd" d="M12.9729 16.25H16.2162V19.5H12.9729V16.25Z" fill="black"/>
<path fill-rule="evenodd" clip-rule="evenodd" d="M19.4595 19.5V16.25H22.7027V19.5H19.4595Z" fill="black"/>
<path fill-rule="evenodd" clip-rule="evenodd" d="M110.27 19.5V16.25H113.514H116.757V19.5H110.27Z" fill="black"/>
<path fill-rule="evenodd" clip-rule="evenodd" d="M16.2163 19.5H19.4596V22.75H16.2163V19.5Z" fill="black"/>
<path fill-rule="evenodd" clip-rule="evenodd" d="M107.027 22.75V19.5H110.27V22.75H107.027Z" fill="black"/>
<path fill-rule="evenodd" clip-rule="evenodd" d="M116.757 19.5H120V32.5H116.757V19.5Z" fill="black"/>
<path fill-rule="evenodd" clip-rule="evenodd" d="M48.6487 22.75H51.8919V26V29.25V32.5H48.6487V22.75Z" fill="black"/>
<path fill-rule="evenodd" clip-rule="evenodd" d="M103.784 26V22.75H107.027V26H103.784Z" fill="black"/>
<path fill-rule="evenodd" clip-rule="evenodd" d="M32.4324 29.25V26H35.6756V29.25H32.4324Z" fill="black"/>
<path fill-rule="evenodd" clip-rule="evenodd" d="M103.784 26V32.5H100.541V29.25V26H103.784Z" fill="black"/>
<path fill-rule="evenodd" clip-rule="evenodd" d="M32.4325 29.25V32.5H25.946V29.25H29.1893H32.4325Z" fill="black"/>
<path fill-rule="evenodd" clip-rule="evenodd" d="M12.9729 32.5H16.2161H19.4594V35.75H16.2161H12.9729V32.5Z" fill="black"/>
<path fill-rule="evenodd" clip-rule="evenodd" d="M48.6486 32.5V35.75V39H51.8919H64.8648V42.25H58.3783H48.6486V45.5V48.75H45.4054V35.75H42.1621V32.5H45.4054H48.6486Z" fill="black"/>
<path fill-rule="evenodd" clip-rule="evenodd" d="M97.2974 35.75V32.5H100.541V35.75H97.2974Z" fill="black"/>
<path fill-rule="evenodd" clip-rule="evenodd" d="M103.784 35.75V32.5H107.027V35.75H103.784Z" fill="black"/>
<path fill-rule="evenodd" clip-rule="evenodd" d="M113.513 35.75V32.5H116.757V35.75H113.513Z" fill="black"/>
<path fill-rule="evenodd" clip-rule="evenodd" d="M29.1892 39V35.75H32.4325H38.919V39V42.25V45.5V48.75H35.6757V42.25V39H32.4325H29.1892Z" fill="black"/>
<path fill-rule="evenodd" clip-rule="evenodd" d="M94.054 39V35.75H97.2972V39H94.054Z" fill="black"/>
<path fill-rule="evenodd" clip-rule="evenodd" d="M100.541 35.75H103.784V39H100.541V35.75Z" fill="black"/>
<path fill-rule="evenodd" clip-rule="evenodd" d="M107.027 39V35.75H113.514V39H110.27H107.027Z" fill="black"/>
<path fill-rule="evenodd" clip-rule="evenodd" d="M9.72974 39H12.973V42.25V45.5H9.72974V42.25V39Z" fill="black"/>
<path fill-rule="evenodd" clip-rule="evenodd" d="M25.946 42.25V39H29.1893V42.25H25.946Z" fill="black"/>
<path fill-rule="evenodd" clip-rule="evenodd" d="M90.8108 42.25V39H94.054V42.25H90.8108Z" fill="black"/>
<path fill-rule="evenodd" clip-rule="evenodd" d="M103.784 42.25V39H107.027V42.25H103.784Z" fill="black"/>
<path fill-rule="evenodd" clip-rule="evenodd" d="M25.946 42.25V45.5H22.7027V48.75H19.4595V45.5V42.25H25.946Z" fill="black"/>
<path fill-rule="evenodd" clip-rule="evenodd" d="M64.865 42.25H68.1082V45.5H64.865V42.25Z" fill="black"/>
<path fill-rule="evenodd" clip-rule="evenodd" d="M87.5676 45.5V42.25H90.8109V45.5H87.5676Z" fill="black"/>
<path fill-rule="evenodd" clip-rule="evenodd" d="M100.541 45.5V42.25H103.784V45.5H100.541Z" fill="black"/>
<path fill-rule="evenodd" clip-rule="evenodd" d="M12.9729 45.5H16.2162V48.75V52H12.9729V48.75V45.5Z" fill="black"/>
<path fill-rule="evenodd" clip-rule="evenodd" d="M68.1082 45.5H71.3514V48.75H68.1082V45.5Z" fill="black"/>
<path fill-rule="evenodd" clip-rule="evenodd" d="M84.3242 48.75V45.5H87.5675V48.75H84.3242Z" fill="black"/>
<path fill-rule="evenodd" clip-rule="evenodd" d="M90.8108 48.75V45.5H94.054V48.75H90.8108Z" fill="black"/>
<path fill-rule="evenodd" clip-rule="evenodd" d="M97.2974 48.75V45.5H100.541V48.75H97.2974Z" fill="black"/>
<path fill-rule="evenodd" clip-rule="evenodd" d="M22.7026 48.75H35.6756V52H29.1891H25.9459H22.7026V48.75Z" fill="black"/>
<path fill-rule="evenodd" clip-rule="evenodd" d="M42.1621 52V48.75H45.4054V52H42.1621Z" fill="black"/>
<path fill-rule="evenodd" clip-rule="evenodd" d="M71.3513 48.75H74.5946V52V55.25H71.3513V52V48.75Z" fill="black"/>
<path fill-rule="evenodd" clip-rule="evenodd" d="M81.0811 52V48.75H84.3243V52H81.0811Z" fill="black"/>
<path fill-rule="evenodd" clip-rule="evenodd" d="M87.5676 52V48.75H90.8109V52H87.5676Z" fill="black"/>
<path fill-rule="evenodd" clip-rule="evenodd" d="M94.054 48.75H97.2972V52V55.25V58.5H94.054V48.75Z" fill="black"/>
<path fill-rule="evenodd" clip-rule="evenodd" d="M16.2163 52H19.4596V55.25H16.2163V52Z" fill="black"/>
<path fill-rule="evenodd" clip-rule="evenodd" d="M35.6758 55.25V52H42.1623V55.25H38.919H35.6758Z" fill="black"/>
<path fill-rule="evenodd" clip-rule="evenodd" d="M77.8379 55.25V52H81.0811V55.25H77.8379Z" fill="black"/>
<path fill-rule="evenodd" clip-rule="evenodd" d="M84.3242 52H87.5675V55.25V58.5H84.3242V52Z" fill="black"/>
<path fill-rule="evenodd" clip-rule="evenodd" d="M19.4595 58.5V55.25H25.946H35.6757V58.5H32.4324H29.1892H19.4595Z" fill="black"/>
<path fill-rule="evenodd" clip-rule="evenodd" d="M64.8649 65H61.6217V68.25H64.8649V71.5H61.6217V74.75H58.3784V71.5V68.25V65V61.75V58.5V55.25H61.6217V58.5V61.75H64.8649V65Z" fill="black"/>
<path fill-rule="evenodd" clip-rule="evenodd" d="M74.5945 58.5V55.25H77.8378V58.5H74.5945Z" fill="black"/>
<path fill-rule="evenodd" clip-rule="evenodd" d="M16.2163 61.75V58.5H19.4596V61.75H16.2163Z" fill="black"/>
<path fill-rule="evenodd" clip-rule="evenodd" d="M71.3513 61.75V58.5H74.5946V61.75H71.3513Z" fill="black"/>
<path fill-rule="evenodd" clip-rule="evenodd" d="M84.3243 58.5V61.75V65H81.0811V61.75V58.5H84.3243Z" fill="black"/>
<path fill-rule="evenodd" clip-rule="evenodd" d="M94.054 58.5V61.75V65H90.8108V61.75V58.5H94.054Z" fill="black"/>
<path fill-rule="evenodd" clip-rule="evenodd" d="M16.2162 61.75V65V68.25H12.9729V65V61.75H16.2162Z" fill="black"/>
<path fill-rule="evenodd" clip-rule="evenodd" d="M48.6487 65V61.75H55.1352V65V68.25V71.5H51.8919V68.25V65H48.6487Z" fill="black"/>
<path fill-rule="evenodd" clip-rule="evenodd" d="M68.1082 65V61.75H71.3514V65H68.1082Z" fill="black"/>
<path fill-rule="evenodd" clip-rule="evenodd" d="M25.946 71.5V68.25V65H29.1893V68.25V71.5H25.946Z" fill="black"/>
<path fill-rule="evenodd" clip-rule="evenodd" d="M45.4055 68.25V65H48.6488V68.25H45.4055Z" fill="black"/>
<path fill-rule="evenodd" clip-rule="evenodd" d="M64.865 68.25V65H68.1082V68.25H64.865Z" fill="black"/>
<path fill-rule="evenodd" clip-rule="evenodd" d="M77.8379 68.25V65H81.0811V68.25H77.8379Z" fill="black"/>
<path fill-rule="evenodd" clip-rule="evenodd" d="M90.8109 65V74.75H87.5676V71.5V68.25V65H90.8109Z" fill="black"/>
<path fill-rule="evenodd" clip-rule="evenodd" d="M12.973 68.25V81.25H9.72974V78V74.75V71.5V68.25H12.973Z" fill="black"/>
<path fill-rule="evenodd" clip-rule="evenodd" d="M42.1621 71.5V68.25H45.4054V71.5H42.1621Z" fill="black"/>
<path fill-rule="evenodd" clip-rule="evenodd" d="M74.5945 71.5V68.25H77.8378V71.5H74.5945Z" fill="black"/>
<path fill-rule="evenodd" clip-rule="evenodd" d="M25.9459 71.5V78H22.7026V74.75V71.5H25.9459Z" fill="black"/>
<path fill-rule="evenodd" clip-rule="evenodd" d="M42.1622 71.5V74.75V78H38.9189V74.75V71.5H42.1622Z" fill="black"/>
<path fill-rule="evenodd" clip-rule="evenodd" d="M51.8919 71.5V78H48.6487V74.75V71.5H51.8919Z" fill="black"/>
<path fill-rule="evenodd" clip-rule="evenodd" d="M71.3513 74.75V71.5H74.5946V74.75H71.3513Z" fill="black"/>
<path fill-rule="evenodd" clip-rule="evenodd" d="M77.8379 71.5H81.0811V74.75H77.8379V71.5Z" fill="black"/>
<path fill-rule="evenodd" clip-rule="evenodd" d="M55.1353 78V74.75H58.3785V78H55.1353Z" fill="black"/>
<path fill-rule="evenodd" clip-rule="evenodd" d="M68.1082 78V74.75H71.3514V78H68.1082Z" fill="black"/>
<path fill-rule="evenodd" clip-rule="evenodd" d="M81.0811 74.75H87.5675V78H84.3243H81.0811V74.75Z" fill="black"/>
<path fill-rule="evenodd" clip-rule="evenodd" d="M25.946 78H29.1893V81.25V84.5H25.946V81.25V78Z" fill="black"/>
<path fill-rule="evenodd" clip-rule="evenodd" d="M35.6758 81.25V78H38.919V81.25H35.6758Z" fill="black"/>
<path fill-rule="evenodd" clip-rule="evenodd" d="M48.6488 78V81.25H51.892V84.5H48.6488V87.75V91H45.4055V87.75V84.5V78H48.6488Z" fill="black"/>
<path fill-rule="evenodd" clip-rule="evenodd" d="M51.8918 81.25V78H55.1351V81.25H51.8918Z" fill="black"/>
<path fill-rule="evenodd" clip-rule="evenodd" d="M64.865 81.25V78H68.1082V81.25H64.865Z" fill="black"/>
<path fill-rule="evenodd" clip-rule="evenodd" d="M12.9729 81.25H16.2162V84.5V87.75H12.9729V84.5V81.25Z" fill="black"/>
<path fill-rule="evenodd" clip-rule="evenodd" d="M32.4324 84.5V81.25H35.6756V84.5H32.4324Z" fill="black"/>
<path fill-rule="evenodd" clip-rule="evenodd" d="M61.6216 84.5V81.25H64.8649V84.5H61.6216Z" fill="black"/>
<path fill-rule="evenodd" clip-rule="evenodd" d="M29.1892 84.5H32.4325V87.75H35.6757H38.919V91H29.1892V84.5Z" fill="black"/>
<path fill-rule="evenodd" clip-rule="evenodd" d="M58.3784 87.75V84.5H61.6217V87.75H58.3784Z" fill="black"/>
<path fill-rule="evenodd" clip-rule="evenodd" d="M64.865 84.5H68.1082V87.75H64.865V84.5Z" fill="black"/>
<path fill-rule="evenodd" clip-rule="evenodd" d="M16.2163 87.75H19.4596V91H16.2163V87.75Z" fill="black"/>
<path fill-rule="evenodd" clip-rule="evenodd" d="M55.1353 91V87.75H58.3785V91H55.1353Z" fill="black"/>
<path fill-rule="evenodd" clip-rule="evenodd" d="M68.1082 87.75H71.3514V91H68.1082V87.75Z" fill="black"/>
<path fill-rule="evenodd" clip-rule="evenodd" d="M19.4595 94.25V91H22.7027V94.25H19.4595Z" fill="black"/>
<path fill-rule="evenodd" clip-rule="evenodd" d="M38.9188 91H42.1621V94.25V97.5H38.9188V100.75V104V113.75H32.4324V110.5H35.6756V107.25V104V100.75V97.5V94.25H38.9188V91Z" fill="black"/>
<path fill-rule="evenodd" clip-rule="evenodd" d="M48.6487 91H55.1352V94.25H51.8919H48.6487V91Z" fill="black"/>
<path fill-rule="evenodd" clip-rule="evenodd" d="M58.3784 94.25V91H64.8649V97.5V100.75H61.6217V97.5V94.25H58.3784Z" fill="black"/>
<path fill-rule="evenodd" clip-rule="evenodd" d="M71.3513 91H74.5946V94.25V97.5H71.3513V94.25V91Z" fill="black"/>
<path fill-rule="evenodd" clip-rule="evenodd" d="M16.2163 97.5V94.25H19.4596V97.5H16.2163Z" fill="black"/>
<path fill-rule="evenodd" clip-rule="evenodd" d="M22.7026 94.25H25.9459V97.5V100.75V107.25H22.7026V104V100.75V94.25Z" fill="black"/>
<path fill-rule="evenodd" clip-rule="evenodd" d="M55.1353 94.25H58.3785V97.5H55.1353V94.25Z" fill="black"/>
<path fill-rule="evenodd" clip-rule="evenodd" d="M16.2162 97.5V100.75V104H12.9729V100.75V97.5H16.2162Z" fill="black"/>
<path fill-rule="evenodd" clip-rule="evenodd" d="M74.5945 97.5H77.8378V100.75V104V107.25H74.5945V104V100.75V97.5Z" fill="black"/>
<path fill-rule="evenodd" clip-rule="evenodd" d="M58.3784 104V100.75H61.6217V104H58.3784Z" fill="black"/>
<path fill-rule="evenodd" clip-rule="evenodd" d="M12.973 104V117H9.72974V113.75V110.5V107.25V104H12.973Z" fill="black"/>
<path fill-rule="evenodd" clip-rule="evenodd" d="M55.1353 107.25V104H58.3785V107.25H55.1353Z" fill="black"/>
<path fill-rule="evenodd" clip-rule="evenodd" d="M25.946 107.25H29.1893H32.4325V110.5H29.1893H25.946V107.25Z" fill="black"/>
<path fill-rule="evenodd" clip-rule="evenodd" d="M51.8918 110.5V107.25H55.1351V110.5H51.8918Z" fill="black"/>
<path fill-rule="evenodd" clip-rule="evenodd" d="M58.3784 107.25H61.6217V110.5V113.75H58.3784V110.5V107.25Z" fill="black"/>
<path fill-rule="evenodd" clip-rule="evenodd" d="M77.8379 107.25H81.0811V110.5V113.75H84.3244H87.5676V117H77.8379V107.25Z" fill="black"/>
<path fill-rule="evenodd" clip-rule="evenodd" d="M48.6487 113.75V110.5H51.8919V113.75H48.6487Z" fill="black"/>
<path fill-rule="evenodd" clip-rule="evenodd" d="M48.6488 113.75V117V120.25H45.4055V117V113.75H48.6488Z" fill="black"/>
<path fill-rule="evenodd" clip-rule="evenodd" d="M61.6216 113.75H64.8649V117V120.25H61.6216V117V113.75Z" fill="black"/>
<path fill-rule="evenodd" clip-rule="evenodd" d="M12.973 117H16.2162V120.25H19.4595V123.5H16.2162V126.75V130V133.25V136.5H29.1892V130V126.75H25.946H22.7027H19.4595V123.5H32.4324H38.9189V126.75H35.6757H32.4324V149.5H29.1892V143V139.75H25.946H22.7027H19.4595H16.2162V143H12.973H9.72974V139.75H12.973V136.5V133.25V130V117Z" fill="black"/>
<path fill-rule="evenodd" clip-rule="evenodd" d="M87.5676 117H90.8109H94.0541V120.25H97.2973V123.5H94.0541V126.75V130H90.8109V126.75V123.5V120.25H87.5676V117Z" fill="black"/>
<path fill-rule="evenodd" clip-rule="evenodd" d="M38.9189 123.5V120.25H42.1622H45.4054V123.5H42.1622H38.9189Z" fill="black"/>
<path fill-rule="evenodd" clip-rule="evenodd" d="M64.865 120.25H68.1082V123.5V126.75H64.865V123.5V120.25Z" fill="black"/>
<path fill-rule="evenodd" clip-rule="evenodd" d="M97.2974 123.5H100.541V126.75V130V133.25V136.5V139.75V143V146.25V149.5V152.75H97.2974V123.5Z" fill="black"/>
<path fill-rule="evenodd" clip-rule="evenodd" d="M68.1082 126.75H71.3514H74.5946V130H71.3514H68.1082V126.75Z" fill="black"/>
<path fill-rule="evenodd" clip-rule="evenodd" d="M74.5945 130H81.081H90.8107V133.25H87.5675V136.5V139.75V143H90.8107V146.25H84.3242V133.25H81.081H77.8377H74.5945V130Z" fill="black"/>
<path fill-rule="evenodd" clip-rule="evenodd" d="M3.24316 146.25V143H6.48641H9.72965V146.25H6.48641H3.24316Z" fill="black"/>
<path fill-rule="evenodd" clip-rule="evenodd" d="M0 146.25H3.24324V152.75H0V146.25Z" fill="black"/>
<path fill-rule="evenodd" clip-rule="evenodd" d="M84.3243 146.25V149.5V152.75H87.5675H97.2973V156H87.5675H81.0811V152.75V149.5V146.25H84.3243Z" fill="black"/>
<path fill-rule="evenodd" clip-rule="evenodd" d="M22.7026 152.75V149.5H25.9459H29.1891V152.75H25.9459H22.7026Z" fill="black"/>
<path fill-rule="evenodd" clip-rule="evenodd" d="M3.24316 156V152.75H16.2161H22.7026V156H12.9729H6.48641H3.24316Z" fill="black"/>
<path fill-rule="evenodd" clip-rule="evenodd" d="M19.4595 3.25H42.1622V6.5H45.4054V19.5H42.1622V22.75H38.9189V16.25V13V9.75H35.6757V6.5H32.4324H29.1892V9.75H25.946V13H22.7027V16.25H19.4595V19.5H16.2162V16.25H12.973V13H9.72974V9.75H12.973V6.5H16.2162H19.4595V3.25Z" fill="#FFA83E"/>
<path fill-rule="evenodd" clip-rule="evenodd" d="M29.1892 42.25V39H32.4325H35.6757V42.25H29.1892Z" fill="#D5CEBA"/>
<path fill-rule="evenodd" clip-rule="evenodd" d="M25.946 42.25H29.1893V45.5H25.946V42.25Z" fill="#D5CEBA"/>
<path fill-rule="evenodd" clip-rule="evenodd" d="M29.1891 42.25H32.4324H35.6756V45.5V48.75H29.1891H25.9459H22.7026V45.5H25.9459H29.1891V42.25Z" fill="#8C2525"/>
<path fill-rule="evenodd" clip-rule="evenodd" d="M51.8918 42.25H55.1351V45.5V48.75H51.8918V42.25Z" fill="#3872FF"/>
<path fill-rule="evenodd" clip-rule="evenodd" d="M51.8919 48.75V55.25H48.6487V52V48.75H51.8919Z" fill="#3872FF"/>
<path fill-rule="evenodd" clip-rule="evenodd" d="M55.1353 48.75H68.1082V52H61.6217H58.3785H55.1353V48.75Z" fill="#3872FF"/>
<path fill-rule="evenodd" clip-rule="evenodd" d="M68.1082 55.25V52H71.3514V55.25H68.1082Z" fill="#3872FF"/>
<path fill-rule="evenodd" clip-rule="evenodd" d="M51.8918 55.25H55.1351H58.3783V58.5H51.8918V55.25Z" fill="#3872FF"/>
<path fill-rule="evenodd" clip-rule="evenodd" d="M68.1081 55.25V58.5H64.8648H61.6216V55.25H64.8648H68.1081Z" fill="#3872FF"/>
<path fill-rule="evenodd" clip-rule="evenodd" d="M22.7026 68.25V65V61.75V58.5H25.9459V61.75V68.25H22.7026Z" fill="#3872FF"/>
<path fill-rule="evenodd" clip-rule="evenodd" d="M32.4325 61.75H29.1892V58.5H32.4325V61.75Z" fill="#3872FF"/>
<path fill-rule="evenodd" clip-rule="evenodd" d="M32.4324 61.75H35.6756V65V68.25H32.4324V61.75Z" fill="#3872FF"/>
<path fill-rule="evenodd" clip-rule="evenodd" d="M87.5675 61.75V65H84.3242V61.75H87.5675Z" fill="#3872FF"/>
<path fill-rule="evenodd" clip-rule="evenodd" d="M19.4595 71.5V68.25H22.7027V71.5H19.4595Z" fill="#3872FF"/>
<path fill-rule="evenodd" clip-rule="evenodd" d="M32.4325 68.25V71.5H29.1892V68.25H32.4325Z" fill="#3872FF"/>
<path fill-rule="evenodd" clip-rule="evenodd" d="M84.3242 71.5V68.25H87.5675V71.5H84.3242Z" fill="#3872FF"/>
<path fill-rule="evenodd" clip-rule="evenodd" d="M12.9729 74.75V71.5H16.2161H19.4594V74.75H16.2161H12.9729Z" fill="#3872FF"/>
<path fill-rule="evenodd" clip-rule="evenodd" d="M84.3243 71.5V74.75H81.0811V71.5H84.3243Z" fill="#3872FF"/>
<path fill-rule="evenodd" clip-rule="evenodd" d="M16.2163 78H19.4595H22.7028V81.25H19.4595H16.2163V78Z" fill="#3872FF"/>
<path fill-rule="evenodd" clip-rule="evenodd" d="M22.7028 87.75H19.4595H16.2163V84.5H22.7028V87.75Z" fill="#3872FF"/>
<path fill-rule="evenodd" clip-rule="evenodd" d="M22.7026 87.75H25.9459V91V94.25H22.7026V87.75Z" fill="#3872FF"/>
<path fill-rule="evenodd" clip-rule="evenodd" d="M29.1892 9.75H35.6757V16.25V26H32.4324V29.25H29.1892H25.9459V32.5H32.4324V29.25H35.6757V26H38.9189H42.1622V22.75H45.4054H48.6487V26V29.25V32.5H45.4054H42.1622V35.75H45.4054V39V42.25V45.5V48.75H42.1622V52H35.6757V48.75H38.9189V45.5V42.25V39V35.75H35.6757H32.4324H29.1892V39H25.9459V42.25H22.7027H19.4595V48.75H22.7027V52H25.9459H29.1892H32.4324H35.6757V55.25H29.1892H25.9459H19.4595V52H16.2162V48.75V45.5H12.973V42.25V39H9.72974V32.5H12.973V35.75H16.2162H19.4595V32.5H16.2162H12.973V29.25H9.72974V16.25H12.973V19.5H16.2162V22.75H19.4595V19.5H22.7027V16.25H25.9459V13H29.1892V9.75Z" fill="#FFDCA8"/>
<path fill-rule="evenodd" clip-rule="evenodd" d="M51.8919 48.75H48.6487V45.5V42.25H51.8919V45.5V48.75Z" fill="#FFDCA8"/>
<path fill-rule="evenodd" clip-rule="evenodd" d="M68.1082 48.75H55.1353V45.5V42.25H58.3785H61.6217H64.865V45.5H68.1082V48.75Z" fill="#FFDCA8"/>
<path fill-rule="evenodd" clip-rule="evenodd" d="M45.4055 48.75H48.6487V52V55.25H51.892V58.5H55.1352H58.3785V61.75V74.75H55.1352V78H51.892V74.75V71.5H55.1352V68.25V61.75H51.892H48.6487V65H45.4055V68.25H42.1623V71.5H38.919V74.75V78H35.6758V81.25H32.4325V84.5H29.1893V81.25V78H25.946V71.5H29.1893H32.4325V68.25H35.6758V65V61.75H32.4325V58.5H35.6758V55.25H38.919H42.1623V52H45.4055V48.75Z" fill="#FFDCA8"/>
<path fill-rule="evenodd" clip-rule="evenodd" d="M51.8918 48.75H55.1351V52H58.3783H68.1081V55.25H58.3783H51.8918V48.75Z" fill="#FFDCA8"/>
<path fill-rule="evenodd" clip-rule="evenodd" d="M68.1082 52V48.75H71.3514V52H68.1082Z" fill="#FFDCA8"/>
<path fill-rule="evenodd" clip-rule="evenodd" d="M94.0539 48.75V58.5H90.8107V61.75V65H87.5675V61.75H84.3242V58.5H87.5675V55.25V52H90.8107V48.75H94.0539Z" fill="#FFDCA8"/>
<path fill-rule="evenodd" clip-rule="evenodd" d="M68.1081 55.25H74.5946V58.5H71.3513V61.75H68.1081V65H64.8648V61.75H61.6216V58.5H64.8648H68.1081V55.25Z" fill="#FFDCA8"/>
<path fill-rule="evenodd" clip-rule="evenodd" d="M22.7026 68.25H19.4594V71.5H16.2161H12.9729V68.25H16.2161V65V61.75H19.4594V58.5H22.7026V68.25Z" fill="#FFDCA8"/>
<path fill-rule="evenodd" clip-rule="evenodd" d="M32.4325 61.75V68.25H29.1893V65H25.946V58.5H29.1893V61.75H32.4325Z" fill="#FFDCA8"/>
<path fill-rule="evenodd" clip-rule="evenodd" d="M87.5676 65V68.25H84.3244V71.5H77.8379V68.25H81.0811V65H84.3244H87.5676Z" fill="#FFDCA8"/>
<path fill-rule="evenodd" clip-rule="evenodd" d="M22.7026 71.5V68.25H25.9459V71.5H22.7026Z" fill="#FFDCA8"/>
<path fill-rule="evenodd" clip-rule="evenodd" d="M19.4594 71.5H22.7026V78H19.4594H16.2161V81.25H12.9729V78V74.75H19.4594V71.5Z" fill="#FFDCA8"/>
<path fill-rule="evenodd" clip-rule="evenodd" d="M84.3242 71.5H87.5675V74.75H84.3242V71.5Z" fill="#FFDCA8"/>
<path fill-rule="evenodd" clip-rule="evenodd" d="M22.7028 78H25.946V81.25V84.5H29.1893V87.75V91H32.4325H38.919V94.25H35.6758V97.5V100.75V104V110.5H32.4325V107.25H29.1893H25.946V104V100.75V97.5V94.25V91V87.75H22.7028V84.5H19.4596H16.2163V81.25H19.4596H22.7028V78Z" fill="#FFDCA8"/>
<path fill-rule="evenodd" clip-rule="evenodd" d="M51.8919 78V81.25H48.6487V78H51.8919Z" fill="#FFDCA8"/>
<path fill-rule="evenodd" clip-rule="evenodd" d="M22.7027 87.75V91H19.4595V87.75H22.7027Z" fill="#FFDCA8"/>
<path fill-rule="evenodd" clip-rule="evenodd" d="M110.27 22.75V19.5H113.514H116.757V22.75V26H113.514V22.75H110.27Z" fill="#96627B"/>
<path fill-rule="evenodd" clip-rule="evenodd" d="M107.027 26V22.75H110.27V26H107.027Z" fill="#96627B"/>
<path fill-rule="evenodd" clip-rule="evenodd" d="M103.784 29.25V26H107.027V29.25H103.784Z" fill="#96627B"/>
<path fill-rule="evenodd" clip-rule="evenodd" d="M110.27 29.25V26H113.514V29.25H110.27Z" fill="#96627B"/>
<path fill-rule="evenodd" clip-rule="evenodd" d="M107.027 29.25H110.27V32.5H107.027V29.25Z" fill="#96627B"/>
<path fill-rule="evenodd" clip-rule="evenodd" d="M113.513 32.5V29.25H116.757V32.5H113.513Z" fill="#96627B"/>
<path fill-rule="evenodd" clip-rule="evenodd" d="M110.27 35.75V32.5H113.514V35.75H110.27Z" fill="#96627B"/>
<path fill-rule="evenodd" clip-rule="evenodd" d="M100.541 35.75V32.5H103.784V35.75H100.541Z" fill="#686262"/>
<path fill-rule="evenodd" clip-rule="evenodd" d="M103.784 39V35.75H107.027V39H103.784Z" fill="#686262"/>
<path fill-rule="evenodd" clip-rule="evenodd" d="M97.2974 42.25V39H100.541V42.25H97.2974Z" fill="#C1A159"/>
<path fill-rule="evenodd" clip-rule="evenodd" d="M97.2972 42.25V45.5H94.054V42.25H97.2972Z" fill="#C1A159"/>
<path fill-rule="evenodd" clip-rule="evenodd" d="M81.0811 58.5V55.25H84.3243V58.5H81.0811Z" fill="#C1A159"/>
<path fill-rule="evenodd" clip-rule="evenodd" d="M77.8379 61.75V58.5H81.0811V61.75H77.8379Z" fill="#C1A159"/>
<path fill-rule="evenodd" clip-rule="evenodd" d="M74.5945 65V61.75H77.8378V65H74.5945Z" fill="#C1A159"/>
<path fill-rule="evenodd" clip-rule="evenodd" d="M71.3513 68.25V65H74.5946V68.25H71.3513Z" fill="#C1A159"/>
<path fill-rule="evenodd" clip-rule="evenodd" d="M68.1082 71.5V68.25H71.3514V71.5H68.1082Z" fill="#C1A159"/>
<path fill-rule="evenodd" clip-rule="evenodd" d="M64.865 74.75V71.5H68.1082V74.75H64.865Z" fill="#C1A159"/>
<path fill-rule="evenodd" clip-rule="evenodd" d="M61.6216 78V74.75H64.8649V78H61.6216Z" fill="#C1A159"/>
<path fill-rule="evenodd" clip-rule="evenodd" d="M58.3784 81.25V78H61.6217V81.25H58.3784Z" fill="#C1A159"/>
<path fill-rule="evenodd" clip-rule="evenodd" d="M55.1353 84.5V81.25H58.3785V84.5H55.1353Z" fill="#C1A159"/>
<path fill-rule="evenodd" clip-rule="evenodd" d="M51.8918 87.75V84.5H55.1351V87.75H51.8918Z" fill="#C1A159"/>
<path fill-rule="evenodd" clip-rule="evenodd" d="M48.6487 87.75H51.8919V91H48.6487V87.75Z" fill="#C1A159"/>
<path fill-rule="evenodd" clip-rule="evenodd" d="M97.2974 39V35.75H100.541V39H97.2974Z" fill="#977E46"/>
<path fill-rule="evenodd" clip-rule="evenodd" d="M94.054 42.25V39H97.2972V42.25H94.054Z" fill="#977E46"/>
<path fill-rule="evenodd" clip-rule="evenodd" d="M100.541 42.25V39H103.784V42.25H100.541Z" fill="#977E46"/>
<path fill-rule="evenodd" clip-rule="evenodd" d="M90.8108 45.5V42.25H94.054V45.5H90.8108Z" fill="#977E46"/>
<path fill-rule="evenodd" clip-rule="evenodd" d="M97.2974 45.5V42.25H100.541V45.5H97.2974Z" fill="#977E46"/>
<path fill-rule="evenodd" clip-rule="evenodd" d="M87.5676 48.75V45.5H90.8109V48.75H87.5676Z" fill="#977E46"/>
<path fill-rule="evenodd" clip-rule="evenodd" d="M94.054 45.5H97.2972V48.75H94.054V45.5Z" fill="#977E46"/>
<path fill-rule="evenodd" clip-rule="evenodd" d="M84.3242 52V48.75H87.5675V52H84.3242Z" fill="#977E46"/>
<path fill-rule="evenodd" clip-rule="evenodd" d="M81.0811 55.25V52H84.3243V55.25H81.0811Z" fill="#977E46"/>
<path fill-rule="evenodd" clip-rule="evenodd" d="M77.8379 58.5V55.25H81.0811V58.5H77.8379Z" fill="#977E46"/>
<path fill-rule="evenodd" clip-rule="evenodd" d="M74.5945 61.75V58.5H77.8378V61.75H74.5945Z" fill="#977E46"/>
<path fill-rule="evenodd" clip-rule="evenodd" d="M71.3513 65V61.75H74.5946V65H71.3513Z" fill="#977E46"/>
<path fill-rule="evenodd" clip-rule="evenodd" d="M77.8379 65V61.75H81.0811V65H77.8379Z" fill="#977E46"/>
<path fill-rule="evenodd" clip-rule="evenodd" d="M68.1082 68.25V65H71.3514V68.25H68.1082Z" fill="#977E46"/>
<path fill-rule="evenodd" clip-rule="evenodd" d="M74.5945 68.25V65H77.8378V68.25H74.5945Z" fill="#977E46"/>
<path fill-rule="evenodd" clip-rule="evenodd" d="M64.865 71.5V68.25H68.1082V71.5H64.865Z" fill="#977E46"/>
<path fill-rule="evenodd" clip-rule="evenodd" d="M71.3513 71.5V68.25H74.5946V71.5H71.3513Z" fill="#977E46"/>
<path fill-rule="evenodd" clip-rule="evenodd" d="M61.6216 74.75V71.5H64.8649V74.75H61.6216Z" fill="#977E46"/>
<path fill-rule="evenodd" clip-rule="evenodd" d="M68.1082 74.75V71.5H71.3514V74.75H68.1082Z" fill="#977E46"/>
<path fill-rule="evenodd" clip-rule="evenodd" d="M58.3784 78V74.75H61.6217V78H58.3784Z" fill="#977E46"/>
<path fill-rule="evenodd" clip-rule="evenodd" d="M64.865 78V74.75H68.1082V78H64.865Z" fill="#977E46"/>
<path fill-rule="evenodd" clip-rule="evenodd" d="M55.1353 81.25V78H58.3785V81.25H55.1353Z" fill="#977E46"/>
<path fill-rule="evenodd" clip-rule="evenodd" d="M61.6216 81.25V78H64.8649V81.25H61.6216Z" fill="#977E46"/>
<path fill-rule="evenodd" clip-rule="evenodd" d="M51.8918 84.5V81.25H55.1351V84.5H51.8918Z" fill="#977E46"/>
<path fill-rule="evenodd" clip-rule="evenodd" d="M58.3784 84.5V81.25H61.6217V84.5H58.3784Z" fill="#977E46"/>
<path fill-rule="evenodd" clip-rule="evenodd" d="M48.6487 87.75V84.5H51.8919V87.75H48.6487Z" fill="#977E46"/>
<path fill-rule="evenodd" clip-rule="evenodd" d="M55.1353 87.75V84.5H58.3785V87.75H55.1353Z" fill="#977E46"/>
<path fill-rule="evenodd" clip-rule="evenodd" d="M51.8918 91V87.75H55.1351V91H51.8918Z" fill="#977E46"/>
<path fill-rule="evenodd" clip-rule="evenodd" d="M103.784 19.5V16.25H107.027V19.5H103.784Z" fill="#E696BC"/>
<path fill-rule="evenodd" clip-rule="evenodd" d="M100.541 22.75V19.5H103.784V22.75H100.541Z" fill="#E696BC"/>
<path fill-rule="evenodd" clip-rule="evenodd" d="M100.541 22.75V26H97.2974V22.75H100.541Z" fill="#E696BC"/>
<path fill-rule="evenodd" clip-rule="evenodd" d="M110.27 26V22.75H113.514V26H110.27Z" fill="#E696BC"/>
<path fill-rule="evenodd" clip-rule="evenodd" d="M107.027 29.25V26H110.27V29.25H107.027Z" fill="#E696BC"/>
<path fill-rule="evenodd" clip-rule="evenodd" d="M113.513 29.25V26H116.757V29.25H113.513Z" fill="#E696BC"/>
<path fill-rule="evenodd" clip-rule="evenodd" d="M107.027 29.25V32.5H103.784V29.25H107.027Z" fill="#E696BC"/>
<path fill-rule="evenodd" clip-rule="evenodd" d="M110.27 32.5V29.25H113.514V32.5H110.27Z" fill="#E696BC"/>
<path fill-rule="evenodd" clip-rule="evenodd" d="M107.027 32.5H110.27V35.75H107.027V32.5Z" fill="#E696BC"/>
<path fill-rule="evenodd" clip-rule="evenodd" d="M45.4054 94.25H42.1621V91H45.4054V94.25Z" fill="#E696BC"/>
<path fill-rule="evenodd" clip-rule="evenodd" d="M45.4055 97.5V94.25H48.6488V97.5H45.4055Z" fill="#E696BC"/>
<path fill-rule="evenodd" clip-rule="evenodd" d="M42.1621 100.75V97.5H45.4054V100.75H42.1621Z" fill="#E696BC"/>
<path fill-rule="evenodd" clip-rule="evenodd" d="M38.9189 100.75H42.1622V104H38.9189V100.75Z" fill="#E696BC"/>
<path fill-rule="evenodd" clip-rule="evenodd" d="M45.4055 104H48.6488V107.25H51.892V110.5H45.4055V104Z" fill="#CB6161"/>
<path fill-rule="evenodd" clip-rule="evenodd" d="M16.2163 110.5H19.4596V113.75H22.7028H25.946H29.1893H32.4325V117H35.6758V120.25H29.1893H19.4596V117H16.2163V110.5Z" fill="#CB6161"/>
<path fill-rule="evenodd" clip-rule="evenodd" d="M38.9189 113.75V110.5H42.1622V113.75H45.4054V117H42.1622H38.9189V113.75Z" fill="#CB6161"/>
<path fill-rule="evenodd" clip-rule="evenodd" d="M48.6486 65H51.8918V68.25V71.5H48.6486V74.75V78H45.4053V91H42.1621H38.9189V87.75H35.6756H32.4324V84.5H35.6756V81.25H38.9189V78H42.1621V74.75V71.5H45.4053V68.25H48.6486V65Z" fill="#832A2A"/>
<path fill-rule="evenodd" clip-rule="evenodd" d="M45.4055 94.25V91H48.6488V94.25H45.4055Z" fill="#832A2A"/>
<path fill-rule="evenodd" clip-rule="evenodd" d="M32.4324 113.75H25.9459H22.7026H19.4594V110.5H16.2161V113.75V117H12.9729V104H16.2161V97.5H19.4594V94.25H22.7026V104V107.25H25.9459V110.5H29.1891H32.4324V113.75Z" fill="#832A2A"/>
<path fill-rule="evenodd" clip-rule="evenodd" d="M42.1621 97.5V94.25H45.4054V97.5H42.1621Z" fill="#832A2A"/>
<path fill-rule="evenodd" clip-rule="evenodd" d="M48.6487 94.25H51.8919H55.1351V97.5H58.3784V94.25H61.6216V100.75H58.3784V104H55.1351V107.25H51.8919H48.6487V104H45.4054V107.25V110.5H48.6487V113.75H45.4054H42.1622V110.5H38.9189V107.25V104H42.1622V100.75H45.4054V97.5H48.6487V94.25Z" fill="#832A2A"/>
<path fill-rule="evenodd" clip-rule="evenodd" d="M42.1622 97.5V100.75H38.9189V97.5H42.1622Z" fill="#832A2A"/>
<path fill-rule="evenodd" clip-rule="evenodd" d="M32.4324 113.75H35.6757H38.9189V117H42.1622H45.4054V120.25H42.1622H38.9189V123.5H19.4595V120.25H29.1892H35.6757V117H32.4324V113.75Z" fill="#832A2A"/>
<path fill-rule="evenodd" clip-rule="evenodd" d="M16.2163 117H19.4596V120.25H16.2163V117Z" fill="#832A2A"/>
<path fill-rule="evenodd" clip-rule="evenodd" d="M61.6217 84.5H64.8649V87.75H68.1081V91H71.3514V94.25V97.5H74.5946V100.75V104V107.25H77.8379V110.5V113.75V117H81.0811H84.3244H87.5676V120.25H90.8108V130H81.0811H77.8379H74.5946V126.75H71.3514H68.1081V123.5V120.25H64.8649V117V113.75H61.6217V110.5V107.25H58.3784V104H61.6217V100.75H64.8649V97.5V91H58.3784V87.75H61.6217V84.5Z" fill="#4C493A"/>
<path fill-rule="evenodd" clip-rule="evenodd" d="M58.3785 91V94.25H55.1353V91H58.3785Z" fill="#4C493A"/>
<path fill-rule="evenodd" clip-rule="evenodd" d="M16.2163 123.5H19.4595V126.75H22.7028H29.1893V136.5H22.7028H16.2163V123.5Z" fill="#4C493A"/>
<path fill-rule="evenodd" clip-rule="evenodd" d="M90.8108 130H94.054H97.2973V133.25H94.054V136.5H90.8108V133.25V130Z" fill="#FFA8A8"/>
<path fill-rule="evenodd" clip-rule="evenodd" d="M97.2973 139.75V143H94.054V146.25H90.8108V143V139.75H94.054H97.2973Z" fill="#FFA8A8"/>
<path fill-rule="evenodd" clip-rule="evenodd" d="M16.2163 146.25V143H22.7028V149.5H19.4595V146.25H16.2163Z" fill="#FFA8A8"/>
<path fill-rule="evenodd" clip-rule="evenodd" d="M9.72974 149.5V146.25H12.973H16.2162V152.75H12.973V149.5H9.72974Z" fill="#FFA8A8"/>
<path fill-rule="evenodd" clip-rule="evenodd" d="M94.054 123.5H97.2972V126.75V130H94.054V126.75V123.5Z" fill="#B54848"/>
<path fill-rule="evenodd" clip-rule="evenodd" d="M97.2973 133.25V139.75H94.0541H90.8109V143H87.5676V139.75V136.5V133.25H90.8109V136.5H94.0541V133.25H97.2973Z" fill="#B54848"/>
<path fill-rule="evenodd" clip-rule="evenodd" d="M16.2163 143V139.75H29.1893V143V146.25V149.5H25.946H22.7028V143H16.2163Z" fill="#B54848"/>
<path fill-rule="evenodd" clip-rule="evenodd" d="M9.72974 146.25V143H12.973H16.2162V146.25H9.72974Z" fill="#B54848"/>
<path fill-rule="evenodd" clip-rule="evenodd" d="M97.2972 143V152.75H84.3242V146.25H87.5675H90.8107H94.054V143H97.2972Z" fill="#B54848"/>
<path fill-rule="evenodd" clip-rule="evenodd" d="M3.24316 146.25H6.48641H9.72965V149.5H12.9729V152.75H9.72965H3.24316V146.25Z" fill="#B54848"/>
<path fill-rule="evenodd" clip-rule="evenodd" d="M16.2163 146.25H19.4595V149.5H22.7028V152.75H16.2163V146.25Z" fill="#B54848"/>
</svg>
