<svg width="133" height="142" viewBox="0 0 133 142" fill="none" xmlns="http://www.w3.org/2000/svg">
<path fill-rule="evenodd" clip-rule="evenodd" d="M67.9778 2.95833V0H79.8V2.95833H67.9778Z" fill="black"/>
<path fill-rule="evenodd" clip-rule="evenodd" d="M62.0667 5.91665V2.95831H65.0222H67.9777V5.91665H65.0222H62.0667Z" fill="black"/>
<path fill-rule="evenodd" clip-rule="evenodd" d="M79.8 2.95831H82.7556H85.7112V5.91665H82.7556H79.8V2.95831Z" fill="black"/>
<path fill-rule="evenodd" clip-rule="evenodd" d="M56.1555 8.87502V5.91669H59.1111H62.0666V8.87502H59.1111H56.1555Z" fill="black"/>
<path fill-rule="evenodd" clip-rule="evenodd" d="M85.7111 5.91669H88.6666V8.87502H85.7111V5.91669Z" fill="black"/>
<path fill-rule="evenodd" clip-rule="evenodd" d="M53.2 11.8333V8.875H56.1555V11.8333H53.2Z" fill="black"/>
<path fill-rule="evenodd" clip-rule="evenodd" d="M88.6666 8.875H91.6222V11.8333V14.7917H88.6666V11.8333V8.875Z" fill="black"/>
<path fill-rule="evenodd" clip-rule="evenodd" d="M50.2444 14.7916V11.8333H53.1999V14.7916H50.2444Z" fill="black"/>
<path fill-rule="evenodd" clip-rule="evenodd" d="M47.2889 17.75V14.7917H50.2445V17.75H47.2889Z" fill="black"/>
<path fill-rule="evenodd" clip-rule="evenodd" d="M91.6222 14.7917H94.5778V17.75V20.7084H91.6222V17.75V14.7917Z" fill="black"/>
<path fill-rule="evenodd" clip-rule="evenodd" d="M47.2889 17.75V20.7083V23.6667H44.3334V20.7083V17.75H47.2889Z" fill="black"/>
<path fill-rule="evenodd" clip-rule="evenodd" d="M94.5778 20.7083H97.5333V23.6666V26.625V29.5833H94.5778V26.625V23.6666V20.7083Z" fill="black"/>
<path fill-rule="evenodd" clip-rule="evenodd" d="M44.3334 23.6667V29.5834V32.5417V35.5H41.3778V26.625V23.6667H44.3334Z" fill="black"/>
<path fill-rule="evenodd" clip-rule="evenodd" d="M97.5333 29.5833H100.489V32.5416V35.5V44.375V56.2083V59.1666H97.5333V29.5833Z" fill="black"/>
<path fill-rule="evenodd" clip-rule="evenodd" d="M41.3778 35.5V62.125H38.4222V59.1667V56.2083V53.25V50.2917V47.3333V44.375V41.4167V38.4583V35.5H41.3778Z" fill="black"/>
<path fill-rule="evenodd" clip-rule="evenodd" d="M53.2 41.4166V38.4583H56.1555H59.1111V41.4166H53.2Z" fill="black"/>
<path fill-rule="evenodd" clip-rule="evenodd" d="M79.8 41.4166V38.4583H82.7556H85.7112V41.4166H79.8Z" fill="black"/>
<path fill-rule="evenodd" clip-rule="evenodd" d="M50.2444 44.375V41.4167H53.1999V44.375H50.2444Z" fill="black"/>
<path fill-rule="evenodd" clip-rule="evenodd" d="M59.1111 41.4167H62.0666V44.375H59.1111V41.4167Z" fill="black"/>
<path fill-rule="evenodd" clip-rule="evenodd" d="M76.8445 44.375V41.4167H79.8V44.375H76.8445Z" fill="black"/>
<path fill-rule="evenodd" clip-rule="evenodd" d="M85.7111 41.4167H88.6666V44.375H85.7111V41.4167Z" fill="black"/>
<path fill-rule="evenodd" clip-rule="evenodd" d="M50.2445 44.375V47.3333V50.2917H53.2001V53.25H50.2445H47.2889V44.375H50.2445Z" fill="black"/>
<path fill-rule="evenodd" clip-rule="evenodd" d="M62.0666 44.375H65.0222V47.3333V50.2917V53.25H62.0666H59.1111V50.2917H62.0666V47.3333V44.375Z" fill="black"/>
<path fill-rule="evenodd" clip-rule="evenodd" d="M76.8445 44.375V47.3333V50.2917H79.8001V53.25H76.8445H73.8889V44.375H76.8445Z" fill="black"/>
<path fill-rule="evenodd" clip-rule="evenodd" d="M88.6666 44.375H91.6222V47.3333V50.2917V53.25H88.6666H85.7111V50.2917H88.6666V47.3333V44.375Z" fill="black"/>
<path fill-rule="evenodd" clip-rule="evenodd" d="M53.2 50.2916V47.3333H56.1555H59.1111V50.2916H53.2Z" fill="black"/>
<path fill-rule="evenodd" clip-rule="evenodd" d="M79.8 50.2916V47.3333H82.7556H85.7112V50.2916H79.8Z" fill="black"/>
<path fill-rule="evenodd" clip-rule="evenodd" d="M17.7333 59.1666V56.2083H20.6888H23.6444V65.0833H20.6888V62.125V59.1666H17.7333Z" fill="black"/>
<path fill-rule="evenodd" clip-rule="evenodd" d="M109.356 59.1666V56.2083H115.267V62.125V65.0833H112.311V62.125V59.1666H109.356Z" fill="black"/>
<path fill-rule="evenodd" clip-rule="evenodd" d="M17.7334 59.1667V68.0417H14.7778V65.0834V62.125V59.1667H17.7334Z" fill="black"/>
<path fill-rule="evenodd" clip-rule="evenodd" d="M97.5333 59.1667V62.125V65.0834H94.5778V62.125V59.1667H97.5333Z" fill="black"/>
<path fill-rule="evenodd" clip-rule="evenodd" d="M109.356 59.1667V65.0834H106.4V62.125V59.1667H109.356Z" fill="black"/>
<path fill-rule="evenodd" clip-rule="evenodd" d="M41.3778 62.125H44.3334V65.0833V68.0417H38.4222V65.0833H41.3778V62.125Z" fill="black"/>
<path fill-rule="evenodd" clip-rule="evenodd" d="M23.6444 65.0833H26.6V68.0416H23.6444V65.0833Z" fill="black"/>
<path fill-rule="evenodd" clip-rule="evenodd" d="M62.0666 68.0416H59.1111V71H56.1555V68.0416V65.0833H59.1111H62.0666V68.0416Z" fill="black"/>
<path fill-rule="evenodd" clip-rule="evenodd" d="M73.8889 68.0416V65.0833H76.8445H79.8001V68.0416V71H76.8445V68.0416H73.8889Z" fill="black"/>
<path fill-rule="evenodd" clip-rule="evenodd" d="M94.5778 65.0833V68.0416V71H91.6222V68.0416V65.0833H94.5778Z" fill="black"/>
<path fill-rule="evenodd" clip-rule="evenodd" d="M103.444 68.0416V65.0833H106.4V68.0416H103.444Z" fill="black"/>
<path fill-rule="evenodd" clip-rule="evenodd" d="M109.356 65.0833H112.311V68.0416V71H109.356V65.0833Z" fill="black"/>
<path fill-rule="evenodd" clip-rule="evenodd" d="M17.7333 68.0417H20.6888V71V73.9584H17.7333V71V68.0417Z" fill="black"/>
<path fill-rule="evenodd" clip-rule="evenodd" d="M26.6 68.0417H29.5555V71H26.6V68.0417Z" fill="black"/>
<path fill-rule="evenodd" clip-rule="evenodd" d="M32.5111 71V68.0417H35.4667H38.4222V71H35.4667H32.5111Z" fill="black"/>
<path fill-rule="evenodd" clip-rule="evenodd" d="M62.0667 71V68.0417H73.8888V71H62.0667Z" fill="black"/>
<path fill-rule="evenodd" clip-rule="evenodd" d="M100.489 71V68.0417H103.444V71H100.489Z" fill="black"/>
<path fill-rule="evenodd" clip-rule="evenodd" d="M29.5555 73.9584V71H32.5111V73.9584H29.5555Z" fill="black"/>
<path fill-rule="evenodd" clip-rule="evenodd" d="M59.1111 71H62.0666V73.9584H59.1111V71Z" fill="black"/>
<path fill-rule="evenodd" clip-rule="evenodd" d="M73.8889 73.9584V71H76.8445V73.9584H73.8889Z" fill="black"/>
<path fill-rule="evenodd" clip-rule="evenodd" d="M91.6222 71V73.9584H88.6666V71H91.6222Z" fill="black"/>
<path fill-rule="evenodd" clip-rule="evenodd" d="M97.5333 73.9584V71H100.489V73.9584H97.5333Z" fill="black"/>
<path fill-rule="evenodd" clip-rule="evenodd" d="M109.356 71V73.9583V76.9167H106.4V73.9583V71H109.356Z" fill="black"/>
<path fill-rule="evenodd" clip-rule="evenodd" d="M20.6888 73.9584H23.6444V76.9167H20.6888V73.9584Z" fill="black"/>
<path fill-rule="evenodd" clip-rule="evenodd" d="M26.6 76.9167V73.9584H29.5555V76.9167H26.6Z" fill="black"/>
<path fill-rule="evenodd" clip-rule="evenodd" d="M62.0667 73.9584H73.8888V76.9167H70.9333H67.9777H62.0667V73.9584Z" fill="black"/>
<path fill-rule="evenodd" clip-rule="evenodd" d="M91.6222 73.9584H97.5333V76.9167H94.5777H91.6222V73.9584Z" fill="black"/>
<path fill-rule="evenodd" clip-rule="evenodd" d="M124.133 76.9167V73.9584H127.089H130.044V76.9167V79.875V82.8334H133V91.7083H130.044V88.75V85.7917H127.089V82.8334V79.875V76.9167H124.133Z" fill="black"/>
<path fill-rule="evenodd" clip-rule="evenodd" d="M11.8222 79.875H8.86669V82.8334V85.7917H5.91113V82.8334V76.9167H8.86669H11.8222V79.875Z" fill="black"/>
<path fill-rule="evenodd" clip-rule="evenodd" d="M23.6444 79.875V76.9167H26.6V79.875H23.6444Z" fill="black"/>
<path fill-rule="evenodd" clip-rule="evenodd" d="M38.4222 79.875V76.9167H44.3334V79.875H41.3778H38.4222Z" fill="black"/>
<path fill-rule="evenodd" clip-rule="evenodd" d="M97.5333 76.9167H100.489V79.875H97.5333V76.9167Z" fill="black"/>
<path fill-rule="evenodd" clip-rule="evenodd" d="M103.444 79.875V76.9167H106.4V79.875H103.444Z" fill="black"/>
<path fill-rule="evenodd" clip-rule="evenodd" d="M124.133 76.9167V79.875V82.8333H121.178V79.875V76.9167H124.133Z" fill="black"/>
<path fill-rule="evenodd" clip-rule="evenodd" d="M11.8223 79.875H14.7778V82.8333H11.8223V79.875Z" fill="black"/>
<path fill-rule="evenodd" clip-rule="evenodd" d="M20.6888 82.8333V79.875H23.6444V82.8333H20.6888Z" fill="black"/>
<path fill-rule="evenodd" clip-rule="evenodd" d="M32.5111 82.8333V79.875H35.4667H38.4222V82.8333H35.4667H32.5111Z" fill="black"/>
<path fill-rule="evenodd" clip-rule="evenodd" d="M91.6222 82.8333H88.6666V79.875H91.6222V82.8333Z" fill="black"/>
<path fill-rule="evenodd" clip-rule="evenodd" d="M100.489 79.875H103.444V82.8333H100.489V79.875Z" fill="black"/>
<path fill-rule="evenodd" clip-rule="evenodd" d="M14.7778 82.8333H20.6889V85.7917H17.7334H14.7778V82.8333Z" fill="black"/>
<path fill-rule="evenodd" clip-rule="evenodd" d="M26.6 85.7917V82.8333H29.5555H32.5111V85.7917H29.5555H26.6Z" fill="black"/>
<path fill-rule="evenodd" clip-rule="evenodd" d="M85.7112 85.7917H82.7556V82.8333H85.7112V85.7917Z" fill="black"/>
<path fill-rule="evenodd" clip-rule="evenodd" d="M91.6222 82.8333H94.5778V85.7917H91.6222V82.8333Z" fill="black"/>
<path fill-rule="evenodd" clip-rule="evenodd" d="M103.444 82.8333H106.4V85.7917H103.444V82.8333Z" fill="black"/>
<path fill-rule="evenodd" clip-rule="evenodd" d="M118.222 85.7917V82.8333H121.178V85.7917H118.222Z" fill="black"/>
<path fill-rule="evenodd" clip-rule="evenodd" d="M8.8667 85.7917H11.8223V88.75H8.8667V85.7917Z" fill="black"/>
<path fill-rule="evenodd" clip-rule="evenodd" d="M23.6444 88.75V85.7917H26.6V88.75H23.6444Z" fill="black"/>
<path fill-rule="evenodd" clip-rule="evenodd" d="M44.3334 88.75V85.7917H47.2889H53.2V88.75V91.7083H50.2445V88.75H47.2889H44.3334Z" fill="black"/>
<path fill-rule="evenodd" clip-rule="evenodd" d="M85.7111 85.7917H88.6666V88.75H85.7111V85.7917Z" fill="black"/>
<path fill-rule="evenodd" clip-rule="evenodd" d="M94.5778 85.7917H97.5333V88.75H94.5778V85.7917Z" fill="black"/>
<path fill-rule="evenodd" clip-rule="evenodd" d="M106.4 85.7917H118.222V88.75H115.267H112.311H109.356H106.4V85.7917Z" fill="black"/>
<path fill-rule="evenodd" clip-rule="evenodd" d="M124.133 88.75V85.7917H127.089V88.75H124.133Z" fill="black"/>
<path fill-rule="evenodd" clip-rule="evenodd" d="M0 88.75H2.95556H5.91111V91.7083H2.95556V94.6667V97.625H0V88.75Z" fill="black"/>
<path fill-rule="evenodd" clip-rule="evenodd" d="M11.8223 88.75H14.7778V91.7083H11.8223V88.75Z" fill="black"/>
<path fill-rule="evenodd" clip-rule="evenodd" d="M20.6888 91.7083V88.75H23.6444V91.7083H20.6888Z" fill="black"/>
<path fill-rule="evenodd" clip-rule="evenodd" d="M38.4222 91.7083V88.75H41.3778H44.3334V91.7083H41.3778H38.4222Z" fill="black"/>
<path fill-rule="evenodd" clip-rule="evenodd" d="M88.6666 88.75H91.6222V91.7083V94.6667H88.6666V91.7083V88.75Z" fill="black"/>
<path fill-rule="evenodd" clip-rule="evenodd" d="M97.5333 88.75H100.489H103.444V91.7083H100.489H97.5333V88.75Z" fill="black"/>
<path fill-rule="evenodd" clip-rule="evenodd" d="M121.178 91.7083V88.75H124.133V91.7083H121.178Z" fill="black"/>
<path fill-rule="evenodd" clip-rule="evenodd" d="M5.91113 91.7083H8.86668V94.6667H5.91113V91.7083Z" fill="black"/>
<path fill-rule="evenodd" clip-rule="evenodd" d="M14.7778 94.6667V91.7083H20.6889V94.6667H17.7334H14.7778Z" fill="black"/>
<path fill-rule="evenodd" clip-rule="evenodd" d="M35.4667 94.6667V91.7083H38.4222V94.6667H35.4667Z" fill="black"/>
<path fill-rule="evenodd" clip-rule="evenodd" d="M47.2889 94.6667V91.7083H50.2445V94.6667H47.2889Z" fill="black"/>
<path fill-rule="evenodd" clip-rule="evenodd" d="M65.0222 94.6667V91.7083H67.9778H70.9333V94.6667H65.0222Z" fill="black"/>
<path fill-rule="evenodd" clip-rule="evenodd" d="M103.444 91.7083H121.178V94.6667H118.222H115.267H112.311H103.444V91.7083Z" fill="black"/>
<path fill-rule="evenodd" clip-rule="evenodd" d="M130.044 91.7083V94.6666V97.625H127.089V94.6666V91.7083H130.044Z" fill="black"/>
<path fill-rule="evenodd" clip-rule="evenodd" d="M8.8667 94.6667H14.7778V97.625H11.8223H8.8667V94.6667Z" fill="black"/>
<path fill-rule="evenodd" clip-rule="evenodd" d="M32.5111 97.625V94.6667H35.4666V97.625H32.5111Z" fill="black"/>
<path fill-rule="evenodd" clip-rule="evenodd" d="M47.2889 94.6667V97.625V100.583H44.3334V97.625V94.6667H47.2889Z" fill="black"/>
<path fill-rule="evenodd" clip-rule="evenodd" d="M62.0667 97.625V94.6667H65.0222V97.625H62.0667Z" fill="black"/>
<path fill-rule="evenodd" clip-rule="evenodd" d="M70.9333 94.6667H73.8889V97.625H70.9333V94.6667Z" fill="black"/>
<path fill-rule="evenodd" clip-rule="evenodd" d="M91.6222 94.6667H94.5777V97.625H97.5333V100.583H94.5777V103.542V106.5V109.458V112.417V115.375H91.6222V94.6667Z" fill="black"/>
<path fill-rule="evenodd" clip-rule="evenodd" d="M2.95557 97.625H5.91112V100.583V103.542H2.95557V100.583V97.625Z" fill="black"/>
<path fill-rule="evenodd" clip-rule="evenodd" d="M26.6 100.583V97.625H29.5555H32.5111V100.583H29.5555H26.6Z" fill="black"/>
<path fill-rule="evenodd" clip-rule="evenodd" d="M59.1111 100.583V97.625H62.0666V100.583H59.1111Z" fill="black"/>
<path fill-rule="evenodd" clip-rule="evenodd" d="M73.8889 97.625H76.8445V100.583H73.8889V97.625Z" fill="black"/>
<path fill-rule="evenodd" clip-rule="evenodd" d="M124.133 100.583V97.625H127.089V100.583H124.133Z" fill="black"/>
<path fill-rule="evenodd" clip-rule="evenodd" d="M20.6888 103.542V100.583H23.6444H26.6V103.542H23.6444H20.6888Z" fill="black"/>
<path fill-rule="evenodd" clip-rule="evenodd" d="M44.3334 100.583V112.417H41.3778V109.458V106.5V103.542V100.583H44.3334Z" fill="black"/>
<path fill-rule="evenodd" clip-rule="evenodd" d="M59.1111 100.583V103.542V106.5H56.1555V103.542V100.583H59.1111Z" fill="black"/>
<path fill-rule="evenodd" clip-rule="evenodd" d="M76.8445 100.583H79.8V103.542V106.5H76.8445V103.542V100.583Z" fill="black"/>
<path fill-rule="evenodd" clip-rule="evenodd" d="M97.5333 100.583H100.489H103.444V103.542H100.489H97.5333V100.583Z" fill="black"/>
<path fill-rule="evenodd" clip-rule="evenodd" d="M118.222 103.542V100.583H121.178H124.133V103.542H121.178H118.222Z" fill="black"/>
<path fill-rule="evenodd" clip-rule="evenodd" d="M5.91113 103.542H11.8222H20.6889V106.5H17.7334H14.7778H5.91113V103.542Z" fill="black"/>
<path fill-rule="evenodd" clip-rule="evenodd" d="M103.444 103.542H112.311H118.222V106.5H115.267H112.311H109.356H103.444V103.542Z" fill="black"/>
<path fill-rule="evenodd" clip-rule="evenodd" d="M56.1555 106.5V115.375H53.2V112.417V109.458V106.5H56.1555Z" fill="black"/>
<path fill-rule="evenodd" clip-rule="evenodd" d="M79.8 106.5H82.7556V109.458V112.417V115.375V118.333V121.292V124.25H79.8V106.5Z" fill="black"/>
<path fill-rule="evenodd" clip-rule="evenodd" d="M44.3334 112.417H47.2889V115.375V118.333H44.3334V115.375V112.417Z" fill="black"/>
<path fill-rule="evenodd" clip-rule="evenodd" d="M56.1555 115.375H59.1111V118.333V121.292H56.1555V118.333V115.375Z" fill="black"/>
<path fill-rule="evenodd" clip-rule="evenodd" d="M91.6222 115.375V124.25V127.208H88.6666V121.292V118.333V115.375H91.6222Z" fill="black"/>
<path fill-rule="evenodd" clip-rule="evenodd" d="M47.2889 118.333H50.2445V121.292H47.2889V118.333Z" fill="black"/>
<path fill-rule="evenodd" clip-rule="evenodd" d="M50.2444 121.292H53.1999V124.25H50.2444V121.292Z" fill="black"/>
<path fill-rule="evenodd" clip-rule="evenodd" d="M59.1111 121.292H62.0666V124.25H59.1111V121.292Z" fill="black"/>
<path fill-rule="evenodd" clip-rule="evenodd" d="M53.2 124.25H56.1555V127.208V130.167H53.2V127.208V124.25Z" fill="black"/>
<path fill-rule="evenodd" clip-rule="evenodd" d="M62.0667 124.25H65.0222V127.208V130.167V136.083H62.0667V124.25Z" fill="black"/>
<path fill-rule="evenodd" clip-rule="evenodd" d="M79.8 124.25V127.208V130.167V133.125H76.8445V130.167V127.208V124.25H79.8Z" fill="black"/>
<path fill-rule="evenodd" clip-rule="evenodd" d="M88.6666 127.208V130.167V133.125H85.7111V130.167V127.208H88.6666Z" fill="black"/>
<path fill-rule="evenodd" clip-rule="evenodd" d="M56.1555 130.167H59.1111V133.125V136.083H62.0666V139.042H56.1555V130.167Z" fill="black"/>
<path fill-rule="evenodd" clip-rule="evenodd" d="M76.8445 133.125V136.083V139.042H79.8001V142H73.8889V139.042V136.083V133.125H76.8445Z" fill="black"/>
<path fill-rule="evenodd" clip-rule="evenodd" d="M82.7556 136.083V133.125H85.7112V136.083H82.7556Z" fill="black"/>
<path fill-rule="evenodd" clip-rule="evenodd" d="M79.8 139.042V136.083H82.7556V139.042H79.8Z" fill="black"/>
<path fill-rule="evenodd" clip-rule="evenodd" d="M56.1555 41.4167V44.375H53.2V41.4167H56.1555Z" fill="#CBDAFF"/>
<path fill-rule="evenodd" clip-rule="evenodd" d="M79.8 44.375V41.4167H82.7556V44.375H79.8Z" fill="#CBDAFF"/>
<path fill-rule="evenodd" clip-rule="evenodd" d="M56.1555 41.4167H59.111V44.375H62.0666V47.3334V50.2917H59.111V47.3334H56.1555H53.1999V50.2917H50.2444V47.3334V44.375H53.1999H56.1555V41.4167Z" fill="#4F373E"/>
<path fill-rule="evenodd" clip-rule="evenodd" d="M82.7556 41.4167H85.7112V44.375H88.6667V47.3334V50.2917H85.7112V47.3334H82.7556H79.8V50.2917H76.8445V47.3334V44.375H79.8H82.7556V41.4167Z" fill="#4F373E"/>
<path fill-rule="evenodd" clip-rule="evenodd" d="M59.1111 71V68.0417H62.0666V71H59.1111Z" fill="#C81D14"/>
<path fill-rule="evenodd" clip-rule="evenodd" d="M73.8889 71V68.0417H76.8445V71H73.8889Z" fill="#C81D14"/>
<path fill-rule="evenodd" clip-rule="evenodd" d="M62.0667 73.9584V71H73.8888V73.9584H62.0667Z" fill="#C81D14"/>
<path fill-rule="evenodd" clip-rule="evenodd" d="M65.0222 20.7083H73.8889V23.6666H76.8445V26.625H79.8V29.5833H82.7556V32.5416V35.5H85.7111V38.4583H82.7556H79.8V41.4166H76.8445V44.375H73.8889V50.2916V53.25H76.8445H79.8V50.2916H82.7556H85.7111V53.25H88.6667V62.125V65.0833H85.7111V68.0416V71H88.6667V73.9583H91.6222V76.9166H94.5778H97.5334V79.875H100.489V82.8333H97.5334H94.5778V79.875H91.6222H88.6667V76.9166H85.7111V79.875H82.7556V76.9166H79.8V82.8333H82.7556V85.7916H85.7111V88.75V91.7083H88.6667V94.6666V97.625V100.583H85.7111V97.625V94.6666H82.7556V91.7083V88.75H79.8V85.7916H76.8445V82.8333H73.8889V79.875H70.9333V76.9166H73.8889V73.9583H76.8445V71H79.8V68.0416V65.0833H76.8445H73.8889V68.0416H70.9333H67.9778H65.0222H62.0667V65.0833H59.1111H56.1556V71H59.1111V73.9583H62.0667V76.9166H65.0222H67.9778V82.8333H65.0222V85.7916H62.0667V88.75H59.1111V91.7083H56.1556V88.75V85.7916H59.1111V82.8333V79.875V76.9166H56.1556V79.875H53.2H50.2445V82.8333H47.2889H44.3333H41.3778V79.875H44.3333H47.2889V76.9166H50.2445V73.9583H53.2V71V68.0416H50.2445V71H47.2889V73.9583H44.3333V76.9166H38.4222H35.4667V73.9583H38.4222V71H41.3778H44.3333V68.0416V65.0833H47.2889V62.125V53.25H50.2445H53.2V50.2916H56.1556H59.1111V53.25H65.0222V47.3333V44.375H62.0667V41.4166H59.1111V38.4583H56.1556H53.2V35.5H56.1556V32.5416V29.5833H59.1111V26.625H62.0667V23.6666H65.0222V20.7083Z" fill="#FFA2C7"/>
<path fill-rule="evenodd" clip-rule="evenodd" d="M85.7111 79.875H88.6666V82.8333H85.7111V79.875Z" fill="#FFA2C7"/>
<path fill-rule="evenodd" clip-rule="evenodd" d="M88.6666 82.8333H91.6222V85.7917H88.6666V82.8333Z" fill="#FFA2C7"/>
<path fill-rule="evenodd" clip-rule="evenodd" d="M91.6222 85.7917H94.5778V88.75H91.6222V85.7917Z" fill="#FFA2C7"/>
<path fill-rule="evenodd" clip-rule="evenodd" d="M56.1555 91.7083V94.6667H53.2V91.7083H56.1555Z" fill="#FFA2C7"/>
<path fill-rule="evenodd" clip-rule="evenodd" d="M67.9778 2.95831H79.8V5.91665H82.7556H85.7111V8.87498H88.6667V11.8333V14.7916H91.6222V17.75V20.7083H94.5778V23.6666V26.625V29.5833H97.5334V32.5416V35.5V44.375V53.25V56.2083V59.1666H94.5778V62.125V65.0833H91.6222V71H85.7111V68.0416V65.0833H88.6667V62.125V59.1666V56.2083V53.25H91.6222V50.2916V47.3333V44.375H88.6667V41.4166H85.7111V38.4583V35.5H82.7556V32.5416V29.5833H79.8V26.625H76.8445V23.6666H73.8889V20.7083H65.0223V23.6666H62.0667V26.625H59.1111V29.5833H56.1556V32.5416V35.5H53.2V38.4583V41.4166H50.2445V44.375H47.2889V47.3333V56.2083V65.0833H44.3334V62.125H41.3778V59.1666V56.2083V53.25V50.2916V47.3333V44.375V41.4166V38.4583V35.5H44.3334V32.5416V29.5833V26.625V23.6666H47.2889V20.7083V17.75H50.2445V14.7916H53.2V11.8333H56.1556V8.87498H59.1111H62.0667V5.91665H65.0223H67.9778V2.95831Z" fill="#F889B0"/>
<path fill-rule="evenodd" clip-rule="evenodd" d="M20.6888 65.0834H17.7333V59.1667H20.6888V62.125V65.0834Z" fill="#F889B0"/>
<path fill-rule="evenodd" clip-rule="evenodd" d="M109.356 65.0834V59.1667H112.311V62.125V65.0834H109.356Z" fill="#F889B0"/>
<path fill-rule="evenodd" clip-rule="evenodd" d="M20.6888 65.0833H23.6444V68.0417H26.6V71H29.5555V73.9583H26.6H23.6444V71H20.6888V68.0417V65.0833Z" fill="#F889B0"/>
<path fill-rule="evenodd" clip-rule="evenodd" d="M106.4 68.0416V65.0833H109.356V68.0416H106.4Z" fill="#F889B0"/>
<path fill-rule="evenodd" clip-rule="evenodd" d="M38.4222 71V68.0417H44.3334V71H41.3778H38.4222Z" fill="#F889B0"/>
<path fill-rule="evenodd" clip-rule="evenodd" d="M53.2 68.0417V71V73.9584H50.2445V76.9167H47.2889V79.875H44.3334V76.9167V73.9584H47.2889V71H50.2445V68.0417H53.2Z" fill="#F889B0"/>
<path fill-rule="evenodd" clip-rule="evenodd" d="M106.4 68.0417V71V73.9584H103.444V76.9167H100.489H97.5333V73.9584H100.489V71H103.444V68.0417H106.4Z" fill="#F889B0"/>
<path fill-rule="evenodd" clip-rule="evenodd" d="M38.4223 71V73.9583H35.4667V76.9167H38.4223V79.875H35.4667H32.5112V82.8333H29.5556H26.6001V85.7917H23.6445V88.75H20.6889V91.7083H17.7334V88.75H14.7778V85.7917H17.7334H20.6889V82.8333H23.6445V79.875H26.6001V76.9167H29.5556V73.9583H32.5112V71H35.4667H38.4223Z" fill="#F889B0"/>
<path fill-rule="evenodd" clip-rule="evenodd" d="M56.1556 91.7084H53.2V85.7917H41.3778V88.75H38.4222H35.4667V91.7084H32.5111V94.6667H29.5556V97.625H26.6H23.6445V100.583H20.6889H17.7334V103.542H14.7778V100.583H11.8222V103.542H8.86669V100.583H5.91113V97.625V94.6667H8.86669V97.625H11.8222H14.7778V94.6667H17.7334H20.6889V91.7084H23.6445V88.75H26.6V85.7917H29.5556H32.5111V82.8334H35.4667H38.4222V79.875H41.3778V82.8334H44.3334H50.2445V79.875H53.2H56.1556V76.9167H59.1111V79.875V82.8334V85.7917H56.1556V88.75V91.7084Z" fill="#F889B0"/>
<path fill-rule="evenodd" clip-rule="evenodd" d="M82.7556 133.125V130.167H79.8V127.208H82.7556V124.25V121.292H85.7111V118.333H82.7556V115.375H85.7111V112.417H82.7556V109.458H85.7111V106.5H82.7556V103.542H79.8V100.583V97.625H76.8445V94.6667H73.8889V91.7084H62.0667V94.6667H59.1112V97.625H56.1556V100.583V103.542H53.2V106.5H50.2445V109.458H53.2V112.417H50.2445V115.375H53.2V118.333H56.1556V121.292V124.25H53.2V121.292H50.2445V118.333H47.2889V115.375V112.417H44.3334V109.458V106.5V103.542V100.583H47.2889V97.625V94.6667H50.2445V91.7084H53.2V94.6667H56.1556V91.7084H59.1112V88.75H62.0667V85.7917H65.0223V82.8334H67.9778V79.875V76.9167H70.9334V79.875H73.8889V82.8334H76.8445V85.7917H79.8V88.75H82.7556V91.7084V94.6667H85.7111V97.625V100.583H88.6667V97.625V94.6667H91.6223V106.5V109.458V112.417V115.375H88.6667V118.333V121.292V124.25V127.208H85.7111V130.167V133.125H82.7556Z" fill="#F889B0"/>
<path fill-rule="evenodd" clip-rule="evenodd" d="M85.7112 79.875V82.8333H79.8V76.9167H82.7556V79.875H85.7112Z" fill="#F889B0"/>
<path fill-rule="evenodd" clip-rule="evenodd" d="M85.7111 79.875V76.9167H88.6666V79.875H85.7111Z" fill="#F889B0"/>
<path fill-rule="evenodd" clip-rule="evenodd" d="M127.089 85.7917H124.133V88.75H121.178V91.7083H103.444V88.75H100.489H97.5333V85.7917H94.5778V82.8333H103.444V85.7917H106.4V88.75H109.356H112.311H115.267H118.222V85.7917H121.178V82.8333H124.133V79.875V76.9167H127.089V85.7917Z" fill="#F889B0"/>
<path fill-rule="evenodd" clip-rule="evenodd" d="M11.8223 82.8333H8.8667V79.875H11.8223V82.8333Z" fill="#F889B0"/>
<path fill-rule="evenodd" clip-rule="evenodd" d="M94.5778 82.8333H91.6222V79.875H94.5778V82.8333Z" fill="#F889B0"/>
<path fill-rule="evenodd" clip-rule="evenodd" d="M11.8223 82.8333H14.7778V85.7917H11.8223V82.8333Z" fill="#F889B0"/>
<path fill-rule="evenodd" clip-rule="evenodd" d="M85.7111 82.8333H88.6666V85.7917H85.7111V82.8333Z" fill="#F889B0"/>
<path fill-rule="evenodd" clip-rule="evenodd" d="M88.6666 88.75V85.7917H91.6222V88.75H88.6666Z" fill="#F889B0"/>
<path fill-rule="evenodd" clip-rule="evenodd" d="M127.089 85.7917H130.044V91.7084H127.089V94.6667H124.133V97.625H121.178V100.583H118.222H115.267V103.542H112.311V100.583H109.356V103.542H106.4V100.583H103.444H100.489V97.625H97.5333H94.5777V94.6667V91.7084H91.6222V88.75H97.5333V91.7084H100.489H103.444V94.6667H106.4H109.356H115.267H118.222H121.178V91.7084H124.133V88.75H127.089V85.7917Z" fill="#F889B0"/>
<path fill-rule="evenodd" clip-rule="evenodd" d="M88.6666 88.75V91.7083H85.7111V88.75H88.6666Z" fill="#F889B0"/>
<path fill-rule="evenodd" clip-rule="evenodd" d="M2.95557 94.6667V91.7083H5.91112V94.6667H2.95557Z" fill="#F889B0"/>
<path fill-rule="evenodd" clip-rule="evenodd" d="M56.1555 124.25H59.1111V127.208H62.0666V130.167H56.1555V124.25Z" fill="#F889B0"/>
<path fill-rule="evenodd" clip-rule="evenodd" d="M59.1111 136.083V133.125H62.0666V136.083H59.1111Z" fill="#F889B0"/>
<path fill-rule="evenodd" clip-rule="evenodd" d="M79.8 136.083V133.125H82.7556V136.083H79.8Z" fill="#F889B0"/>
<path fill-rule="evenodd" clip-rule="evenodd" d="M76.8445 139.042V136.083H79.8V139.042H76.8445Z" fill="#F889B0"/>
<path fill-rule="evenodd" clip-rule="evenodd" d="M17.7333 65.0833H20.6888V68.0416H17.7333V65.0833Z" fill="#E13A6D"/>
<path fill-rule="evenodd" clip-rule="evenodd" d="M106.4 71V68.0417H109.356V71H106.4Z" fill="#E13A6D"/>
<path fill-rule="evenodd" clip-rule="evenodd" d="M23.6444 73.9584H20.6888V71H23.6444V73.9584Z" fill="#E13A6D"/>
<path fill-rule="evenodd" clip-rule="evenodd" d="M23.6444 73.9584H26.6V76.9167H23.6444V73.9584Z" fill="#E13A6D"/>
<path fill-rule="evenodd" clip-rule="evenodd" d="M103.444 76.9167V73.9584H106.4V76.9167H103.444Z" fill="#E13A6D"/>
<path fill-rule="evenodd" clip-rule="evenodd" d="M103.444 76.9167V79.875H100.489V76.9167H103.444Z" fill="#E13A6D"/>
<path fill-rule="evenodd" clip-rule="evenodd" d="M11.8223 85.7917H8.8667V82.8333H11.8223V85.7917Z" fill="#E13A6D"/>
<path fill-rule="evenodd" clip-rule="evenodd" d="M11.8223 85.7917H14.7778V88.75H11.8223V85.7917Z" fill="#E13A6D"/>
<path fill-rule="evenodd" clip-rule="evenodd" d="M41.3778 88.75V85.7917H44.3334V88.75H41.3778Z" fill="#E13A6D"/>
<path fill-rule="evenodd" clip-rule="evenodd" d="M14.7778 88.75H17.7334V91.7083H14.7778V88.75Z" fill="#E13A6D"/>
<path fill-rule="evenodd" clip-rule="evenodd" d="M35.4667 91.7083V88.75H38.4222V91.7083H35.4667Z" fill="#E13A6D"/>
<path fill-rule="evenodd" clip-rule="evenodd" d="M32.5111 94.6667V91.7083H35.4666V94.6667H32.5111Z" fill="#E13A6D"/>
<path fill-rule="evenodd" clip-rule="evenodd" d="M62.0667 94.6667V91.7083H65.0222V94.6667H62.0667Z" fill="#E13A6D"/>
<path fill-rule="evenodd" clip-rule="evenodd" d="M73.8889 94.6667H70.9333V91.7083H73.8889V94.6667Z" fill="#E13A6D"/>
<path fill-rule="evenodd" clip-rule="evenodd" d="M91.6222 94.6667V91.7083H94.5778V94.6667H91.6222Z" fill="#E13A6D"/>
<path fill-rule="evenodd" clip-rule="evenodd" d="M2.95557 97.625V94.6667H5.91112V97.625H2.95557Z" fill="#E13A6D"/>
<path fill-rule="evenodd" clip-rule="evenodd" d="M32.5111 94.6667V97.625H29.5555V94.6667H32.5111Z" fill="#E13A6D"/>
<path fill-rule="evenodd" clip-rule="evenodd" d="M59.1111 97.625V94.6667H62.0666V97.625H59.1111Z" fill="#E13A6D"/>
<path fill-rule="evenodd" clip-rule="evenodd" d="M73.8889 94.6667H76.8445V97.625H73.8889V94.6667Z" fill="#E13A6D"/>
<path fill-rule="evenodd" clip-rule="evenodd" d="M124.133 97.625V94.6667H127.089V97.625H124.133Z" fill="#E13A6D"/>
<path fill-rule="evenodd" clip-rule="evenodd" d="M23.6444 100.583V97.625H26.6V100.583H23.6444Z" fill="#E13A6D"/>
<path fill-rule="evenodd" clip-rule="evenodd" d="M59.1111 97.625V100.583H56.1555V97.625H59.1111Z" fill="#E13A6D"/>
<path fill-rule="evenodd" clip-rule="evenodd" d="M76.8445 97.625H79.8V100.583H76.8445V97.625Z" fill="#E13A6D"/>
<path fill-rule="evenodd" clip-rule="evenodd" d="M97.5333 100.583V97.625H100.489V100.583H97.5333Z" fill="#E13A6D"/>
<path fill-rule="evenodd" clip-rule="evenodd" d="M124.133 97.625V100.583H121.178V97.625H124.133Z" fill="#E13A6D"/>
<path fill-rule="evenodd" clip-rule="evenodd" d="M5.91113 103.542V100.583H8.86668V103.542H5.91113Z" fill="#E13A6D"/>
<path fill-rule="evenodd" clip-rule="evenodd" d="M11.8223 103.542V100.583H14.7778V103.542H11.8223Z" fill="#E13A6D"/>
<path fill-rule="evenodd" clip-rule="evenodd" d="M17.7333 103.542V100.583H20.6888V103.542H17.7333Z" fill="#E13A6D"/>
<path fill-rule="evenodd" clip-rule="evenodd" d="M103.444 103.542V100.583H106.4V103.542H103.444Z" fill="#E13A6D"/>
<path fill-rule="evenodd" clip-rule="evenodd" d="M109.356 103.542V100.583H112.311V103.542H109.356Z" fill="#E13A6D"/>
<path fill-rule="evenodd" clip-rule="evenodd" d="M115.267 103.542V100.583H118.222V103.542H115.267Z" fill="#E13A6D"/>
<path fill-rule="evenodd" clip-rule="evenodd" d="M53.2 106.5V103.542H56.1555V106.5H53.2Z" fill="#E13A6D"/>
<path fill-rule="evenodd" clip-rule="evenodd" d="M82.7556 106.5H79.8V103.542H82.7556V106.5Z" fill="#E13A6D"/>
<path fill-rule="evenodd" clip-rule="evenodd" d="M53.1999 106.5V109.458H50.2444V106.5H53.1999Z" fill="#E13A6D"/>
<path fill-rule="evenodd" clip-rule="evenodd" d="M82.7556 106.5H85.7112V109.458H82.7556V106.5Z" fill="#E13A6D"/>
<path fill-rule="evenodd" clip-rule="evenodd" d="M53.1999 115.375H50.2444V112.417H53.1999V115.375Z" fill="#E13A6D"/>
<path fill-rule="evenodd" clip-rule="evenodd" d="M82.7556 115.375V112.417H85.7112V115.375H82.7556Z" fill="#E13A6D"/>
<path fill-rule="evenodd" clip-rule="evenodd" d="M53.2 115.375H56.1555V118.333H53.2V115.375Z" fill="#E13A6D"/>
<path fill-rule="evenodd" clip-rule="evenodd" d="M82.7556 121.292V118.333H85.7112V121.292H82.7556Z" fill="#E13A6D"/>
<path fill-rule="evenodd" clip-rule="evenodd" d="M59.1111 124.25H56.1555V121.292H59.1111V124.25Z" fill="#E13A6D"/>
<path fill-rule="evenodd" clip-rule="evenodd" d="M59.1111 124.25H62.0666V127.208H59.1111V124.25Z" fill="#E13A6D"/>
<path fill-rule="evenodd" clip-rule="evenodd" d="M79.8 127.208V124.25H82.7556V127.208H79.8Z" fill="#E13A6D"/>
<path fill-rule="evenodd" clip-rule="evenodd" d="M59.1111 133.125V130.167H62.0666V133.125H59.1111Z" fill="#E13A6D"/>
<path fill-rule="evenodd" clip-rule="evenodd" d="M79.8 133.125V130.167H82.7556V133.125H79.8Z" fill="#E13A6D"/>
<path fill-rule="evenodd" clip-rule="evenodd" d="M76.8445 136.083V133.125H79.8V136.083H76.8445Z" fill="#E13A6D"/>
</svg>
