<svg width="138" height="138" viewBox="0 0 138 138" fill="none" xmlns="http://www.w3.org/2000/svg">
<path fill-rule="evenodd" clip-rule="evenodd" d="M2.87524 0H5.74978V2.87523H2.87524V0Z" fill="#4998D0"/>
<path fill-rule="evenodd" clip-rule="evenodd" d="M5.74976 2.87518H8.62499H11.5002V5.74972H8.62499V8.62495H5.74976V5.74972V2.87518Z" fill="#4998D0"/>
<path fill-rule="evenodd" clip-rule="evenodd" d="M57.4998 8.62495H54.6252V11.5002H51.75V8.62495V5.74972H48.8748V2.87518H51.75H54.6252V5.74972H57.4998V8.62495Z" fill="#4998D0"/>
<path fill-rule="evenodd" clip-rule="evenodd" d="M11.5002 8.62505V5.74982H14.3748V8.62505H11.5002Z" fill="#4998D0"/>
<path fill-rule="evenodd" clip-rule="evenodd" d="M8.625 8.625H11.5002V14.3748H8.625V11.5002V8.625Z" fill="#4998D0"/>
<path fill-rule="evenodd" clip-rule="evenodd" d="M14.3748 8.625H17.25V11.5002H14.3748V8.625Z" fill="#4998D0"/>
<path fill-rule="evenodd" clip-rule="evenodd" d="M57.4998 11.5002V8.625H60.375V11.5002H57.4998Z" fill="#4998D0"/>
<path fill-rule="evenodd" clip-rule="evenodd" d="M17.25 11.5002H20.1252V14.3747H17.25V11.5002Z" fill="#4998D0"/>
<path fill-rule="evenodd" clip-rule="evenodd" d="M54.6252 11.5002H57.4998V14.3747H54.6252V11.5002Z" fill="#4998D0"/>
<path fill-rule="evenodd" clip-rule="evenodd" d="M60.375 14.3747V11.5002H63.2502V14.3747H60.375Z" fill="#4998D0"/>
<path fill-rule="evenodd" clip-rule="evenodd" d="M11.5002 14.3748H14.3748V17.25V20.1253H11.5002V17.25V14.3748Z" fill="#4998D0"/>
<path fill-rule="evenodd" clip-rule="evenodd" d="M20.1252 14.3748H22.9998V17.25H20.1252V14.3748Z" fill="#4998D0"/>
<path fill-rule="evenodd" clip-rule="evenodd" d="M57.4998 14.3748H60.375V17.25V20.1253H57.4998V14.3748Z" fill="#4998D0"/>
<path fill-rule="evenodd" clip-rule="evenodd" d="M63.2502 14.3748H66.1248V17.25V20.1253V22.9998H63.2502V14.3748Z" fill="#4998D0"/>
<path fill-rule="evenodd" clip-rule="evenodd" d="M22.9998 20.1252V17.25H25.875V20.1252H22.9998Z" fill="#4998D0"/>
<path fill-rule="evenodd" clip-rule="evenodd" d="M14.3748 20.1252H17.25V22.9998V25.875H14.3748V20.1252Z" fill="#4998D0"/>
<path fill-rule="evenodd" clip-rule="evenodd" d="M22.9998 20.1252V22.9998V25.875H20.1252V22.9998V20.1252H22.9998Z" fill="#4998D0"/>
<path fill-rule="evenodd" clip-rule="evenodd" d="M57.4998 20.1252V22.9998V25.875H54.6252V22.9998V20.1252H57.4998Z" fill="#4998D0"/>
<path fill-rule="evenodd" clip-rule="evenodd" d="M63.2502 22.9998V25.875V28.7502H66.1248H69V31.6248H66.1248H63.2502H60.375V28.7502V25.875V22.9998H63.2502Z" fill="#4998D0"/>
<path fill-rule="evenodd" clip-rule="evenodd" d="M74.7498 25.875V22.9998H77.625H80.5002V25.875V28.7502H77.625V25.875H74.7498Z" fill="#4998D0"/>
<path fill-rule="evenodd" clip-rule="evenodd" d="M117.875 25.875H109.25H106.375V28.7502V31.6248H103.5V28.7502V25.875V22.9998H106.375H109.25H112.125H115H117.875V25.875Z" fill="#4998D0"/>
<path fill-rule="evenodd" clip-rule="evenodd" d="M11.5002 28.7502V25.875H14.3748V28.7502H11.5002Z" fill="#4998D0"/>
<path fill-rule="evenodd" clip-rule="evenodd" d="M17.25 25.875H20.1252V28.7502V31.6248H17.25V25.875Z" fill="#4998D0"/>
<path fill-rule="evenodd" clip-rule="evenodd" d="M46.0002 28.7502H43.125V31.6248V34.5V37.3752H40.2498V34.5V31.6248V28.7502V25.875H43.125H46.0002V28.7502Z" fill="#4998D0"/>
<path fill-rule="evenodd" clip-rule="evenodd" d="M54.6252 25.875V28.7502V31.6248H51.75V28.7502V25.875H54.6252Z" fill="#4998D0"/>
<path fill-rule="evenodd" clip-rule="evenodd" d="M69 28.7502V25.875H71.8752H74.7498V28.7502H69Z" fill="#4998D0"/>
<path fill-rule="evenodd" clip-rule="evenodd" d="M117.875 28.7502V25.875H120.75H123.625V28.7502H117.875Z" fill="#4998D0"/>
<path fill-rule="evenodd" clip-rule="evenodd" d="M8.625 31.6248V28.7502H11.5002V31.6248H8.625Z" fill="#4998D0"/>
<path fill-rule="evenodd" clip-rule="evenodd" d="M46.0002 28.7502H48.8748V31.6248H46.0002V28.7502Z" fill="#4998D0"/>
<path fill-rule="evenodd" clip-rule="evenodd" d="M74.7498 28.7502H77.625V34.5H74.7498V31.6248V28.7502Z" fill="#4998D0"/>
<path fill-rule="evenodd" clip-rule="evenodd" d="M115 31.6248V28.7502H117.875V31.6248H115Z" fill="#4998D0"/>
<path fill-rule="evenodd" clip-rule="evenodd" d="M123.625 31.6248V28.7502H126.5V31.6248H123.625Z" fill="#4998D0"/>
<path fill-rule="evenodd" clip-rule="evenodd" d="M5.74976 34.5V31.6248H8.62499V34.5H5.74976Z" fill="#4998D0"/>
<path fill-rule="evenodd" clip-rule="evenodd" d="M17.25 31.6248V34.5H14.3748V31.6248H17.25Z" fill="#4998D0"/>
<path fill-rule="evenodd" clip-rule="evenodd" d="M34.5 34.5H31.6248V37.3752H28.7502V34.5V31.6248H31.6248H34.5V34.5Z" fill="#4998D0"/>
<path fill-rule="evenodd" clip-rule="evenodd" d="M48.8748 31.6248H51.75V34.5H48.8748V31.6248Z" fill="#4998D0"/>
<path fill-rule="evenodd" clip-rule="evenodd" d="M103.5 31.6248V34.5V37.3752H100.625V34.5V31.6248H103.5Z" fill="#4998D0"/>
<path fill-rule="evenodd" clip-rule="evenodd" d="M115 31.6248V34.5V37.3752H112.125V34.5V31.6248H115Z" fill="#4998D0"/>
<path fill-rule="evenodd" clip-rule="evenodd" d="M117.875 31.6248H123.625V34.5H120.75H117.875V31.6248Z" fill="#4998D0"/>
<path fill-rule="evenodd" clip-rule="evenodd" d="M126.5 31.6248H129.375V34.5H132.25V37.3752H129.375H126.5H123.625V34.5H126.5V31.6248Z" fill="#4998D0"/>
<path fill-rule="evenodd" clip-rule="evenodd" d="M5.74978 34.5V37.3752H2.87524V34.5H5.74978Z" fill="#4998D0"/>
<path fill-rule="evenodd" clip-rule="evenodd" d="M17.25 34.5H20.1252V37.3752V40.2498H17.25V37.3752V34.5Z" fill="#4998D0"/>
<path fill-rule="evenodd" clip-rule="evenodd" d="M34.5 34.5H37.3752V37.3752H34.5V34.5Z" fill="#4998D0"/>
<path fill-rule="evenodd" clip-rule="evenodd" d="M77.625 34.5H80.5002H83.3748V37.3752H80.5002H77.625V34.5Z" fill="#4998D0"/>
<path fill-rule="evenodd" clip-rule="evenodd" d="M5.74976 37.3752H8.62499V40.2498H5.74976V37.3752Z" fill="#4998D0"/>
<path fill-rule="evenodd" clip-rule="evenodd" d="M28.7502 37.3752V40.2498V43.125H25.875V40.2498V37.3752H28.7502Z" fill="#4998D0"/>
<path fill-rule="evenodd" clip-rule="evenodd" d="M37.3752 37.3752H40.2498V40.2498H37.3752V37.3752Z" fill="#4998D0"/>
<path fill-rule="evenodd" clip-rule="evenodd" d="M83.3748 37.3752H100.625V40.2498H97.7502H94.875H91.9998H89.1252H86.25H83.3748V37.3752Z" fill="#4998D0"/>
<path fill-rule="evenodd" clip-rule="evenodd" d="M112.125 37.3752V40.2498V43.125V46.0002V48.8748H109.25H106.375H103.5V46.0002H106.375H109.25V43.125V40.2498V37.3752H112.125Z" fill="#4998D0"/>
<path fill-rule="evenodd" clip-rule="evenodd" d="M8.625 40.2498H11.5002V43.125H8.625V40.2498Z" fill="#4998D0"/>
<path fill-rule="evenodd" clip-rule="evenodd" d="M20.1252 40.2498H22.9998V43.125H20.1252V40.2498Z" fill="#4998D0"/>
<path fill-rule="evenodd" clip-rule="evenodd" d="M69 43.125V40.2498H71.8752H74.7498H77.625V43.125H69Z" fill="#4998D0"/>
<path fill-rule="evenodd" clip-rule="evenodd" d="M11.5002 43.125H14.3748V46.0002H11.5002V43.125Z" fill="#4998D0"/>
<path fill-rule="evenodd" clip-rule="evenodd" d="M22.9998 43.125H25.875V46.0002H22.9998V43.125Z" fill="#4998D0"/>
<path fill-rule="evenodd" clip-rule="evenodd" d="M69 43.125V51.75H66.1248V48.8748V46.0002V43.125H69Z" fill="#4998D0"/>
<path fill-rule="evenodd" clip-rule="evenodd" d="M77.625 43.125H80.5002V46.0002H77.625V43.125Z" fill="#4998D0"/>
<path fill-rule="evenodd" clip-rule="evenodd" d="M94.875 46.0002V43.125H97.7502H100.625H103.5V46.0002H94.875Z" fill="#4998D0"/>
<path fill-rule="evenodd" clip-rule="evenodd" d="M14.3748 46.0002H17.25V48.8748V51.75H14.3748H11.5002H8.62498V54.6252H5.74976V51.75V48.8748H8.62498H11.5002H14.3748V46.0002Z" fill="#4998D0"/>
<path fill-rule="evenodd" clip-rule="evenodd" d="M80.5002 46.0002H83.3748V48.8748H80.5002V46.0002Z" fill="#4998D0"/>
<path fill-rule="evenodd" clip-rule="evenodd" d="M89.1252 48.8748V46.0002H91.9998H94.875V48.8748H91.9998H89.1252Z" fill="#4998D0"/>
<path fill-rule="evenodd" clip-rule="evenodd" d="M83.3748 48.8748H89.1252V51.75H86.25H83.3748V48.8748Z" fill="#4998D0"/>
<path fill-rule="evenodd" clip-rule="evenodd" d="M69 51.75H71.8752V54.6252H74.7498H80.5002H89.1252V57.4998H69V51.75Z" fill="#4998D0"/>
<path fill-rule="evenodd" clip-rule="evenodd" d="M89.1252 54.6252V51.75H91.9998V54.6252H89.1252Z" fill="#4998D0"/>
<path fill-rule="evenodd" clip-rule="evenodd" d="M8.625 54.6252H11.5002V57.4998H8.625V54.6252Z" fill="#4998D0"/>
<path fill-rule="evenodd" clip-rule="evenodd" d="M66.1248 57.4998H63.2502V60.375H60.375V57.4998V54.6252H63.2502H66.1248V57.4998Z" fill="#4998D0"/>
<path fill-rule="evenodd" clip-rule="evenodd" d="M91.9998 57.4998V54.6252H94.875V57.4998H91.9998Z" fill="#4998D0"/>
<path fill-rule="evenodd" clip-rule="evenodd" d="M11.5002 57.4998H14.3748V60.375H11.5002V57.4998Z" fill="#4998D0"/>
<path fill-rule="evenodd" clip-rule="evenodd" d="M66.1248 60.375V57.4998H69V60.375H66.1248Z" fill="#4998D0"/>
<path fill-rule="evenodd" clip-rule="evenodd" d="M89.1252 60.375V57.4998H91.9998V60.375H89.1252Z" fill="#4998D0"/>
<path fill-rule="evenodd" clip-rule="evenodd" d="M94.875 60.375V57.4998H97.7502V60.375H94.875Z" fill="#4998D0"/>
<path fill-rule="evenodd" clip-rule="evenodd" d="M14.3748 63.2502V60.375H17.25V63.2502H14.3748Z" fill="#4998D0"/>
<path fill-rule="evenodd" clip-rule="evenodd" d="M63.2502 60.375H66.1248V63.2502H63.2502V60.375Z" fill="#4998D0"/>
<path fill-rule="evenodd" clip-rule="evenodd" d="M69 63.2502V60.375H71.8752H74.7498V63.2502H69Z" fill="#4998D0"/>
<path fill-rule="evenodd" clip-rule="evenodd" d="M83.3748 63.2502V60.375H86.25H89.1252V63.2502H86.25H83.3748Z" fill="#4998D0"/>
<path fill-rule="evenodd" clip-rule="evenodd" d="M91.9998 60.375H94.875V66.1248H91.9998V63.2502V60.375Z" fill="#4998D0"/>
<path fill-rule="evenodd" clip-rule="evenodd" d="M97.7502 60.375H100.625V63.2502V66.1248V69H103.5V71.8752H100.625H97.7502V69H94.875V66.1248H97.7502V63.2502V60.375Z" fill="#4998D0"/>
<path fill-rule="evenodd" clip-rule="evenodd" d="M0 63.2502H2.87523H14.3748V66.1248H11.5002H8.625H5.74977H2.87523V69H0V63.2502Z" fill="#4998D0"/>
<path fill-rule="evenodd" clip-rule="evenodd" d="M66.1248 66.1248V63.2502H69V66.1248H66.1248Z" fill="#4998D0"/>
<path fill-rule="evenodd" clip-rule="evenodd" d="M74.7498 63.2502H83.3748V66.1248H80.5002H77.625H74.7498V63.2502Z" fill="#4998D0"/>
<path fill-rule="evenodd" clip-rule="evenodd" d="M63.2502 69V66.1248H66.1248V69H63.2502Z" fill="#4998D0"/>
<path fill-rule="evenodd" clip-rule="evenodd" d="M2.87524 69H5.74978H8.62501H11.5002V71.8752H8.62501H5.74978H2.87524V69Z" fill="#4998D0"/>
<path fill-rule="evenodd" clip-rule="evenodd" d="M63.2502 69V71.8752H60.375V69H63.2502Z" fill="#4998D0"/>
<path fill-rule="evenodd" clip-rule="evenodd" d="M11.5002 74.7498V71.8752H14.3748V74.7498H11.5002Z" fill="#4998D0"/>
<path fill-rule="evenodd" clip-rule="evenodd" d="M63.2502 71.8752H66.1248H69V74.7498H66.1248H63.2502V71.8752Z" fill="#4998D0"/>
<path fill-rule="evenodd" clip-rule="evenodd" d="M8.625 77.625V74.7498H11.5002V77.625H8.625Z" fill="#4998D0"/>
<path fill-rule="evenodd" clip-rule="evenodd" d="M69 74.7498H71.8752V77.625V80.5002H69H57.4998V77.625H60.375H63.2502H66.1248H69V74.7498Z" fill="#4998D0"/>
<path fill-rule="evenodd" clip-rule="evenodd" d="M8.62498 77.625V80.5002H11.5002H17.25V83.3748H14.3748H11.5002H8.62498H5.74976V80.5002V77.625H8.62498Z" fill="#4998D0"/>
<path fill-rule="evenodd" clip-rule="evenodd" d="M17.25 80.5002V77.625H20.1252H22.9998V80.5002H17.25Z" fill="#4998D0"/>
<path fill-rule="evenodd" clip-rule="evenodd" d="M22.9998 80.5002H25.875V83.3748V86.25H22.9998V83.3748V80.5002Z" fill="#4998D0"/>
<path fill-rule="evenodd" clip-rule="evenodd" d="M57.4998 80.5002V83.3748H54.6252V80.5002H57.4998Z" fill="#4998D0"/>
<path fill-rule="evenodd" clip-rule="evenodd" d="M57.4998 86.25V83.3748H60.375V86.25H57.4998Z" fill="#4998D0"/>
<path fill-rule="evenodd" clip-rule="evenodd" d="M25.875 86.25H28.7502V89.1245V91.9998V94.875V97.7495H25.875V86.25Z" fill="#4998D0"/>
<path fill-rule="evenodd" clip-rule="evenodd" d="M37.3752 89.1245V86.25H40.2498H43.125H46.0002H48.8748H51.75V89.1245V94.875H48.8748V91.9998V89.1245H46.0002H37.3752Z" fill="#4998D0"/>
<path fill-rule="evenodd" clip-rule="evenodd" d="M57.4998 86.25V94.875H54.6252V91.9998V89.1245V86.25H57.4998Z" fill="#4998D0"/>
<path fill-rule="evenodd" clip-rule="evenodd" d="M37.3752 89.1245V100.625H34.5V97.7495V94.875V91.9997V89.1245H37.3752Z" fill="#4998D0"/>
<path fill-rule="evenodd" clip-rule="evenodd" d="M51.75 94.875H54.6252V103.5V106.375V109.25H51.75V94.875Z" fill="#4998D0"/>
<path fill-rule="evenodd" clip-rule="evenodd" d="M57.4998 94.875H60.375V97.7495V100.625V106.375H57.4998V103.5V94.875Z" fill="#4998D0"/>
<path fill-rule="evenodd" clip-rule="evenodd" d="M20.1252 100.625V97.7495H22.9998H25.875V100.625H22.9998H20.1252Z" fill="#4998D0"/>
<path fill-rule="evenodd" clip-rule="evenodd" d="M14.3748 103.5V100.625H17.25H20.1252V103.5H17.25H14.3748Z" fill="#4998D0"/>
<path fill-rule="evenodd" clip-rule="evenodd" d="M37.3752 100.625H40.2498V103.5V106.375H37.3752H25.875V103.5H28.7502H31.6248H34.5H37.3752V100.625Z" fill="#4998D0"/>
<path fill-rule="evenodd" clip-rule="evenodd" d="M14.3748 103.5V106.375H11.5002V109.25H8.625V106.375V103.5H11.5002H14.3748Z" fill="#4998D0"/>
<path fill-rule="evenodd" clip-rule="evenodd" d="M25.875 106.375V109.25H22.9998H20.1252V112.125V117.875V126.5H17.25V123.625H14.3748V120.75V117.875H17.25V115V112.125V109.25V106.375H20.1252H25.875Z" fill="#4998D0"/>
<path fill-rule="evenodd" clip-rule="evenodd" d="M60.375 106.375H63.2502V109.25V112.125H60.375V106.375Z" fill="#4998D0"/>
<path fill-rule="evenodd" clip-rule="evenodd" d="M11.5002 109.25H14.3748V112.125V115V117.875H11.5002V115V112.125V109.25Z" fill="#4998D0"/>
<path fill-rule="evenodd" clip-rule="evenodd" d="M48.8748 112.125V109.25H51.75V112.125H48.8748Z" fill="#4998D0"/>
<path fill-rule="evenodd" clip-rule="evenodd" d="M48.8748 112.125V115H51.75H54.6252V117.875H51.75H48.8748H46.0002V120.75H43.125H40.2498V117.875H43.125V115H46.0002V112.125H48.8748Z" fill="#4998D0"/>
<path fill-rule="evenodd" clip-rule="evenodd" d="M54.6252 115V112.125H57.4998H60.375V115H57.4998H54.6252Z" fill="#4998D0"/>
<path fill-rule="evenodd" clip-rule="evenodd" d="M8.625 5.74982H11.5002V8.62505H8.625V5.74982Z" fill="#8CDDFF"/>
<path fill-rule="evenodd" clip-rule="evenodd" d="M11.5002 8.625H14.3748V11.5002H17.25V14.3748H20.1252V17.25H22.9998V20.1252H20.1252V22.9998V25.875H17.25V22.9998V20.1252H14.3748V17.25V14.3748H11.5002V11.5002V8.625Z" fill="#8CDDFF"/>
<path fill-rule="evenodd" clip-rule="evenodd" d="M57.4998 11.5002H54.6252V8.625H57.4998V11.5002Z" fill="#8CDDFF"/>
<path fill-rule="evenodd" clip-rule="evenodd" d="M57.4998 11.5002H60.375V14.3747H57.4998V11.5002Z" fill="#8CDDFF"/>
<path fill-rule="evenodd" clip-rule="evenodd" d="M60.375 14.3748H63.2502V17.25V20.1253H60.375V14.3748Z" fill="#8CDDFF"/>
<path fill-rule="evenodd" clip-rule="evenodd" d="M60.375 20.1252V31.6248H57.4998V34.5H54.6252V37.3753V40.2498H51.75H48.8748V37.3753H46.0002V34.5H43.125V31.6248V28.7503H46.0002V31.6248H48.8748V34.5H51.75V31.6248H54.6252V28.7503V25.875H57.4998V22.9998V20.1252H60.375Z" fill="#8CDDFF"/>
<path fill-rule="evenodd" clip-rule="evenodd" d="M17.25 25.875V28.7502V31.6248H14.3748V34.5H11.5002V37.3752V40.2498H8.62498V37.3752H5.74976V34.5H8.62498V31.6248H11.5002V28.7502H14.3748V25.875H17.25Z" fill="#8CDDFF"/>
<path fill-rule="evenodd" clip-rule="evenodd" d="M74.7498 28.7502V25.875H77.625V28.7502H74.7498Z" fill="#8CDDFF"/>
<path fill-rule="evenodd" clip-rule="evenodd" d="M117.875 28.7502H115V31.6248H112.125V28.7502H109.25V31.6248H106.375V28.7502V25.875H109.25H112.125H115H117.875V28.7502Z" fill="#8CDDFF"/>
<path fill-rule="evenodd" clip-rule="evenodd" d="M69 31.6248V28.7502H71.8752H74.7498V31.6248V34.5H77.625V37.3752H80.5002H83.3748V40.2498H86.25H94.875H97.7502H100.625V37.3752H103.5V40.2498H106.375V37.3752H109.25V46.0002H106.375H103.5V43.125H100.625H97.7502H94.875V46.0002H91.9998V43.125H89.1252H86.25H83.3748V46.0002H80.5002V43.125H77.625V40.2498H74.7498H71.8752H69V34.5H71.8752V31.6248H69Z" fill="#8CDDFF"/>
<path fill-rule="evenodd" clip-rule="evenodd" d="M117.875 28.7502H120.75H123.625V31.6248H120.75H117.875V28.7502Z" fill="#8CDDFF"/>
<path fill-rule="evenodd" clip-rule="evenodd" d="M60.375 31.6248H69V34.5H66.1248V37.3752V40.2498H63.2502H60.375H57.4998V37.3752V34.5H60.375V31.6248Z" fill="#8CDDFF"/>
<path fill-rule="evenodd" clip-rule="evenodd" d="M106.375 31.6248V34.5H103.5V31.6248H106.375Z" fill="#8CDDFF"/>
<path fill-rule="evenodd" clip-rule="evenodd" d="M109.25 31.6248H112.125V34.5V37.3752H109.25V31.6248Z" fill="#8CDDFF"/>
<path fill-rule="evenodd" clip-rule="evenodd" d="M123.625 31.6248H126.5V34.5H123.625V31.6248Z" fill="#8CDDFF"/>
<path fill-rule="evenodd" clip-rule="evenodd" d="M14.3748 34.5H17.25V37.3752V40.2498H14.3748V34.5Z" fill="#8CDDFF"/>
<path fill-rule="evenodd" clip-rule="evenodd" d="M37.3752 40.2498H34.5H31.6248V43.125V46.0002H28.7502V48.8748V51.75H25.875V48.8748H22.9998H20.1252V46.0002H17.25H14.3748V43.125H17.25V40.2498H20.1252V43.125H22.9998V46.0002H25.875V43.125H28.7502V40.2498V37.3752H31.6248V34.5H34.5V37.3752H37.3752V40.2498Z" fill="#8CDDFF"/>
<path fill-rule="evenodd" clip-rule="evenodd" d="M37.3752 40.2498H40.2498V37.3752H43.125V40.2498V43.125V46.0002H40.2498H37.3752V43.125V40.2498Z" fill="#8CDDFF"/>
<path fill-rule="evenodd" clip-rule="evenodd" d="M11.5002 40.2498H14.3748V43.125H11.5002V40.2498Z" fill="#8CDDFF"/>
<path fill-rule="evenodd" clip-rule="evenodd" d="M66.1248 43.125V40.2498H69V43.125H66.1248Z" fill="#8CDDFF"/>
<path fill-rule="evenodd" clip-rule="evenodd" d="M66.1248 43.125V46.0002V48.8748V51.75H69V57.4998H66.1248V54.6252H63.2502H60.375V51.75H63.2502V48.8748H60.375V46.0002H63.2502V43.125H66.1248Z" fill="#8CDDFF"/>
<path fill-rule="evenodd" clip-rule="evenodd" d="M83.3748 46.0002H86.25H89.1252V48.8748H86.25H83.3748V46.0002Z" fill="#8CDDFF"/>
<path fill-rule="evenodd" clip-rule="evenodd" d="M20.1252 48.8748V51.75V54.6252H22.9998V57.4998H25.875V60.375V63.2502V66.1248H22.9998H14.3748V63.2502H17.25V60.375H14.3748V57.4998H11.5002V54.6252H8.625V51.75H11.5002H14.3748H17.25V48.8748H20.1252Z" fill="#8CDDFF"/>
<path fill-rule="evenodd" clip-rule="evenodd" d="M60.375 54.6252V57.4998V60.375H63.2502V63.2502H66.1248V66.1248H63.2502V69H60.375V71.8752H63.2502V74.7498H66.1248H69V77.625H66.1248H63.2502H60.375H57.4998V80.5002H54.6252V83.3748H57.4998V86.25H54.6252V89.1246V94.875H51.75V91.9998V89.1246V86.25H48.8748H40.2498H37.3752V89.1246H34.5V86.25V83.3748H37.3752H40.2498V80.5002H43.125H46.0002V77.625V74.7498H48.8748V77.625V80.5002H51.75V77.625V74.7498H54.6252H57.4998V71.8752H54.6252V69V66.1248H57.4998H60.375V63.2502H57.4998V60.375V57.4998V54.6252H60.375Z" fill="#8CDDFF"/>
<path fill-rule="evenodd" clip-rule="evenodd" d="M89.1252 57.4998V54.6252H91.9998V57.4998H89.1252Z" fill="#8CDDFF"/>
<path fill-rule="evenodd" clip-rule="evenodd" d="M69 57.4998H71.8752H74.7498V60.375H71.8752H69V57.4998Z" fill="#8CDDFF"/>
<path fill-rule="evenodd" clip-rule="evenodd" d="M89.1252 57.4998V60.375H86.25H83.3748V63.2502H80.5002H77.625H74.7498V60.375H77.625H80.5002V57.4998H89.1252Z" fill="#8CDDFF"/>
<path fill-rule="evenodd" clip-rule="evenodd" d="M91.9998 57.4998H94.875V60.375H91.9998V57.4998Z" fill="#8CDDFF"/>
<path fill-rule="evenodd" clip-rule="evenodd" d="M94.875 60.375H97.7502V63.2502V66.1248H94.875V63.2502V60.375Z" fill="#8CDDFF"/>
<path fill-rule="evenodd" clip-rule="evenodd" d="M2.87524 69V66.1248H8.62501H14.3748V69H17.25V71.8752V74.7497H14.3748V71.8752H11.5002V69H8.62501H5.74978H2.87524Z" fill="#8CDDFF"/>
<path fill-rule="evenodd" clip-rule="evenodd" d="M34.5 89.1246V91.9998V94.875H31.6248V97.7495V100.625H28.7502V103.5H25.875V106.375H22.9998H20.1252H17.25H14.3748V103.5H17.25H20.1252V100.625H22.9998H25.875V97.7495H28.7502V94.875V91.9998V89.1246V86.25H25.875V83.3748V80.5002H22.9998V77.625H20.1252H17.25V74.7498H20.1252H22.9998H25.875V71.8752H28.7502V74.7498V77.625V80.5002H31.6248V83.3748V86.25V89.1246H34.5Z" fill="#8CDDFF"/>
<path fill-rule="evenodd" clip-rule="evenodd" d="M14.3748 74.7498V77.625H17.25V80.5002H14.3748H11.5002H8.625V77.625H11.5002V74.7498H14.3748Z" fill="#8CDDFF"/>
<path fill-rule="evenodd" clip-rule="evenodd" d="M54.6252 94.875H57.4998V97.7495V100.625H54.6252V97.7495V94.875Z" fill="#8CDDFF"/>
<path fill-rule="evenodd" clip-rule="evenodd" d="M34.5 103.5V100.625H37.3752V103.5H34.5Z" fill="#8CDDFF"/>
<path fill-rule="evenodd" clip-rule="evenodd" d="M14.3748 106.375V109.25H11.5002V106.375H14.3748Z" fill="#8CDDFF"/>
<path fill-rule="evenodd" clip-rule="evenodd" d="M60.375 109.25V112.125H57.4998H54.6252V115H51.75H48.8748V112.125H51.75V109.25H54.6252H57.4998V106.375H60.375V109.25Z" fill="#8CDDFF"/>
<path fill-rule="evenodd" clip-rule="evenodd" d="M17.25 117.875H14.3748V115V112.125H17.25V115V117.875Z" fill="#8CDDFF"/>
<path fill-rule="evenodd" clip-rule="evenodd" d="M60.375 20.1252H63.2502V22.9998H60.375V20.1252Z" fill="#E8FCFF"/>
<path fill-rule="evenodd" clip-rule="evenodd" d="M109.25 31.6248V28.7502H112.125V31.6248H109.25Z" fill="#E8FCFF"/>
<path fill-rule="evenodd" clip-rule="evenodd" d="M57.4998 34.5V31.6248H60.375V34.5H57.4998Z" fill="#E8FCFF"/>
<path fill-rule="evenodd" clip-rule="evenodd" d="M69 34.5V31.6248H71.8752V34.5H69Z" fill="#E8FCFF"/>
<path fill-rule="evenodd" clip-rule="evenodd" d="M109.25 31.6248V34.5V37.3752H106.375V40.2498H103.5V37.3752V34.5H106.375V31.6248H109.25Z" fill="#E8FCFF"/>
<path fill-rule="evenodd" clip-rule="evenodd" d="M11.5002 34.5H14.3748V37.3752V40.2498H11.5002V34.5Z" fill="#E8FCFF"/>
<path fill-rule="evenodd" clip-rule="evenodd" d="M57.4998 34.5V37.3752V40.2498H60.375H63.2502H66.1248V43.125H63.2502V46.0002H60.375V48.8748H63.2502V51.75H60.375V54.6252H57.4998V57.4998V60.375V63.2502H60.375V66.1248H57.4998H54.6252V69V71.8752H57.4998V74.7498H54.6252H51.75V77.625V80.5002H48.8748V77.625V74.7498H46.0002V77.625V80.5002H43.125H40.2498V83.3748H37.3752H34.5V86.25V89.1245H31.6248V86.25V83.3748V80.5002H28.7502V77.625V74.7498V71.8752H25.875V74.7498H22.9998H17.25V71.8752V69H14.3748V66.1248H17.25H20.1252H22.9998H25.875V63.2502V60.375V57.4998H22.9998V54.6252H20.1252V51.75V48.8748H22.9998H25.875V51.75H28.7502V48.8748V46.0002H31.6248V43.125V40.2498H34.5H37.3752V43.125V46.0002H40.2498H43.125V43.125V40.2498V37.3752V34.5H46.0002V37.3752H48.8748V40.2498H51.75H54.6252V37.3752V34.5H57.4998Z" fill="#E8FCFF"/>
<path fill-rule="evenodd" clip-rule="evenodd" d="M69 34.5V37.3752V40.2498H66.1248V37.3752V34.5H69Z" fill="#E8FCFF"/>
<path fill-rule="evenodd" clip-rule="evenodd" d="M14.3748 40.2498H17.25V43.125H14.3748V40.2498Z" fill="#E8FCFF"/>
<path fill-rule="evenodd" clip-rule="evenodd" d="M83.3748 43.125H86.25H89.1252H91.9998V46.0002H89.1252H86.25H83.3748V43.125Z" fill="#E8FCFF"/>
<path fill-rule="evenodd" clip-rule="evenodd" d="M20.1252 48.8748H17.25V46.0002H20.1252V48.8748Z" fill="#E8FCFF"/>
<path fill-rule="evenodd" clip-rule="evenodd" d="M74.7498 60.375V57.4998H77.625H80.5002V60.375H77.625H74.7498Z" fill="#E8FCFF"/>
<path fill-rule="evenodd" clip-rule="evenodd" d="M17.25 74.7498V77.625H14.3748V74.7498H17.25Z" fill="#E8FCFF"/>
<path fill-rule="evenodd" clip-rule="evenodd" d="M34.5 94.875V97.7495V100.625V103.5H31.6248H28.7502V100.625H31.6248V97.7495V94.875H34.5Z" fill="#E8FCFF"/>
<path fill-rule="evenodd" clip-rule="evenodd" d="M54.6252 103.5V100.625H57.4998V103.5V106.375V109.25H54.6252V106.375V103.5Z" fill="#E8FCFF"/>
<path fill-rule="evenodd" clip-rule="evenodd" d="M17.25 112.125H14.3748V109.25V106.375H17.25V109.25V112.125Z" fill="#E8FCFF"/>
<path fill-rule="evenodd" clip-rule="evenodd" d="M57.4998 37.3752V34.5H66.1248V37.3752V40.2498H63.2502V37.3752H60.375H57.4998Z" fill="black"/>
<path fill-rule="evenodd" clip-rule="evenodd" d="M48.8748 40.2498V37.3752H51.75H54.6252H57.4998V40.2498H48.8748Z" fill="black"/>
<path fill-rule="evenodd" clip-rule="evenodd" d="M43.125 43.125V40.2498H46.0002H48.8748V43.125H46.0002H43.125Z" fill="black"/>
<path fill-rule="evenodd" clip-rule="evenodd" d="M60.375 43.125V40.2498H63.2502V43.125H60.375Z" fill="black"/>
<path fill-rule="evenodd" clip-rule="evenodd" d="M37.3752 46.0002V43.125H40.2497H43.125V46.0002H40.2497H37.3752Z" fill="black"/>
<path fill-rule="evenodd" clip-rule="evenodd" d="M57.4998 46.0002V43.125H60.375V46.0002H57.4998Z" fill="black"/>
<path fill-rule="evenodd" clip-rule="evenodd" d="M34.5 48.8748V46.0002H37.3752V48.8748H34.5Z" fill="black"/>
<path fill-rule="evenodd" clip-rule="evenodd" d="M57.4997 46.0002V48.8748V51.75H54.6252V48.8748V46.0002H57.4997Z" fill="black"/>
<path fill-rule="evenodd" clip-rule="evenodd" d="M31.6247 51.75V48.8748H34.5V51.75H31.6247Z" fill="black"/>
<path fill-rule="evenodd" clip-rule="evenodd" d="M37.3752 51.75V48.8748H40.2497H43.125V51.75V54.6252H40.2497V51.75H37.3752Z" fill="black"/>
<path fill-rule="evenodd" clip-rule="evenodd" d="M28.7502 54.6252V51.75H31.6248V54.6252H28.7502Z" fill="black"/>
<path fill-rule="evenodd" clip-rule="evenodd" d="M34.5 54.6252V51.75H37.3752V54.6252H34.5Z" fill="black"/>
<path fill-rule="evenodd" clip-rule="evenodd" d="M51.75 54.6252V51.75H54.6252V54.6252H51.75Z" fill="black"/>
<path fill-rule="evenodd" clip-rule="evenodd" d="M25.875 57.4998V54.6252H28.7502V57.4998H25.875Z" fill="black"/>
<path fill-rule="evenodd" clip-rule="evenodd" d="M31.6247 54.6252H34.5V57.4998H37.3752V60.375H34.5H31.6247V57.4998V54.6252Z" fill="black"/>
<path fill-rule="evenodd" clip-rule="evenodd" d="M37.3752 57.4998V54.6252H40.2497V57.4998H37.3752Z" fill="black"/>
<path fill-rule="evenodd" clip-rule="evenodd" d="M48.8748 57.4998V54.6252H51.75V57.4998H48.8748Z" fill="black"/>
<path fill-rule="evenodd" clip-rule="evenodd" d="M22.9997 60.375V57.4998H25.875V60.375H22.9997Z" fill="black"/>
<path fill-rule="evenodd" clip-rule="evenodd" d="M48.8747 57.4998V60.375V63.2502H46.0002V60.375V57.4998H48.8747Z" fill="black"/>
<path fill-rule="evenodd" clip-rule="evenodd" d="M51.75 57.4998H54.6252V60.375H51.75V57.4998Z" fill="black"/>
<path fill-rule="evenodd" clip-rule="evenodd" d="M20.1252 60.375H22.9998V69H20.1252V60.375Z" fill="black"/>
<path fill-rule="evenodd" clip-rule="evenodd" d="M54.6252 60.375H57.4997H60.375V63.2502H57.4997H54.6252V60.375Z" fill="black"/>
<path fill-rule="evenodd" clip-rule="evenodd" d="M46.0002 63.2502V69H43.125V66.1248V63.2502H46.0002Z" fill="black"/>
<path fill-rule="evenodd" clip-rule="evenodd" d="M60.375 63.2502H63.2502V66.1248H60.375V63.2502Z" fill="black"/>
<path fill-rule="evenodd" clip-rule="evenodd" d="M63.2502 66.1248H66.1248V69H63.2502V66.1248Z" fill="black"/>
<path fill-rule="evenodd" clip-rule="evenodd" d="M22.9997 69H25.875V71.8752H22.9997V69Z" fill="black"/>
<path fill-rule="evenodd" clip-rule="evenodd" d="M43.125 69V71.8752V74.7498H40.2498V71.8752V69H43.125Z" fill="black"/>
<path fill-rule="evenodd" clip-rule="evenodd" d="M46.0002 69H48.8747V71.8752H46.0002V69Z" fill="black"/>
<path fill-rule="evenodd" clip-rule="evenodd" d="M66.1248 69H69V71.8752H66.1248V69Z" fill="black"/>
<path fill-rule="evenodd" clip-rule="evenodd" d="M25.875 71.8752H28.7502H31.6248V74.7498H28.7502H25.875V71.8752Z" fill="black"/>
<path fill-rule="evenodd" clip-rule="evenodd" d="M48.8748 71.8752H51.75H54.6252V74.7498H51.75H48.8748V71.8752Z" fill="black"/>
<path fill-rule="evenodd" clip-rule="evenodd" d="M68.9999 71.8752H71.8752H74.7497V74.7498H71.8752H68.9999V71.8752Z" fill="black"/>
<path fill-rule="evenodd" clip-rule="evenodd" d="M31.6247 74.7498H40.2497V77.625H37.3752H34.5H31.6247V74.7498Z" fill="black"/>
<path fill-rule="evenodd" clip-rule="evenodd" d="M54.6252 74.7498H57.4997V77.625H54.6252V74.7498Z" fill="black"/>
<path fill-rule="evenodd" clip-rule="evenodd" d="M74.7497 74.7498H77.6249V77.625H74.7497V74.7498Z" fill="black"/>
<path fill-rule="evenodd" clip-rule="evenodd" d="M57.4998 77.625H60.375V80.5002H57.4998V77.625Z" fill="black"/>
<path fill-rule="evenodd" clip-rule="evenodd" d="M77.6249 77.625H80.5002V80.5002H77.6249V77.625Z" fill="black"/>
<path fill-rule="evenodd" clip-rule="evenodd" d="M60.375 80.5002H63.2502V83.3748H60.375V80.5002Z" fill="black"/>
<path fill-rule="evenodd" clip-rule="evenodd" d="M80.5002 80.5002H83.3747V83.3748H80.5002V80.5002Z" fill="black"/>
<path fill-rule="evenodd" clip-rule="evenodd" d="M63.2502 83.3748H66.1247H69V86.25H66.1247H63.2502V83.3748Z" fill="black"/>
<path fill-rule="evenodd" clip-rule="evenodd" d="M83.3747 83.3748H86.2499H89.1252V86.25H86.2499H83.3747V83.3748Z" fill="black"/>
<path fill-rule="evenodd" clip-rule="evenodd" d="M68.9999 86.25H71.8752V89.1245H68.9999V86.25Z" fill="black"/>
<path fill-rule="evenodd" clip-rule="evenodd" d="M89.1252 86.25H91.9997V89.1245H89.1252V86.25Z" fill="black"/>
<path fill-rule="evenodd" clip-rule="evenodd" d="M71.8752 89.1245H74.7497V91.9997H71.8752V89.1245Z" fill="black"/>
<path fill-rule="evenodd" clip-rule="evenodd" d="M91.9998 89.1245H94.875V91.9997H91.9998V89.1245Z" fill="black"/>
<path fill-rule="evenodd" clip-rule="evenodd" d="M74.7497 91.9998H77.6249V94.875H74.7497V91.9998Z" fill="black"/>
<path fill-rule="evenodd" clip-rule="evenodd" d="M94.8749 91.9998H97.7502V94.875H94.8749V91.9998Z" fill="black"/>
<path fill-rule="evenodd" clip-rule="evenodd" d="M77.6249 94.875H80.5002H83.3747V97.7495H80.5002H77.6249V94.875Z" fill="black"/>
<path fill-rule="evenodd" clip-rule="evenodd" d="M97.7502 94.875H100.625V97.7495H97.7502V94.875Z" fill="black"/>
<path fill-rule="evenodd" clip-rule="evenodd" d="M83.3747 97.7495H86.2499V100.625H83.3747V97.7495Z" fill="black"/>
<path fill-rule="evenodd" clip-rule="evenodd" d="M100.625 97.7495H103.5H106.375V100.625H103.5H100.625V97.7495Z" fill="black"/>
<path fill-rule="evenodd" clip-rule="evenodd" d="M86.2499 100.625H89.1252V103.5H86.2499V100.625Z" fill="black"/>
<path fill-rule="evenodd" clip-rule="evenodd" d="M106.375 100.625H109.25V103.5H106.375V100.625Z" fill="black"/>
<path fill-rule="evenodd" clip-rule="evenodd" d="M89.1252 103.5H91.9997V106.375H89.1252V103.5Z" fill="black"/>
<path fill-rule="evenodd" clip-rule="evenodd" d="M109.25 103.5H112.125V106.375H109.25V103.5Z" fill="black"/>
<path fill-rule="evenodd" clip-rule="evenodd" d="M91.9998 106.375H94.875V109.25H91.9998V106.375Z" fill="black"/>
<path fill-rule="evenodd" clip-rule="evenodd" d="M112.125 106.375H115V109.25H112.125V106.375Z" fill="black"/>
<path fill-rule="evenodd" clip-rule="evenodd" d="M94.8749 109.25H97.7502H100.625V112.125H97.7502H94.8749V109.25Z" fill="black"/>
<path fill-rule="evenodd" clip-rule="evenodd" d="M115 109.25H117.875V112.125H115V109.25Z" fill="black"/>
<path fill-rule="evenodd" clip-rule="evenodd" d="M100.625 112.125H103.5V115H100.625V112.125Z" fill="black"/>
<path fill-rule="evenodd" clip-rule="evenodd" d="M117.875 112.125H120.75V115H117.875V112.125Z" fill="black"/>
<path fill-rule="evenodd" clip-rule="evenodd" d="M103.5 115H106.375V117.875H103.5V115Z" fill="black"/>
<path fill-rule="evenodd" clip-rule="evenodd" d="M120.75 115H123.625H126.5V117.875H123.625H120.75V115Z" fill="black"/>
<path fill-rule="evenodd" clip-rule="evenodd" d="M106.375 117.875H109.25V120.75H106.375V117.875Z" fill="black"/>
<path fill-rule="evenodd" clip-rule="evenodd" d="M126.5 117.875H129.375V120.75H126.5V117.875Z" fill="black"/>
<path fill-rule="evenodd" clip-rule="evenodd" d="M109.25 120.75H112.125H115V123.625H112.125H109.25V120.75Z" fill="black"/>
<path fill-rule="evenodd" clip-rule="evenodd" d="M129.375 120.75H132.25V123.625H129.375V120.75Z" fill="black"/>
<path fill-rule="evenodd" clip-rule="evenodd" d="M115 123.625H117.875V126.5H115V123.625Z" fill="black"/>
<path fill-rule="evenodd" clip-rule="evenodd" d="M132.25 123.625H135.125V126.5H132.25V123.625Z" fill="black"/>
<path fill-rule="evenodd" clip-rule="evenodd" d="M117.875 126.5H120.75V129.375H117.875V126.5Z" fill="black"/>
<path fill-rule="evenodd" clip-rule="evenodd" d="M135.125 126.5H138V132.25H135.125V126.5Z" fill="black"/>
<path fill-rule="evenodd" clip-rule="evenodd" d="M120.75 129.375H123.625V132.25H120.75V129.375Z" fill="black"/>
<path fill-rule="evenodd" clip-rule="evenodd" d="M123.625 132.25H126.5V135.125H123.625V132.25Z" fill="black"/>
<path fill-rule="evenodd" clip-rule="evenodd" d="M132.25 135.125V132.25H135.125V135.125H132.25Z" fill="black"/>
<path fill-rule="evenodd" clip-rule="evenodd" d="M126.5 138V135.125H132.25V138H126.5Z" fill="black"/>
<path fill-rule="evenodd" clip-rule="evenodd" d="M57.4998 40.2498V37.3752H60.375H63.2502V40.2498H57.4998Z" fill="#A4ABB1"/>
<path fill-rule="evenodd" clip-rule="evenodd" d="M57.4997 40.2498V43.125H54.6252H51.75V46.0002H48.8747V48.8748H46.0002V51.75V54.6252H43.125V51.75V48.8748H40.2497H37.3752V46.0002H40.2497H43.125V43.125H46.0002H48.8747V40.2498H51.75H54.6252H57.4997Z" fill="#A4ABB1"/>
<path fill-rule="evenodd" clip-rule="evenodd" d="M34.5 51.75V48.8748H37.3752V51.75H34.5Z" fill="#A4ABB1"/>
<path fill-rule="evenodd" clip-rule="evenodd" d="M31.6247 54.6252V51.75H34.5V54.6252H31.6247Z" fill="#A4ABB1"/>
<path fill-rule="evenodd" clip-rule="evenodd" d="M31.6247 54.6252V57.4998V60.375H34.5H37.3752V63.2502H34.5V66.1248H31.6247V69H25.875H22.9997V66.1248V63.2502V60.375H25.875V57.4998H28.7502V54.6252H31.6247Z" fill="#A4ABB1"/>
<path fill-rule="evenodd" clip-rule="evenodd" d="M40.2498 57.4998V54.6252H43.125V57.4998H40.2498Z" fill="#A4ABB1"/>
<path fill-rule="evenodd" clip-rule="evenodd" d="M37.3752 60.375V57.4998H40.2497V60.375H37.3752Z" fill="#A4ABB1"/>
<path fill-rule="evenodd" clip-rule="evenodd" d="M57.4998 43.125V40.2498H60.375V43.125H57.4998Z" fill="#66727D"/>
<path fill-rule="evenodd" clip-rule="evenodd" d="M57.4998 43.125V46.0002H54.6252V48.8748V51.75H51.75V54.6252H48.8748V57.4998H46.0002V60.375V63.2502H43.125V66.1248V69H40.2498V71.8752V74.7498H31.6248V71.8752H28.7502H25.875V69H28.7502H31.6248V66.1248H34.5V63.2502H37.3752V60.375H40.2498V57.4998H43.125V54.6252H46.0002V51.75V48.8748H48.8748V46.0002H51.75V43.125H54.6252H57.4998Z" fill="#66727D"/>
<path fill-rule="evenodd" clip-rule="evenodd" d="M37.3752 54.6252V51.75H40.2497V54.6252H37.3752Z" fill="#B17A4A"/>
<path fill-rule="evenodd" clip-rule="evenodd" d="M34.5 57.4998V54.6252H37.3752V57.4998H34.5Z" fill="#B17A4A"/>
<path fill-rule="evenodd" clip-rule="evenodd" d="M97.7502 97.7496H94.875H91.9998V94.875H89.1252V91.9998H86.25V89.1246H83.3748H80.5002V86.25H77.625V83.3748H74.7498V80.5002H71.8752V77.625H69H66.1248V74.7498H63.2502V71.8752H60.375V69H57.4998V63.2502H60.375V66.1248H63.2502V69H66.1248V71.8752H69V74.7498H71.8752H74.7498V77.625H77.625V80.5002H80.5002V83.3748H83.3748V86.25H86.25H89.1252V89.1246H91.9998V91.9998H94.875V94.875H97.7502V97.7496Z" fill="#B17A4A"/>
<path fill-rule="evenodd" clip-rule="evenodd" d="M97.7502 97.7495H100.625V100.625H97.7502V97.7495Z" fill="#B17A4A"/>
<path fill-rule="evenodd" clip-rule="evenodd" d="M100.625 100.625H103.5H106.375V103.5H109.25V106.375H106.375H103.5V103.5H100.625V100.625Z" fill="#B17A4A"/>
<path fill-rule="evenodd" clip-rule="evenodd" d="M109.25 106.375H112.125V109.25H109.25V106.375Z" fill="#B17A4A"/>
<path fill-rule="evenodd" clip-rule="evenodd" d="M112.125 109.25H115V112.125H112.125V109.25Z" fill="#B17A4A"/>
<path fill-rule="evenodd" clip-rule="evenodd" d="M115 112.125H117.875V115H115V112.125Z" fill="#B17A4A"/>
<path fill-rule="evenodd" clip-rule="evenodd" d="M117.875 115H120.75V117.875H117.875V115Z" fill="#B17A4A"/>
<path fill-rule="evenodd" clip-rule="evenodd" d="M126.5 120.75H123.625V117.875H126.5V120.75Z" fill="#B17A4A"/>
<path fill-rule="evenodd" clip-rule="evenodd" d="M126.5 123.625V120.75H129.375V123.625H126.5Z" fill="#B17A4A"/>
<path fill-rule="evenodd" clip-rule="evenodd" d="M48.8747 57.4998H51.75V60.375H54.6252V63.2502H57.4997V66.1248V69H60.375V71.8752H63.2502V74.7497H66.1247V77.625H68.9999H71.8752V80.5002H74.7497V83.3747H77.6249V86.25H80.5002V89.1245H83.3747H86.2499V91.9997H89.1252V94.875H91.9997V97.7495H94.8749H97.7502V100.625H100.625V103.5H103.5V106.375H106.375H109.25V109.25H112.125V112.125H115V115H117.875V117.875H120.75H123.625V120.75H126.5V123.625H129.375H132.25V126.5H135.125V132.25H132.25V135.125H126.5V132.25H123.625V129.375H120.75V126.5H117.875V123.625H115V120.75H112.125H109.25V117.875H106.375V115H103.5V112.125H100.625V109.25H97.7502H94.8749V106.375H91.9997V103.5H89.1252V100.625H86.2499V97.7495H83.3747V94.875H80.5002H77.6249V91.9997H74.7497V89.1245H71.8752V86.25H68.9999V83.3747H66.1247H63.2502V80.5002H60.375V77.625H57.4997V74.7497H54.6252V71.8752H51.75H48.8747V69H46.0002V63.2502H48.8747V60.375V57.4998Z" fill="#855831"/>
</svg>
