<svg width="134" height="134" viewBox="0 0 134 134" fill="none" xmlns="http://www.w3.org/2000/svg">
<path fill-rule="evenodd" clip-rule="evenodd" d="M44.6667 2.79155V0H47.4584V2.79155H44.6667Z" fill="black"/>
<path fill-rule="evenodd" clip-rule="evenodd" d="M61.4167 2.79155V0H64.2084V2.79155H61.4167Z" fill="black"/>
<path fill-rule="evenodd" clip-rule="evenodd" d="M80.9583 2.79155V0H89.3333V11.1662V13.9591V16.7507H86.5416V5.5831V2.79155H83.7499H80.9583Z" fill="black"/>
<path fill-rule="evenodd" clip-rule="evenodd" d="M41.875 5.58305V2.7915H44.6667V5.58305H41.875Z" fill="black"/>
<path fill-rule="evenodd" clip-rule="evenodd" d="M47.4583 2.7915H50.2499V5.58305H47.4583V2.7915Z" fill="black"/>
<path fill-rule="evenodd" clip-rule="evenodd" d="M58.625 5.58305V2.7915H61.4167V5.58305H58.625Z" fill="black"/>
<path fill-rule="evenodd" clip-rule="evenodd" d="M64.2083 2.7915H66.9999V5.58305H64.2083V2.7915Z" fill="black"/>
<path fill-rule="evenodd" clip-rule="evenodd" d="M75.375 5.58305V2.7915H78.1667H80.9583V5.58305H78.1667H75.375Z" fill="black"/>
<path fill-rule="evenodd" clip-rule="evenodd" d="M41.875 5.58307V8.37462H44.6667H47.4583H50.25V5.58307H53.0417V8.37462H55.8333V5.58307H58.625V8.37462H61.4167H64.2083H67V5.58307H69.7917V8.37462H72.5833V11.1662H53.0417H41.875H33.5V8.37462H36.2917H39.0833V5.58307H41.875Z" fill="black"/>
<path fill-rule="evenodd" clip-rule="evenodd" d="M72.5833 8.37462V5.58307H75.3749V8.37462H72.5833Z" fill="black"/>
<path fill-rule="evenodd" clip-rule="evenodd" d="M30.7083 13.9592V11.1663H33.4999V13.9592H30.7083Z" fill="black"/>
<path fill-rule="evenodd" clip-rule="evenodd" d="M72.5833 11.1663H75.3749H78.1666V13.9592H75.3749H72.5833V11.1663Z" fill="black"/>
<path fill-rule="evenodd" clip-rule="evenodd" d="M27.9167 16.7507V13.9592H30.7084V16.7507H27.9167Z" fill="black"/>
<path fill-rule="evenodd" clip-rule="evenodd" d="M78.1667 13.9592H80.9584H83.7501V16.7507H80.9584H78.1667V13.9592Z" fill="black"/>
<path fill-rule="evenodd" clip-rule="evenodd" d="M100.5 16.7507V13.9592H111.667V30.7085H108.875V22.3338V19.5423V16.7507H106.083H103.292H100.5Z" fill="black"/>
<path fill-rule="evenodd" clip-rule="evenodd" d="M27.9167 16.7507V19.5422V22.3338H25.125V19.5422V16.7507H27.9167Z" fill="black"/>
<path fill-rule="evenodd" clip-rule="evenodd" d="M83.75 16.7507H86.5417V19.5422H83.75V16.7507Z" fill="black"/>
<path fill-rule="evenodd" clip-rule="evenodd" d="M94.9167 19.5422V16.7507H97.7084H100.5V19.5422H97.7084H94.9167Z" fill="black"/>
<path fill-rule="evenodd" clip-rule="evenodd" d="M86.5417 19.5422H89.3334V22.3338H86.5417V19.5422Z" fill="black"/>
<path fill-rule="evenodd" clip-rule="evenodd" d="M92.125 22.3338V19.5422H94.9167V22.3338H92.125Z" fill="black"/>
<path fill-rule="evenodd" clip-rule="evenodd" d="M25.1251 22.3337V33.4999H16.7501H11.1667V30.7084H13.9584H16.7501H22.3334V27.9168V25.1253V22.3337H25.1251Z" fill="black"/>
<path fill-rule="evenodd" clip-rule="evenodd" d="M89.3333 22.3337H92.1249V25.1253H89.3333V22.3337Z" fill="black"/>
<path fill-rule="evenodd" clip-rule="evenodd" d="M50.2499 27.9169V25.1254H53.0416H55.8333H58.6249H61.4166H64.2083H66.9999V27.9169H64.2083V30.7085V33.5V36.2916H66.9999V39.0831H64.2083H61.4166H58.6249H55.8333H53.0416H50.2499H47.4583V36.2916H50.2499H53.0416V33.5H55.8333V36.2916H58.6249H61.4166V27.9169H58.6249H55.8333V30.7085H53.0416V27.9169H50.2499Z" fill="black"/>
<path fill-rule="evenodd" clip-rule="evenodd" d="M92.125 25.1254H94.9167V27.9169H92.125V25.1254Z" fill="black"/>
<path fill-rule="evenodd" clip-rule="evenodd" d="M47.4583 30.7084V27.9169H50.2499V30.7084H47.4583Z" fill="black"/>
<path fill-rule="evenodd" clip-rule="evenodd" d="M67 27.9169H69.7917V30.7084V33.5V36.2915H67V27.9169Z" fill="black"/>
<path fill-rule="evenodd" clip-rule="evenodd" d="M94.9167 27.9169H97.7084V30.7084H94.9167V27.9169Z" fill="black"/>
<path fill-rule="evenodd" clip-rule="evenodd" d="M47.4584 30.7084V36.2915H44.6667V33.5V30.7084H47.4584Z" fill="black"/>
<path fill-rule="evenodd" clip-rule="evenodd" d="M97.7083 30.7084H100.5V33.5H97.7083V30.7084Z" fill="black"/>
<path fill-rule="evenodd" clip-rule="evenodd" d="M108.875 30.7084V33.5V36.2915H106.083V33.5V30.7084H108.875Z" fill="black"/>
<path fill-rule="evenodd" clip-rule="evenodd" d="M5.58325 36.2915V33.5H8.37492H11.1666V36.2915H8.37492H5.58325Z" fill="black"/>
<path fill-rule="evenodd" clip-rule="evenodd" d="M100.5 33.5H103.292V36.2915H100.5V33.5Z" fill="black"/>
<path fill-rule="evenodd" clip-rule="evenodd" d="M5.58341 36.2915V39.0831V41.8746H2.79175V39.0831V36.2915H5.58341Z" fill="black"/>
<path fill-rule="evenodd" clip-rule="evenodd" d="M103.292 36.2915H106.083V39.0831H103.292V36.2915Z" fill="black"/>
<path fill-rule="evenodd" clip-rule="evenodd" d="M122.833 39.0831V36.2915H125.625H128.417H134V44.6662V50.2507H131.208V41.8746V39.0831H128.417H125.625H122.833Z" fill="black"/>
<path fill-rule="evenodd" clip-rule="evenodd" d="M13.9584 47.4591H11.1667V44.6662V41.8746H13.9584V39.0831H16.7501H19.5417V41.8746H16.7501V44.6662V47.4591H13.9584Z" fill="black"/>
<path fill-rule="evenodd" clip-rule="evenodd" d="M106.083 39.0831H108.875V41.8746H106.083V39.0831Z" fill="black"/>
<path fill-rule="evenodd" clip-rule="evenodd" d="M117.25 41.8746V39.0831H120.042H122.833V41.8746H120.042H117.25Z" fill="black"/>
<path fill-rule="evenodd" clip-rule="evenodd" d="M0 41.8746H2.79167V47.4591V55.8338V61.4169V69.7915H0V61.4169V55.8338V47.4591V41.8746Z" fill="black"/>
<path fill-rule="evenodd" clip-rule="evenodd" d="M108.875 41.8746H111.667V44.6662H108.875V41.8746Z" fill="black"/>
<path fill-rule="evenodd" clip-rule="evenodd" d="M114.458 44.6662V41.8746H117.25V44.6662H114.458Z" fill="black"/>
<path fill-rule="evenodd" clip-rule="evenodd" d="M111.667 44.6662H114.458V47.4591H111.667V44.6662Z" fill="black"/>
<path fill-rule="evenodd" clip-rule="evenodd" d="M114.458 47.4592H117.25V50.2507V53.0423H114.458V50.2507V47.4592Z" fill="black"/>
<path fill-rule="evenodd" clip-rule="evenodd" d="M131.208 50.2507V53.0422V55.8338V58.6253H128.417V55.8338V53.0422V50.2507H131.208Z" fill="black"/>
<path fill-rule="evenodd" clip-rule="evenodd" d="M117.25 53.0422H120.042V55.8338V58.6253H117.25V55.8338V53.0422Z" fill="black"/>
<path fill-rule="evenodd" clip-rule="evenodd" d="M120.042 58.6254H122.833V61.4169V64.2085H120.042V61.4169V58.6254Z" fill="black"/>
<path fill-rule="evenodd" clip-rule="evenodd" d="M128.417 58.6254V61.4169V64.2085H125.625V61.4169V58.6254H128.417Z" fill="black"/>
<path fill-rule="evenodd" clip-rule="evenodd" d="M61.4167 67V64.2085H64.2084V67H61.4167Z" fill="black"/>
<path fill-rule="evenodd" clip-rule="evenodd" d="M122.833 64.2085H125.625V69.7916H122.833V67V64.2085Z" fill="black"/>
<path fill-rule="evenodd" clip-rule="evenodd" d="M55.8333 69.7915V67H58.6249H61.4166V69.7915H58.6249H55.8333Z" fill="black"/>
<path fill-rule="evenodd" clip-rule="evenodd" d="M2.79175 69.7915H13.9584H25.1251H36.2917H41.8751H50.2501H55.8334V72.583H53.0417V75.3746H50.2501V72.583H47.4584V75.3746H44.6667V72.583H41.8751V75.3746H39.0834V72.583H36.2917V75.3746H33.5001V72.583H30.7084V75.3746H27.9167V72.583H25.1251H22.3334H19.5417H16.7501H13.9584H11.1667H8.37508H5.58341V75.3746H2.79175V72.583V69.7915Z" fill="black"/>
<path fill-rule="evenodd" clip-rule="evenodd" d="M125.625 69.7915H128.417V72.583V75.3746H125.625V72.583V69.7915Z" fill="black"/>
<path fill-rule="evenodd" clip-rule="evenodd" d="M5.58325 75.3746H8.37492V78.1662H5.58325V75.3746Z" fill="black"/>
<path fill-rule="evenodd" clip-rule="evenodd" d="M30.7083 75.3746H33.5V78.1662H36.2917H39.0833H41.875V75.3746H44.6667V78.1662H47.4583V75.3746H50.25V78.1662H55.8333H64.2083V86.5422V94.9169V111.666H75.375V114.459H72.5833H69.7917H58.625H50.25H41.875V111.666V108.875V106.083V103.292H39.0833H36.2917V100.5H44.6667V111.666H53.0417H61.4167V80.9591H50.25H44.6667H36.2917H30.7083H22.3333H16.75H8.375V78.1662H30.7083V75.3746Z" fill="black"/>
<path fill-rule="evenodd" clip-rule="evenodd" d="M128.417 75.3746H131.208V78.1662V80.9591V83.7507H128.417V80.9591V78.1662V75.3746Z" fill="black"/>
<path fill-rule="evenodd" clip-rule="evenodd" d="M131.208 83.7507H134V92.1253V97.7084H131.208V94.9169V92.1253V89.3338V83.7507Z" fill="black"/>
<path fill-rule="evenodd" clip-rule="evenodd" d="M86.5417 103.292V100.5V97.7084H89.3334V103.292H86.5417Z" fill="black"/>
<path fill-rule="evenodd" clip-rule="evenodd" d="M36.2917 103.292V111.666H30.7083H27.9167V114.459V117.251V120.042V125.625H33.5H41.875V128.417H25.125V108.875H27.9167H30.7083H33.5V106.083V103.292H36.2917Z" fill="black"/>
<path fill-rule="evenodd" clip-rule="evenodd" d="M83.75 106.083V103.292H86.5417V106.083H83.75Z" fill="black"/>
<path fill-rule="evenodd" clip-rule="evenodd" d="M97.7083 108.875V106.083V103.292H100.5V108.875H97.7083Z" fill="black"/>
<path fill-rule="evenodd" clip-rule="evenodd" d="M80.9583 108.875V106.083H83.7499V108.875H80.9583Z" fill="black"/>
<path fill-rule="evenodd" clip-rule="evenodd" d="M75.375 111.666V108.875H78.1667H80.9583V111.666H78.1667H75.375Z" fill="black"/>
<path fill-rule="evenodd" clip-rule="evenodd" d="M94.9167 111.666V108.875H97.7084V111.666H94.9167Z" fill="black"/>
<path fill-rule="evenodd" clip-rule="evenodd" d="M92.125 114.459V111.666H94.9167V114.459H92.125Z" fill="black"/>
<path fill-rule="evenodd" clip-rule="evenodd" d="M89.3333 117.251V114.459H92.1249V117.251H89.3333Z" fill="black"/>
<path fill-rule="evenodd" clip-rule="evenodd" d="M86.5417 120.042V117.251H89.3334V120.042H86.5417Z" fill="black"/>
<path fill-rule="evenodd" clip-rule="evenodd" d="M80.9583 122.834V120.042H83.7499H86.5416V122.834H83.7499H80.9583Z" fill="black"/>
<path fill-rule="evenodd" clip-rule="evenodd" d="M41.875 125.625V122.834H44.6667H47.4583H50.25H53.0417H64.2083H72.5833H80.9583V125.625H78.1667H75.375H64.2083V134H61.4167V128.417V125.625H58.625H55.8333H53.0417H50.25H41.875Z" fill="black"/>
<path fill-rule="evenodd" clip-rule="evenodd" d="M50.25 30.7084H53.0417H55.8333V33.5H53.0417H50.25V30.7084Z" fill="#FAFAFA"/>
<path fill-rule="evenodd" clip-rule="evenodd" d="M55.8333 27.9169H58.6249H61.4166V30.7084V36.2915H55.8333V27.9169Z" fill="#A86652"/>
<path fill-rule="evenodd" clip-rule="evenodd" d="M50.25 30.7084V27.9169H53.0417V30.7084H50.25Z" fill="#CFC87C"/>
<path fill-rule="evenodd" clip-rule="evenodd" d="M64.2083 27.9169H66.9999V30.7084V33.5V36.2915H64.2083V27.9169Z" fill="#CFC87C"/>
<path fill-rule="evenodd" clip-rule="evenodd" d="M50.2499 30.7084V33.5H53.0416V36.2915H50.2499H47.4583V33.5V30.7084H50.2499Z" fill="#CFC87C"/>
<path fill-rule="evenodd" clip-rule="evenodd" d="M50.25 5.58305V8.37461H47.4583H44.6667H41.875V5.58305H44.6667V2.7915H47.4583V5.58305H50.25Z" fill="#E8B3B3"/>
<path fill-rule="evenodd" clip-rule="evenodd" d="M61.4167 2.7915H64.2083V5.58305H67V8.37461H64.2083H61.4167H58.625V5.58305H61.4167V2.7915Z" fill="#E8B3B3"/>
<path fill-rule="evenodd" clip-rule="evenodd" d="M86.5416 2.7915V13.9591V16.7506H83.7499V13.9591H80.9582H78.1666V11.1662H75.3749H72.5833V8.3746H75.3749V5.58305H78.1666H80.9582V2.7915H83.7499H86.5416Z" fill="#E8B3B3"/>
<path fill-rule="evenodd" clip-rule="evenodd" d="M108.875 16.7507V22.3338V25.1253V27.9169V30.7084H106.083V33.5V36.2915H103.292V33.5H100.5V30.7084H97.7083V27.9169H94.9167V25.1253H92.125V22.3338H94.9167V19.5422H97.7083H100.5V16.7507H103.292H106.083H108.875Z" fill="#E8B3B3"/>
<path fill-rule="evenodd" clip-rule="evenodd" d="M131.208 39.0831V47.4591V50.2507H128.417V53.0422V55.8338V58.6253H125.625V61.4169V64.2084H122.833V61.4169V58.6253H120.042V55.8338V53.0422H117.25V50.2507V47.4591H114.458V44.6662H117.25V41.8746H120.042H122.833V39.0831H125.625H131.208Z" fill="#E8B3B3"/>
<path fill-rule="evenodd" clip-rule="evenodd" d="M30.7083 75.3746V72.5831H33.4999V75.3746H30.7083Z" fill="#E8B3B3"/>
<path fill-rule="evenodd" clip-rule="evenodd" d="M41.875 75.3746V72.5831H44.6667V75.3746H41.875Z" fill="#E8B3B3"/>
<path fill-rule="evenodd" clip-rule="evenodd" d="M47.4583 75.3746V72.5831H50.2499V75.3746H47.4583Z" fill="#E8B3B3"/>
<path fill-rule="evenodd" clip-rule="evenodd" d="M80.9583 106.083V108.875H78.1667H75.375V111.666H72.5833H69.7917H67H64.2083V103.292V86.5422V78.1662H53.0417H50.25V75.3747H53.0417V72.5831H55.8333V69.7915H58.625H61.4167V67H64.2083V69.7915H67V72.5831H69.7917V75.3747H72.5833V78.1662H75.375V80.9591V83.7507H78.1667V86.5422V89.3338V92.1253H80.9583V94.9169V97.7084V100.5H83.75V103.292V106.083H80.9583Z" fill="#B9D459"/>
<path fill-rule="evenodd" clip-rule="evenodd" d="M5.58325 72.5831H27.9166V75.3746H30.7083V78.1662H27.9166H25.1249H22.3333H19.5416H16.7499H8.37492V75.3746H5.58325V72.5831Z" fill="#B9D459"/>
<path fill-rule="evenodd" clip-rule="evenodd" d="M36.2917 72.5831H39.0833V75.3746H41.875V78.1662H39.0833H36.2917H33.5V75.3746H36.2917V72.5831Z" fill="#B9D459"/>
<path fill-rule="evenodd" clip-rule="evenodd" d="M44.6667 78.1662V75.3746H47.4584V78.1662H44.6667Z" fill="#B9D459"/>
<path fill-rule="evenodd" clip-rule="evenodd" d="M89.3333 134H64.2083V125.625H75.3749H80.9583V122.834H83.7499H86.5416V120.042H89.3333V128.417V131.208V134Z" fill="#B9D459"/>
<path fill-rule="evenodd" clip-rule="evenodd" d="M134 97.7084V134H89.3334V117.251H92.1251V114.462H94.9167V111.673H97.7084V108.884H100.5V103.307H97.7084V108.884H94.9167V111.673H92.1251V114.462H89.3334V117.251H86.5417V120.039H80.9584V122.828H41.8751V125.617H27.9167V111.666H36.2917V103.291H41.8751V114.458H75.3751V111.669H80.9584V108.88H83.7501V106.091H86.5417V103.303H89.3334V97.7251H86.5417V103.303H83.7501V100.514H80.9584V92.1253H78.1667V83.7492H75.3751V78.1717H72.5834V75.383H69.7917V72.5942H67.0001V69.8054H64.2084V64.2279H61.4167V67.0167H55.8334V69.8054H2.79175V41.8746H5.58341V36.2971H11.1667V33.5083H25.1251V22.3338H27.9167V16.7562H30.7084V13.9675H33.5001V11.1787H72.5834V13.9675H78.1667V16.7562H83.7501V19.545H86.5417V22.3338H89.3334V25.1225H92.1251V27.9113H94.9167V30.7H97.7084V33.4888H100.5V36.2776H103.292V39.0663H106.083V41.8551H108.875V44.6438H111.667V47.4326H114.458V53.0101H117.25V58.5876H120.042V64.1652H122.833V69.7427H125.625V75.3202H128.417V83.6949H131.208V97.7084H134ZM69.7917 27.9169H67.0001V25.1281H50.2501V27.9169H47.4584V30.7056H44.6667V36.2831H47.4584V39.0719H67.0001V36.2831H69.7917V27.9169ZM16.7501 47.4577V41.8802H19.5417V39.0914H13.9584V41.8802H11.1667V47.4577H16.7501Z" fill="#768739"/>
</svg>
