<svg
  width="200"
  height="200"
  viewBox="0 0 200 200"
  fill="none"
  xmlns="http://www.w3.org/2000/svg"
>
  <g clip-path="url(#clip0)">
    <path
      fill-rule="evenodd"
      clip-rule="evenodd"
      d="M104.167 4.16667V0H116.667V4.16667H104.167Z"
      fill="black"
    />
    <path
      fill-rule="evenodd"
      clip-rule="evenodd"
      d="M91.6667 8.33334V4.16667H95.8334H100H104.167V8.33334H91.6667Z"
      fill="black"
    />
    <path
      fill-rule="evenodd"
      clip-rule="evenodd"
      d="M116.667 4.16667H120.833H125V8.33334H120.833H116.667V4.16667Z"
      fill="black"
    />
    <path
      fill-rule="evenodd"
      clip-rule="evenodd"
      d="M79.1667 12.5V8.33333H83.3334H87.5H91.6667V12.5H87.5H83.3334H79.1667Z"
      fill="black"
    />
    <path
      fill-rule="evenodd"
      clip-rule="evenodd"
      d="M125 8.33333H129.167H133.333V12.5H129.167H125V8.33333Z"
      fill="black"
    />
    <path
      fill-rule="evenodd"
      clip-rule="evenodd"
      d="M66.6667 16.6667V12.5H70.8334H75H79.1667V16.6667H75H70.8334H66.6667Z"
      fill="black"
    />
    <path
      fill-rule="evenodd"
      clip-rule="evenodd"
      d="M133.333 12.5H137.5H141.667V16.6667H137.5H133.333V12.5Z"
      fill="black"
    />
    <path
      fill-rule="evenodd"
      clip-rule="evenodd"
      d="M50 20.8333V16.6667H54.1667H58.3333H66.6667V20.8333H62.5H58.3333H50Z"
      fill="black"
    />
    <path
      fill-rule="evenodd"
      clip-rule="evenodd"
      d="M141.667 16.6667H145.833H150V20.8333H145.833H141.667V16.6667Z"
      fill="black"
    />
    <path
      fill-rule="evenodd"
      clip-rule="evenodd"
      d="M50 20.8333V25H54.1667V29.1667H41.6667H33.3333V25H37.5H41.6667V20.8333H45.8333H50Z"
      fill="black"
    />
    <path
      fill-rule="evenodd"
      clip-rule="evenodd"
      d="M150 20.8333H154.167V25H150V20.8333Z"
      fill="black"
    />
    <path
      fill-rule="evenodd"
      clip-rule="evenodd"
      d="M154.167 25H158.333H162.5V29.1667H158.333H154.167V25Z"
      fill="black"
    />
    <path
      fill-rule="evenodd"
      clip-rule="evenodd"
      d="M25 33.3333V29.1667H29.1667H33.3333V33.3333H29.1667H25Z"
      fill="black"
    />
    <path
      fill-rule="evenodd"
      clip-rule="evenodd"
      d="M54.1667 29.1667H58.3333H62.5V33.3333H58.3333H54.1667V29.1667Z"
      fill="black"
    />
    <path
      fill-rule="evenodd"
      clip-rule="evenodd"
      d="M162.5 29.1667H166.667V33.3333H162.5V29.1667Z"
      fill="black"
    />
    <path
      fill-rule="evenodd"
      clip-rule="evenodd"
      d="M16.6667 37.5V33.3333H20.8333H25V37.5H20.8333H16.6667Z"
      fill="black"
    />
    <path
      fill-rule="evenodd"
      clip-rule="evenodd"
      d="M62.5 33.3333H66.6667V37.5H62.5V33.3333Z"
      fill="black"
    />
    <path
      fill-rule="evenodd"
      clip-rule="evenodd"
      d="M95.8333 37.5V33.3333H100V37.5H95.8333Z"
      fill="black"
    />
    <path
      fill-rule="evenodd"
      clip-rule="evenodd"
      d="M108.333 50H104.167V45.8333V41.6667V37.5V33.3333H108.333V50Z"
      fill="black"
    />
    <path
      fill-rule="evenodd"
      clip-rule="evenodd"
      d="M166.667 33.3333H170.833V37.5H166.667V33.3333Z"
      fill="black"
    />
    <path
      fill-rule="evenodd"
      clip-rule="evenodd"
      d="M12.5 41.6667V37.5H16.6667V41.6667H12.5Z"
      fill="black"
    />
    <path
      fill-rule="evenodd"
      clip-rule="evenodd"
      d="M66.6667 37.5H70.8333V41.6667V45.8333V50V54.1667V58.3333H66.6667V54.1667V50H62.5V45.8333H66.6667V41.6667V37.5Z"
      fill="black"
    />
    <path
      fill-rule="evenodd"
      clip-rule="evenodd"
      d="M87.5 41.6667V37.5H91.6667H95.8333V41.6667H91.6667H87.5Z"
      fill="black"
    />
    <path
      fill-rule="evenodd"
      clip-rule="evenodd"
      d="M170.833 37.5H175V41.6667H170.833V37.5Z"
      fill="black"
    />
    <path
      fill-rule="evenodd"
      clip-rule="evenodd"
      d="M12.5 41.6667V45.8333V50H8.33334V45.8333V41.6667H12.5Z"
      fill="black"
    />
    <path
      fill-rule="evenodd"
      clip-rule="evenodd"
      d="M16.6667 41.6667H20.8333V45.8333H16.6667V41.6667Z"
      fill="black"
    />
    <path
      fill-rule="evenodd"
      clip-rule="evenodd"
      d="M87.5 41.6667V45.8333H83.3333H79.1667H75V41.6667H87.5Z"
      fill="black"
    />
    <path
      fill-rule="evenodd"
      clip-rule="evenodd"
      d="M175 41.6667H179.167V45.8333H175V41.6667Z"
      fill="black"
    />
    <path
      fill-rule="evenodd"
      clip-rule="evenodd"
      d="M20.8333 45.8333H25V50H20.8333V45.8333Z"
      fill="black"
    />
    <path
      fill-rule="evenodd"
      clip-rule="evenodd"
      d="M179.167 45.8333H183.333V50H179.167V45.8333Z"
      fill="black"
    />
    <path
      fill-rule="evenodd"
      clip-rule="evenodd"
      d="M8.33333 50V62.5V70.8333H4.16667V75V91.6667H0V66.6667H4.16667V62.5V58.3333V54.1667V50H8.33333Z"
      fill="black"
    />
    <path
      fill-rule="evenodd"
      clip-rule="evenodd"
      d="M25 50H29.1667H33.3333V54.1667H29.1667H25V50Z"
      fill="black"
    />
    <path
      fill-rule="evenodd"
      clip-rule="evenodd"
      d="M54.1667 54.1667V50H58.3333H62.5V54.1667H58.3333H54.1667Z"
      fill="black"
    />
    <path
      fill-rule="evenodd"
      clip-rule="evenodd"
      d="M108.333 50H112.5V54.1667H108.333V50Z"
      fill="black"
    />
    <path
      fill-rule="evenodd"
      clip-rule="evenodd"
      d="M141.667 54.1667V50H145.833H150H158.333V54.1667H141.667Z"
      fill="black"
    />
    <path
      fill-rule="evenodd"
      clip-rule="evenodd"
      d="M183.333 50H187.5V54.1667H183.333V50Z"
      fill="black"
    />
    <path
      fill-rule="evenodd"
      clip-rule="evenodd"
      d="M33.3333 54.1667H45.8333H54.1667V58.3333H50H45.8333H41.6667H37.5H33.3333V54.1667Z"
      fill="black"
    />
    <path
      fill-rule="evenodd"
      clip-rule="evenodd"
      d="M112.5 54.1667H116.667V58.3333H112.5V54.1667Z"
      fill="black"
    />
    <path
      fill-rule="evenodd"
      clip-rule="evenodd"
      d="M129.167 58.3333V54.1667H133.333H137.5H141.667V58.3333H129.167Z"
      fill="black"
    />
    <path
      fill-rule="evenodd"
      clip-rule="evenodd"
      d="M158.333 54.1667H162.5H166.667V58.3333H162.5H158.333V54.1667Z"
      fill="black"
    />
    <path
      fill-rule="evenodd"
      clip-rule="evenodd"
      d="M187.5 54.1667H191.667V58.3333H187.5V54.1667Z"
      fill="black"
    />
    <path
      fill-rule="evenodd"
      clip-rule="evenodd"
      d="M62.5 62.5V58.3333H66.6667V62.5H62.5Z"
      fill="black"
    />
    <path
      fill-rule="evenodd"
      clip-rule="evenodd"
      d="M120.833 62.5V58.3333H125H129.167V62.5H125H120.833Z"
      fill="black"
    />
    <path
      fill-rule="evenodd"
      clip-rule="evenodd"
      d="M166.667 58.3333H170.833H175V62.5H170.833H166.667V58.3333Z"
      fill="black"
    />
    <path
      fill-rule="evenodd"
      clip-rule="evenodd"
      d="M191.667 58.3333H195.833V62.5V66.6667H191.667V62.5V58.3333Z"
      fill="black"
    />
    <path
      fill-rule="evenodd"
      clip-rule="evenodd"
      d="M58.3333 66.6667V62.5H62.5V66.6667H58.3333Z"
      fill="black"
    />
    <path
      fill-rule="evenodd"
      clip-rule="evenodd"
      d="M116.667 66.6667V62.5H120.833V66.6667H116.667Z"
      fill="black"
    />
    <path
      fill-rule="evenodd"
      clip-rule="evenodd"
      d="M175 66.6667V62.5H179.167V66.6667H175Z"
      fill="black"
    />
    <path
      fill-rule="evenodd"
      clip-rule="evenodd"
      d="M54.1667 70.8333V66.6667H58.3333V70.8333H54.1667Z"
      fill="black"
    />
    <path
      fill-rule="evenodd"
      clip-rule="evenodd"
      d="M116.667 66.6667V83.3333H112.5V79.1667V75V66.6667H116.667Z"
      fill="black"
    />
    <path
      fill-rule="evenodd"
      clip-rule="evenodd"
      d="M120.833 66.6667H125H129.167V70.8333H125H120.833V66.6667Z"
      fill="black"
    />
    <path
      fill-rule="evenodd"
      clip-rule="evenodd"
      d="M170.833 70.8333V66.6667H175V70.8333H170.833Z"
      fill="black"
    />
    <path
      fill-rule="evenodd"
      clip-rule="evenodd"
      d="M179.167 66.6667H183.333V70.8334V75H179.167V70.8334V66.6667Z"
      fill="black"
    />
    <path
      fill-rule="evenodd"
      clip-rule="evenodd"
      d="M195.833 66.6667H200V95.8333H195.833V66.6667Z"
      fill="black"
    />
    <path
      fill-rule="evenodd"
      clip-rule="evenodd"
      d="M8.33334 70.8333H12.5V75H8.33334V70.8333Z"
      fill="black"
    />
    <path
      fill-rule="evenodd"
      clip-rule="evenodd"
      d="M45.8333 75V70.8333H50H54.1667V75H50H45.8333Z"
      fill="black"
    />
    <path
      fill-rule="evenodd"
      clip-rule="evenodd"
      d="M66.6667 75V70.8333H70.8333V75H66.6667Z"
      fill="black"
    />
    <path
      fill-rule="evenodd"
      clip-rule="evenodd"
      d="M129.167 70.8333H133.333H137.5V75H133.333H129.167V70.8333Z"
      fill="black"
    />
    <path
      fill-rule="evenodd"
      clip-rule="evenodd"
      d="M162.5 75V70.8333H166.667H170.833V75H166.667H162.5Z"
      fill="black"
    />
    <path
      fill-rule="evenodd"
      clip-rule="evenodd"
      d="M12.5 75H16.6667V79.1667H12.5V75Z"
      fill="black"
    />
    <path
      fill-rule="evenodd"
      clip-rule="evenodd"
      d="M37.5 79.1667V75H41.6667H45.8333V79.1667H41.6667H37.5Z"
      fill="black"
    />
    <path
      fill-rule="evenodd"
      clip-rule="evenodd"
      d="M58.3333 79.1667V75H62.5H66.6667V79.1667H62.5H58.3333Z"
      fill="black"
    />
    <path
      fill-rule="evenodd"
      clip-rule="evenodd"
      d="M95.8333 79.1667H91.6667V75H95.8333V79.1667Z"
      fill="black"
    />
    <path
      fill-rule="evenodd"
      clip-rule="evenodd"
      d="M137.5 75H162.5V79.1667H158.333H154.167H150H145.833H141.667H137.5V75Z"
      fill="black"
    />
    <path
      fill-rule="evenodd"
      clip-rule="evenodd"
      d="M183.333 75H187.5V79.1667V83.3333V91.6667V95.8333H183.333V75Z"
      fill="black"
    />
    <path
      fill-rule="evenodd"
      clip-rule="evenodd"
      d="M16.6667 79.1667H29.1667H37.5V83.3333H33.3333H29.1667H25H20.8333H16.6667V79.1667Z"
      fill="black"
    />
    <path
      fill-rule="evenodd"
      clip-rule="evenodd"
      d="M50 83.3333V79.1667H54.1667H58.3333V83.3333H54.1667H50Z"
      fill="black"
    />
    <path
      fill-rule="evenodd"
      clip-rule="evenodd"
      d="M95.8333 79.1667H100V83.3333H95.8333V79.1667Z"
      fill="black"
    />
    <path
      fill-rule="evenodd"
      clip-rule="evenodd"
      d="M41.6667 87.5V83.3333H45.8333H50V87.5H45.8333H41.6667Z"
      fill="black"
    />
    <path
      fill-rule="evenodd"
      clip-rule="evenodd"
      d="M100 83.3333H104.167V87.5H100V83.3333Z"
      fill="black"
    />
    <path
      fill-rule="evenodd"
      clip-rule="evenodd"
      d="M116.667 83.3333H120.833V87.5V91.6667H116.667V87.5V83.3333Z"
      fill="black"
    />
    <path
      fill-rule="evenodd"
      clip-rule="evenodd"
      d="M41.6667 87.5V91.6667H37.5H33.3333H29.1667V87.5H41.6667Z"
      fill="black"
    />
    <path
      fill-rule="evenodd"
      clip-rule="evenodd"
      d="M104.167 87.5H108.333V91.6667H104.167V87.5Z"
      fill="black"
    />
    <path
      fill-rule="evenodd"
      clip-rule="evenodd"
      d="M4.16666 91.6667H8.33332V95.8334V100V104.167H4.16666V100V95.8334V91.6667Z"
      fill="black"
    />
    <path
      fill-rule="evenodd"
      clip-rule="evenodd"
      d="M108.333 91.6667H112.5V95.8333H108.333V91.6667Z"
      fill="black"
    />
    <path
      fill-rule="evenodd"
      clip-rule="evenodd"
      d="M120.833 91.6667H125V95.8334V100H120.833V95.8334V91.6667Z"
      fill="black"
    />
    <path
      fill-rule="evenodd"
      clip-rule="evenodd"
      d="M112.5 95.8333H116.667V100V104.167H112.5V100V95.8333Z"
      fill="black"
    />
    <path
      fill-rule="evenodd"
      clip-rule="evenodd"
      d="M179.167 100V95.8333H183.333V100H179.167Z"
      fill="black"
    />
    <path
      fill-rule="evenodd"
      clip-rule="evenodd"
      d="M195.833 95.8333V100V104.167V108.333H191.667V104.167V100V95.8333H195.833Z"
      fill="black"
    />
    <path
      fill-rule="evenodd"
      clip-rule="evenodd"
      d="M125 100H129.167V104.167H125V100Z"
      fill="black"
    />
    <path
      fill-rule="evenodd"
      clip-rule="evenodd"
      d="M175 104.167V100H179.167V104.167H175Z"
      fill="black"
    />
    <path
      fill-rule="evenodd"
      clip-rule="evenodd"
      d="M8.33334 104.167H12.5V108.333V112.5V116.667H8.33334V112.5V108.333V104.167Z"
      fill="black"
    />
    <path
      fill-rule="evenodd"
      clip-rule="evenodd"
      d="M116.667 104.167H120.833V108.333H116.667V104.167Z"
      fill="black"
    />
    <path
      fill-rule="evenodd"
      clip-rule="evenodd"
      d="M129.167 104.167H133.333H137.5V108.333H133.333H129.167V104.167Z"
      fill="black"
    />
    <path
      fill-rule="evenodd"
      clip-rule="evenodd"
      d="M170.833 108.333V104.167H175V108.333H170.833Z"
      fill="black"
    />
    <path
      fill-rule="evenodd"
      clip-rule="evenodd"
      d="M29.1667 112.5V108.333H33.3333V112.5H29.1667Z"
      fill="black"
    />
    <path
      fill-rule="evenodd"
      clip-rule="evenodd"
      d="M120.833 108.333H125V112.5V116.667H120.833V112.5V108.333Z"
      fill="black"
    />
    <path
      fill-rule="evenodd"
      clip-rule="evenodd"
      d="M137.5 108.333H141.667H145.833V112.5H141.667H137.5V108.333Z"
      fill="black"
    />
    <path
      fill-rule="evenodd"
      clip-rule="evenodd"
      d="M162.5 112.5V108.333H166.667H170.833V112.5H166.667H162.5Z"
      fill="black"
    />
    <path
      fill-rule="evenodd"
      clip-rule="evenodd"
      d="M191.667 108.333V112.5V116.667H187.5V112.5V108.333H191.667Z"
      fill="black"
    />
    <path
      fill-rule="evenodd"
      clip-rule="evenodd"
      d="M25 116.667V112.5H29.1667V116.667H25Z"
      fill="black"
    />
    <path
      fill-rule="evenodd"
      clip-rule="evenodd"
      d="M41.6667 116.667V112.5H45.8333H50V116.667H41.6667Z"
      fill="black"
    />
    <path
      fill-rule="evenodd"
      clip-rule="evenodd"
      d="M145.833 112.5H162.5V116.667H158.333H154.167H145.833V112.5Z"
      fill="black"
    />
    <path
      fill-rule="evenodd"
      clip-rule="evenodd"
      d="M12.5 116.667H16.6667V120.833H12.5V116.667Z"
      fill="black"
    />
    <path
      fill-rule="evenodd"
      clip-rule="evenodd"
      d="M20.8333 120.833V116.667H25V120.833H20.8333Z"
      fill="black"
    />
    <path
      fill-rule="evenodd"
      clip-rule="evenodd"
      d="M33.3333 120.833V116.667H37.5H41.6667V120.833H37.5H33.3333Z"
      fill="black"
    />
    <path
      fill-rule="evenodd"
      clip-rule="evenodd"
      d="M50 116.667H54.1667H58.3333V120.833H54.1667H50V116.667Z"
      fill="black"
    />
    <path
      fill-rule="evenodd"
      clip-rule="evenodd"
      d="M125 116.667H129.167V120.833H125V116.667Z"
      fill="black"
    />
    <path
      fill-rule="evenodd"
      clip-rule="evenodd"
      d="M187.5 116.667V120.833V125H183.333V120.833V116.667H187.5Z"
      fill="black"
    />
    <path
      fill-rule="evenodd"
      clip-rule="evenodd"
      d="M16.6667 125V120.833H20.8333V125H16.6667Z"
      fill="black"
    />
    <path
      fill-rule="evenodd"
      clip-rule="evenodd"
      d="M29.1667 125V120.833H33.3333V125H29.1667Z"
      fill="black"
    />
    <path
      fill-rule="evenodd"
      clip-rule="evenodd"
      d="M58.3333 120.833H62.5H66.6667V125H62.5H58.3333V120.833Z"
      fill="black"
    />
    <path
      fill-rule="evenodd"
      clip-rule="evenodd"
      d="M129.167 120.833H133.333H137.5V125H133.333H129.167V120.833Z"
      fill="black"
    />
    <path
      fill-rule="evenodd"
      clip-rule="evenodd"
      d="M12.5 129.167V125H16.6667V129.167H12.5Z"
      fill="black"
    />
    <path
      fill-rule="evenodd"
      clip-rule="evenodd"
      d="M29.1667 125V129.167H33.3333V133.333H29.1667H25V129.167V125H29.1667Z"
      fill="black"
    />
    <path
      fill-rule="evenodd"
      clip-rule="evenodd"
      d="M33.3333 129.167V125H50V129.167H33.3333Z"
      fill="black"
    />
    <path
      fill-rule="evenodd"
      clip-rule="evenodd"
      d="M66.6667 125H70.8334H75V129.167H70.8334H66.6667V125Z"
      fill="black"
    />
    <path
      fill-rule="evenodd"
      clip-rule="evenodd"
      d="M137.5 125H141.667H145.833V129.167H141.667H137.5V125Z"
      fill="black"
    />
    <path
      fill-rule="evenodd"
      clip-rule="evenodd"
      d="M179.167 129.167V125H183.333V129.167H179.167Z"
      fill="black"
    />
    <path
      fill-rule="evenodd"
      clip-rule="evenodd"
      d="M8.33334 133.333V129.167H12.5V133.333H8.33334Z"
      fill="black"
    />
    <path
      fill-rule="evenodd"
      clip-rule="evenodd"
      d="M50 129.167H62.5V133.333H50V129.167Z"
      fill="black"
    />
    <path
      fill-rule="evenodd"
      clip-rule="evenodd"
      d="M75 133.333V129.167H79.1667V133.333H75Z"
      fill="black"
    />
    <path
      fill-rule="evenodd"
      clip-rule="evenodd"
      d="M179.167 129.167V133.333V137.5H175V133.333V129.167H179.167Z"
      fill="black"
    />
    <path
      fill-rule="evenodd"
      clip-rule="evenodd"
      d="M8.33332 133.333V141.667H4.16666V137.5V133.333H8.33332Z"
      fill="black"
    />
    <path
      fill-rule="evenodd"
      clip-rule="evenodd"
      d="M62.5 133.333H75V137.5H62.5V133.333Z"
      fill="black"
    />
    <path
      fill-rule="evenodd"
      clip-rule="evenodd"
      d="M79.1667 133.333H83.3333V137.5V141.667H79.1667H75V137.5H79.1667V133.333Z"
      fill="black"
    />
    <path
      fill-rule="evenodd"
      clip-rule="evenodd"
      d="M170.833 141.667V137.5H175V141.667H170.833Z"
      fill="black"
    />
    <path
      fill-rule="evenodd"
      clip-rule="evenodd"
      d="M8.33334 141.667H12.5V145.833V150H8.33334V145.833V141.667Z"
      fill="black"
    />
    <path
      fill-rule="evenodd"
      clip-rule="evenodd"
      d="M166.667 145.833V141.667H170.833V145.833H166.667Z"
      fill="black"
    />
    <path
      fill-rule="evenodd"
      clip-rule="evenodd"
      d="M162.5 150V145.833H166.667V150H162.5Z"
      fill="black"
    />
    <path
      fill-rule="evenodd"
      clip-rule="evenodd"
      d="M12.5 150H16.6667V154.167H12.5V150Z"
      fill="black"
    />
    <path
      fill-rule="evenodd"
      clip-rule="evenodd"
      d="M158.333 154.167V150H162.5V154.167H158.333Z"
      fill="black"
    />
    <path
      fill-rule="evenodd"
      clip-rule="evenodd"
      d="M16.6667 154.167H20.8333V158.333H16.6667V154.167Z"
      fill="black"
    />
    <path
      fill-rule="evenodd"
      clip-rule="evenodd"
      d="M158.333 154.167V158.333V162.5H154.167V158.333V154.167H158.333Z"
      fill="black"
    />
    <path
      fill-rule="evenodd"
      clip-rule="evenodd"
      d="M20.8333 158.333H25H29.1667V162.5H25H20.8333V158.333Z"
      fill="black"
    />
    <path
      fill-rule="evenodd"
      clip-rule="evenodd"
      d="M133.333 162.5V158.333H137.5H141.667V162.5H137.5H133.333Z"
      fill="black"
    />
    <path
      fill-rule="evenodd"
      clip-rule="evenodd"
      d="M29.1667 162.5H33.3333H37.5H41.6667V166.667H37.5H33.3333H29.1667V162.5Z"
      fill="black"
    />
    <path
      fill-rule="evenodd"
      clip-rule="evenodd"
      d="M120.833 166.667V162.5H125H129.167H133.333V166.667H129.167H125H120.833Z"
      fill="black"
    />
    <path
      fill-rule="evenodd"
      clip-rule="evenodd"
      d="M154.167 162.5V166.667V170.833H150V166.667V162.5H154.167Z"
      fill="black"
    />
    <path
      fill-rule="evenodd"
      clip-rule="evenodd"
      d="M41.6667 166.667H45.8333H50H54.1667V170.833H50H45.8333H41.6667V166.667Z"
      fill="black"
    />
    <path
      fill-rule="evenodd"
      clip-rule="evenodd"
      d="M104.167 170.833V166.667H108.333H112.5H120.833V170.833H116.667H112.5H104.167Z"
      fill="black"
    />
    <path
      fill-rule="evenodd"
      clip-rule="evenodd"
      d="M54.1667 170.833H62.5H100H104.167V175H100H95.8333H91.6667H87.5H83.3333H79.1667H75H70.8333H66.6667V179.167H62.5V175H58.3333H54.1667V170.833Z"
      fill="black"
    />
    <path
      fill-rule="evenodd"
      clip-rule="evenodd"
      d="M150 170.833V175V179.167H145.833V175V170.833H150Z"
      fill="black"
    />
    <path
      fill-rule="evenodd"
      clip-rule="evenodd"
      d="M66.6667 179.167H70.8333V183.333H66.6667V179.167Z"
      fill="black"
    />
    <path
      fill-rule="evenodd"
      clip-rule="evenodd"
      d="M145.833 179.167V183.333V187.5V191.667H141.667V187.5V183.333V179.167H145.833Z"
      fill="black"
    />
    <path
      fill-rule="evenodd"
      clip-rule="evenodd"
      d="M70.8333 183.333H75V187.5H70.8333V183.333Z"
      fill="black"
    />
    <path
      fill-rule="evenodd"
      clip-rule="evenodd"
      d="M75 187.5H79.1667V191.667H75V187.5Z"
      fill="black"
    />
    <path
      fill-rule="evenodd"
      clip-rule="evenodd"
      d="M79.1667 191.667H83.3333V195.833H79.1667V191.667Z"
      fill="black"
    />
    <path
      fill-rule="evenodd"
      clip-rule="evenodd"
      d="M141.667 191.667V200H137.5V195.833V191.667H141.667Z"
      fill="black"
    />
    <path
      fill-rule="evenodd"
      clip-rule="evenodd"
      d="M83.3333 200V195.833H87.5V200H83.3333Z"
      fill="black"
    />
    <path
      fill-rule="evenodd"
      clip-rule="evenodd"
      d="M29.1667 33.3333H33.3333H41.6667V37.5H37.5V41.6667H33.3333H25V37.5H29.1667V33.3333Z"
      fill="#FFFDDC"
    />
    <path
      fill-rule="evenodd"
      clip-rule="evenodd"
      d="M145.833 58.3333V62.5H141.667V66.6667H129.167V62.5H133.333V58.3333H137.5H145.833Z"
      fill="#FFFDDC"
    />
    <path
      fill-rule="evenodd"
      clip-rule="evenodd"
      d="M33.3333 29.1667H54.1667V33.3333H58.3333H62.5V41.6667H58.3333H54.1667V45.8333H50H45.8333H41.6667H37.5H33.3333H29.1667H25H20.8333V41.6667H16.6667V37.5H20.8333H25V41.6667H29.1667H33.3333H37.5V37.5H41.6667V33.3333H37.5H33.3333V29.1667Z"
      fill="#DAD254"
    />
    <path
      fill-rule="evenodd"
      clip-rule="evenodd"
      d="M25 37.5V33.3333H29.1667V37.5H25Z"
      fill="#DAD254"
    />
    <path
      fill-rule="evenodd"
      clip-rule="evenodd"
      d="M166.667 58.3333V62.5H162.5V66.6667H158.333H154.167V70.8333H129.167V66.6667H141.667V62.5H145.833V58.3333H141.667V54.1667H145.833H150H154.167H158.333V58.3333H162.5H166.667Z"
      fill="#DAD254"
    />
    <path
      fill-rule="evenodd"
      clip-rule="evenodd"
      d="M129.167 62.5V58.3333H133.333V62.5H129.167Z"
      fill="#DAD254"
    />
    <path
      fill-rule="evenodd"
      clip-rule="evenodd"
      d="M129.167 62.5V66.6667H125H120.833V62.5H125H129.167Z"
      fill="#DAD254"
    />
    <path
      fill-rule="evenodd"
      clip-rule="evenodd"
      d="M62.5 37.5H66.6667V41.6667V45.8333H62.5V50H58.3333H54.1667V54.1667H50H45.8333H41.6667H37.5H33.3333V50H29.1667H25V45.8333H29.1667H37.5H50H54.1667V41.6667H58.3333H62.5V37.5Z"
      fill="#CB943E"
    />
    <path
      fill-rule="evenodd"
      clip-rule="evenodd"
      d="M175 62.5V66.6667H170.833V70.8333H166.667H162.5V75H137.5V70.8333H141.667H145.833H150H154.167V66.6667H158.333H162.5V62.5H166.667H175Z"
      fill="#CB943E"
    />
    <path
      fill-rule="evenodd"
      clip-rule="evenodd"
      d="M12.5 41.6667H16.6667V45.8333H20.8333V50H25V54.1667H29.1667H33.3333V58.3333H37.5H41.6667H54.1667V62.5H50H45.8333H41.6667V66.6667H37.5H29.1667V62.5H25H20.8333V58.3333H16.6667V62.5H20.8333V66.6667H25V70.8333H29.1667V75H25H20.8333V70.8333H16.6667V66.6667H12.5V62.5H8.33334V50H12.5V45.8333V41.6667Z"
      fill="#4A6846"
    />
    <path
      fill-rule="evenodd"
      clip-rule="evenodd"
      d="M54.1667 58.3333V54.1667H58.3333V58.3333H54.1667Z"
      fill="#4A6846"
    />
    <path
      fill-rule="evenodd"
      clip-rule="evenodd"
      d="M175 70.8334V75V79.1667H170.833V83.3334H166.667H162.5V87.5H158.333H154.167H137.5V83.3334H133.333V79.1667H129.167V83.3334H133.333V87.5H137.5V91.6667H141.667V95.8334H145.833H150H166.667V100H162.5H158.333V104.167H141.667V100H137.5V95.8334H133.333H129.167V91.6667H125V87.5H120.833V83.3334H116.667V79.1667V66.6667H120.833V70.8334H125H129.167V75H133.333H137.5V79.1667H141.667H145.833H150H154.167H158.333H162.5V75H166.667H170.833V70.8334H175Z"
      fill="#4A6846"
    />
    <path
      fill-rule="evenodd"
      clip-rule="evenodd"
      d="M175 70.8333V66.6667H179.167V70.8333H175Z"
      fill="#4A6846"
    />
    <path
      fill-rule="evenodd"
      clip-rule="evenodd"
      d="M166.667 95.8333V91.6667H170.833H175V95.8333H170.833H166.667Z"
      fill="#4A6846"
    />
    <path
      fill-rule="evenodd"
      clip-rule="evenodd"
      d="M62.5 50H66.6667V54.1667V58.3333H62.5V62.5H58.3333V66.6667H54.1667V70.8333H50H45.8333V75H41.6667H37.5V79.1667H33.3333H29.1667H20.8333H16.6667V75H12.5V70.8333H8.33334V62.5H12.5V66.6667H16.6667V70.8333H20.8333V75H25H29.1667V70.8333H25V66.6667H20.8333V62.5H25H29.1667V66.6667H33.3333H37.5H41.6667V62.5H45.8333H50H54.1667V58.3333H58.3333V54.1667H62.5V50Z"
      fill="#2D5727"
    />
    <path
      fill-rule="evenodd"
      clip-rule="evenodd"
      d="M20.8333 62.5H16.6667V58.3333H20.8333V62.5Z"
      fill="#2D5727"
    />
    <path
      fill-rule="evenodd"
      clip-rule="evenodd"
      d="M183.333 75V87.5V95.8333H179.167V100H175V104.167H170.833V108.333H166.667H162.5V112.5H145.833V108.333H141.667H137.5V104.167H133.333H129.167V100H125V95.8333V91.6666H129.167V95.8333H133.333H137.5V100H141.667V104.167H145.833H150H154.167H158.333V100H162.5H166.667V95.8333H170.833H175V91.6666H170.833H166.667V95.8333H150H145.833H141.667V91.6666H137.5V87.5H154.167H158.333H162.5V83.3333H166.667H170.833V79.1666H175V75V70.8333H179.167V75H183.333Z"
      fill="#2D5727"
    />
    <path
      fill-rule="evenodd"
      clip-rule="evenodd"
      d="M133.333 83.3333H129.167V79.1667H133.333V83.3333Z"
      fill="#2D5727"
    />
    <path
      fill-rule="evenodd"
      clip-rule="evenodd"
      d="M133.333 83.3333H137.5V87.5H133.333V83.3333Z"
      fill="#2D5727"
    />
    <path
      fill-rule="evenodd"
      clip-rule="evenodd"
      d="M125 91.6667H120.833V87.5H125V91.6667Z"
      fill="#2D5727"
    />
    <path
      fill-rule="evenodd"
      clip-rule="evenodd"
      d="M41.6667 116.667H50V120.833H54.1667H58.3333V125H62.5H66.6667V129.167H70.8333H75V133.333H70.8333H66.6667H62.5V129.167H58.3333H54.1667H50V125H45.8333H41.6667H33.3333V120.833H37.5H41.6667V116.667Z"
      fill="#841B1B"
    />
    <path
      fill-rule="evenodd"
      clip-rule="evenodd"
      d="M29.1667 129.167V125H33.3333V129.167H29.1667Z"
      fill="#841B1B"
    />
    <path
      fill-rule="evenodd"
      clip-rule="evenodd"
      d="M75 137.5V133.333H79.1667V137.5H75Z"
      fill="#841B1B"
    />
    <path
      fill-rule="evenodd"
      clip-rule="evenodd"
      d="M104.167 4.16667H116.667V8.33334H120.833H125V12.5H129.167H133.333V16.6667H137.5H141.667V20.8333H145.833H150V25H154.167V29.1667H158.333H162.5V33.3333H166.667V37.5H170.833V41.6667H175V45.8333H179.167V50H175H170.833H166.667H162.5V45.8333H158.333H154.167H150H145.833H141.667V41.6667H137.5H133.333H129.167V37.5H125H120.833V33.3333H116.667V29.1667H112.5V25H108.333H104.167H100H95.8333V29.1667H91.6667H87.5H83.3333H79.1667H75H70.8333V25H66.6667H62.5H58.3333V20.8333H62.5H66.6667V16.6667H70.8333H75H79.1667V12.5H83.3333H87.5H91.6667V8.33334H95.8333H100H104.167V4.16667Z"
      fill="#87BD80"
    />
    <path
      fill-rule="evenodd"
      clip-rule="evenodd"
      d="M25 120.833V133.333H33.3333V129.167H50V133.333H62.5V137.5H75V141.667H83.3333V129.167H79.1666V125H75V120.833H66.6666V116.667H58.3333V112.5H50V108.333H41.6667V112.5H33.3333V108.333H37.5V100H29.1667V104.167H12.5V100H8.33332V87.5H4.16666V75H8.33332V83.3333H12.5V87.5H29.1667V91.6667H41.6667V87.5H50V83.3333H58.3333V79.1667H66.6666V75H70.8333V66.6667H75V54.1667H79.1666V50H91.6666V45.8333H100V54.1667H104.167V58.3333H108.333V70.8333H104.167V75H91.6666V79.1667H95.8333V83.3333H100V87.5H104.167V91.6667H108.333V95.8333H112.5V104.167H116.667V108.333H120.833V116.667H125V120.833H129.167V125H137.5V129.167H145.833V125H154.167V133.333H150V137.5H141.667V141.667H129.167V137.5H116.667V133.333H112.5V129.167H108.333V120.833H100V137.5H95.8333V145.833H91.6666V150H87.5V154.167H79.1666V158.333H41.6667V154.167H29.1667V150H20.8333V145.833H16.6667V141.667H8.33332V133.333H12.5V129.167H16.6667V125H20.8333V120.833H25ZM70.8333 95.8333V104.167H79.1666V91.6667H75V95.8333H70.8333V87.5H66.6666V91.6667H58.3333V100H66.6666V95.8333H70.8333ZM58.3333 141.667H50V137.5H29.1667V141.667H33.3333V145.833H41.6667V150H54.1667V145.833H62.5V141.667H58.3333Z"
      fill="#87BD80"
    />
    <path
      fill-rule="evenodd"
      clip-rule="evenodd"
      d="M29.1667 116.667V112.5H33.3333V116.667H29.1667Z"
      fill="#87BD80"
    />
    <path
      fill-rule="evenodd"
      clip-rule="evenodd"
      d="M25 120.833V116.667H29.1667V120.833H25Z"
      fill="#87BD80"
    />
    <path
      fill-rule="evenodd"
      clip-rule="evenodd"
      d="M95.8333 200H87.5V195.833H83.3333V191.667H79.1666V187.5H75V183.333H70.8333V179.167H75H79.1666V183.333H83.3333H87.5V187.5H91.6666V191.667V195.833H95.8333V200Z"
      fill="#87BD80"
    />
    <path
      fill-rule="evenodd"
      clip-rule="evenodd"
      d="M50 20.8333H58.3333V25H70.8333V29.1667H95.8334V25H112.5V29.1667H116.667V33.3333H120.833V37.5H129.167V41.6667H141.667V45.8333H162.5V50H183.333V54.1667H187.5V58.3333H191.667V66.6667H195.833V95.8333H191.667V108.333H187.5V116.667H183.333V125H179.167V129.167H175V137.5H170.833V141.667H166.667V145.833H162.5V150H158.333V154.167H154.167V162.5H150V170.833H145.833V179.167H141.667V191.667H137.5V200H95.8334V195.833H91.6667V187.5H87.5V183.333H79.1667V179.167H66.6667V175H104.167V170.833H120.833V166.667H133.333V162.5H141.667V158.333H133.333V162.5H120.833V166.667H104.167V170.833H54.1667V166.667H41.6667V162.5H29.1667V158.333H20.8333V154.167H16.6667V150H12.5V141.667H16.6667V145.833H20.8333V150H29.1667V154.167H41.6667V158.333H79.1667V154.167H87.5V150H91.6667V145.833H95.8334V137.5H100V120.833H108.333V129.167H112.5V133.333H116.667V137.5H129.167V141.667H141.667V137.5H150V133.333H154.167V125H137.5V120.833H129.167V116.667H125V108.333H120.833V104.167H116.667V95.8333H112.5V91.6667H108.333V87.5H104.167V83.3333H100V79.1667H95.8334V75H104.167V70.8333H108.333V58.3333H104.167V54.1667H100V45.8333H91.6667V50H79.1667V54.1667H75V66.6667H70.8333V70.8333H66.6667V75H58.3333V79.1667H50V83.3333H41.6667V87.5H12.5V83.3333H8.33334V75H12.5V79.1667H16.6667V83.3333H37.5V79.1667H45.8333V75H54.1667V70.8333H58.3333V66.6667H62.5V62.5H66.6667V58.3333H70.8333V37.5H66.6667V33.3333H62.5V29.1667H54.1667V25H50V20.8333ZM95.8334 37.5H87.5V41.6667H75V45.8333H87.5V41.6667H95.8334V37.5H100V33.3333H95.8334V37.5ZM108.333 50V54.1667H112.5V58.3333H116.667V54.1667H112.5V50H108.333V33.3333H104.167V50H108.333ZM137.5 54.1667H129.167V58.3333H120.833V62.5H116.667V66.6667H112.5V83.3333H116.667V91.6667H120.833V100H125V104.167H129.167V108.333H137.5V112.5H145.833V116.667H162.5V112.5H170.833V108.333H175V104.167H179.167V100H183.333V95.8333H187.5V75H183.333V66.6667H179.167V62.5H175V58.3333H166.667V54.1667H158.333V50H141.667V54.1667H137.5Z"
      fill="#5E9758"
    />
    <path
      fill-rule="evenodd"
      clip-rule="evenodd"
      d="M4.16666 75V70.8333H8.33332V75H4.16666Z"
      fill="#5E9758"
    />
    <path
      fill-rule="evenodd"
      clip-rule="evenodd"
      d="M4.16666 91.6667V87.5H8.33332V91.6667H4.16666Z"
      fill="#5E9758"
    />
    <path
      fill-rule="evenodd"
      clip-rule="evenodd"
      d="M70.8333 95.8333H66.6667V100H62.5H58.3333V91.6667H62.5H66.6667V87.5H70.8333V91.6667V95.8333Z"
      fill="#5E9758"
    />
    <path
      fill-rule="evenodd"
      clip-rule="evenodd"
      d="M70.8333 95.8334H75V91.6667H79.1667V95.8334V100V104.167H75H70.8333V100V95.8334Z"
      fill="#5E9758"
    />
    <path
      fill-rule="evenodd"
      clip-rule="evenodd"
      d="M12.5 104.167H8.33334V100H12.5V104.167Z"
      fill="#5E9758"
    />
    <path
      fill-rule="evenodd"
      clip-rule="evenodd"
      d="M12.5 104.167H16.6667H20.8333H25H29.1667V100H33.3333H37.5V108.333H33.3333H29.1667V112.5H25V116.667H20.8333V120.833H16.6667V116.667H12.5V112.5V108.333V104.167Z"
      fill="#5E9758"
    />
    <path
      fill-rule="evenodd"
      clip-rule="evenodd"
      d="M41.6667 112.5V108.333H45.8333H50V112.5H41.6667Z"
      fill="#5E9758"
    />
    <path
      fill-rule="evenodd"
      clip-rule="evenodd"
      d="M33.3333 116.667V112.5H37.5H41.6667V116.667H37.5H33.3333Z"
      fill="#5E9758"
    />
    <path
      fill-rule="evenodd"
      clip-rule="evenodd"
      d="M50 112.5H54.1667H58.3333V116.667H54.1667H50V112.5Z"
      fill="#5E9758"
    />
    <path
      fill-rule="evenodd"
      clip-rule="evenodd"
      d="M29.1667 120.833V116.667H33.3333V120.833H29.1667Z"
      fill="#5E9758"
    />
    <path
      fill-rule="evenodd"
      clip-rule="evenodd"
      d="M58.3333 116.667H62.5H66.6667V120.833H62.5H58.3333V116.667Z"
      fill="#5E9758"
    />
    <path
      fill-rule="evenodd"
      clip-rule="evenodd"
      d="M29.1667 120.833V125H25V120.833H29.1667Z"
      fill="#5E9758"
    />
    <path
      fill-rule="evenodd"
      clip-rule="evenodd"
      d="M66.6667 120.833H70.8334H75V125H70.8334H66.6667V120.833Z"
      fill="#5E9758"
    />
    <path
      fill-rule="evenodd"
      clip-rule="evenodd"
      d="M75 125H79.1667V129.167H75V125Z"
      fill="#5E9758"
    />
    <path
      fill-rule="evenodd"
      clip-rule="evenodd"
      d="M79.1667 129.167H83.3333V133.333H79.1667V129.167Z"
      fill="#5E9758"
    />
    <path
      fill-rule="evenodd"
      clip-rule="evenodd"
      d="M62.5 141.667V145.833H58.3333H54.1667V150H50H45.8333H41.6667V145.833H37.5H33.3333V141.667H29.1667V137.5H33.3333H37.5H41.6667H45.8333H50V141.667H54.1667H58.3333H62.5Z"
      fill="#5E9758"
    />
  </g>
  <defs>
    <clipPath id="clip0">
      <rect width="200" height="200" fill="white" />
    </clipPath>
  </defs>
</svg>
