<svg width="161" height="161" viewBox="0 0 161 161" fill="none" xmlns="http://www.w3.org/2000/svg">
<path fill-rule="evenodd" clip-rule="evenodd" d="M57.021 0H67.0835V3.35417H63.7293V6.70833H60.3752V3.35417H57.021V0Z" fill="black"/>
<path fill-rule="evenodd" clip-rule="evenodd" d="M83.854 0H90.5623V3.35417H87.2082V6.70833V10.0625V13.4167H83.854H80.4998H77.1457V10.0625H73.7915V6.70833H77.1457H80.4998V10.0625H83.854V6.70833V0Z" fill="black"/>
<path fill-rule="evenodd" clip-rule="evenodd" d="M67.0835 6.70835V3.35419H70.4377H73.7918V6.70835H67.0835Z" fill="black"/>
<path fill-rule="evenodd" clip-rule="evenodd" d="M90.5625 3.35419H93.9167V6.70835V10.0625H90.5625V6.70835V3.35419Z" fill="black"/>
<path fill-rule="evenodd" clip-rule="evenodd" d="M100.625 6.70835V3.35419H103.979H107.333V10.0625V13.4167H103.979V10.0625V6.70835H100.625Z" fill="black"/>
<path fill-rule="evenodd" clip-rule="evenodd" d="M63.729 6.70831H67.0832V10.0625H63.729V6.70831Z" fill="black"/>
<path fill-rule="evenodd" clip-rule="evenodd" d="M97.271 10.0625V6.70831H100.625V10.0625H97.271Z" fill="black"/>
<path fill-rule="evenodd" clip-rule="evenodd" d="M67.0833 10.0625H70.4375V16.7708H60.375H57.0208H53.6667V20.125H50.3125V13.4167H53.6667H57.0208H60.375H63.7292H67.0833V10.0625Z" fill="black"/>
<path fill-rule="evenodd" clip-rule="evenodd" d="M93.9165 10.0625H97.2707V13.4167V16.7708H93.9165V13.4167V10.0625Z" fill="black"/>
<path fill-rule="evenodd" clip-rule="evenodd" d="M103.979 13.4167V16.7709V20.125H100.625V16.7709V13.4167H103.979Z" fill="black"/>
<path fill-rule="evenodd" clip-rule="evenodd" d="M53.6665 20.125H63.729H67.0832V23.4792H53.6665V20.125Z" fill="black"/>
<path fill-rule="evenodd" clip-rule="evenodd" d="M100.625 20.125V26.8333V30.1875H97.2707H93.9165V26.8333H97.2707V23.4792V20.125H100.625Z" fill="black"/>
<path fill-rule="evenodd" clip-rule="evenodd" d="M67.0835 23.4792H70.4377H73.7918H77.146V26.8334H67.0835V23.4792Z" fill="black"/>
<path fill-rule="evenodd" clip-rule="evenodd" d="M83.854 26.8334V23.4792H87.2082H90.5623H93.9165V26.8334H83.854Z" fill="black"/>
<path fill-rule="evenodd" clip-rule="evenodd" d="M77.146 30.1875V26.8333H83.8544V30.1875H80.5002H77.146Z" fill="black"/>
<path fill-rule="evenodd" clip-rule="evenodd" d="M70.4375 33.5417V30.1875H73.7917H77.1458V33.5417H73.7917H70.4375Z" fill="black"/>
<path fill-rule="evenodd" clip-rule="evenodd" d="M100.625 30.1875H103.979V33.5417H100.625V30.1875Z" fill="black"/>
<path fill-rule="evenodd" clip-rule="evenodd" d="M67.0835 36.8959V33.5417H70.4377V36.8959H67.0835Z" fill="black"/>
<path fill-rule="evenodd" clip-rule="evenodd" d="M103.979 33.5417H107.333V36.8959H103.979V33.5417Z" fill="black"/>
<path fill-rule="evenodd" clip-rule="evenodd" d="M67.0832 36.8958V43.6041V53.6666H63.729V50.3125V46.9583V36.8958H67.0832Z" fill="black"/>
<path fill-rule="evenodd" clip-rule="evenodd" d="M70.4375 36.8958H73.7917H77.1458V40.25V43.6041V46.9583H70.4375V43.6041H73.7917V40.25H70.4375V36.8958Z" fill="black"/>
<path fill-rule="evenodd" clip-rule="evenodd" d="M93.9168 40.25V46.9583H87.2085V43.6041H90.5627V40.25H87.2085V36.8958H90.5627H93.9168V40.25Z" fill="black"/>
<path fill-rule="evenodd" clip-rule="evenodd" d="M107.333 36.8958H110.688V40.25V43.6041H107.333V40.25V36.8958Z" fill="black"/>
<path fill-rule="evenodd" clip-rule="evenodd" d="M0 43.6042H13.4167H23.4792H26.8333V46.9584H20.125H10.0625H6.70833H3.35417V50.3125H0V43.6042Z" fill="black"/>
<path fill-rule="evenodd" clip-rule="evenodd" d="M110.688 43.6042H114.042V46.9584V50.3125V53.6667H110.688V50.3125V46.9584V43.6042Z" fill="black"/>
<path fill-rule="evenodd" clip-rule="evenodd" d="M26.8335 46.9583H30.1877H33.5418V50.3125H30.1877H26.8335V46.9583Z" fill="black"/>
<path fill-rule="evenodd" clip-rule="evenodd" d="M3.354 50.3125H6.70817V53.6667H3.354V50.3125Z" fill="black"/>
<path fill-rule="evenodd" clip-rule="evenodd" d="M33.5415 50.3125H36.8957V53.6667V57.0208H33.5415V53.6667V50.3125Z" fill="black"/>
<path fill-rule="evenodd" clip-rule="evenodd" d="M87.2082 63.7292V53.6667H77.1457V63.7292H73.7915V60.375V57.0208V50.3125H80.4998H90.5623V63.7292H87.2082Z" fill="black"/>
<path fill-rule="evenodd" clip-rule="evenodd" d="M6.7085 53.6667H10.0627H13.4168V57.0209H10.0627H6.7085V53.6667Z" fill="black"/>
<path fill-rule="evenodd" clip-rule="evenodd" d="M67.0835 53.6667H70.4377V57.0209V60.375V67.0834H67.0835V63.7292V60.375V53.6667Z" fill="black"/>
<path fill-rule="evenodd" clip-rule="evenodd" d="M114.042 53.6667H117.396V57.0209V60.375V63.7292V67.0834V70.4375V73.7917H114.042V53.6667Z" fill="black"/>
<path fill-rule="evenodd" clip-rule="evenodd" d="M13.4165 57.0208H16.7707H20.1248V60.375H16.7707H13.4165V57.0208Z" fill="black"/>
<path fill-rule="evenodd" clip-rule="evenodd" d="M36.896 60.375V57.0208H40.2502H43.6043V60.375H36.896Z" fill="black"/>
<path fill-rule="evenodd" clip-rule="evenodd" d="M20.125 60.375H26.8333H36.8958V63.7292H33.5417H30.1875H26.8333H23.4792H20.125V60.375Z" fill="black"/>
<path fill-rule="evenodd" clip-rule="evenodd" d="M43.604 63.7292V60.375H46.9582H50.3123V63.7292H43.604Z" fill="black"/>
<path fill-rule="evenodd" clip-rule="evenodd" d="M36.896 63.7292H43.6043V67.0833H40.2502H36.896V63.7292Z" fill="black"/>
<path fill-rule="evenodd" clip-rule="evenodd" d="M50.3125 67.0833V63.7292H53.6667H57.0208V67.0833H50.3125Z" fill="black"/>
<path fill-rule="evenodd" clip-rule="evenodd" d="M77.146 63.7292H87.2085V67.0833H83.8543H80.5002H77.146V63.7292Z" fill="black"/>
<path fill-rule="evenodd" clip-rule="evenodd" d="M43.604 67.0833H50.3123V70.4375H46.9582H43.604V67.0833Z" fill="black"/>
<path fill-rule="evenodd" clip-rule="evenodd" d="M57.021 70.4375V67.0833H60.3752H63.7293V70.4375H57.021Z" fill="black"/>
<path fill-rule="evenodd" clip-rule="evenodd" d="M70.4373 67.0833H73.7915V70.4375V73.7917H63.729V70.4375H67.0832H70.4373V67.0833Z" fill="black"/>
<path fill-rule="evenodd" clip-rule="evenodd" d="M50.3125 70.4375H57.0208V73.7917H53.6667H50.3125V70.4375Z" fill="black"/>
<path fill-rule="evenodd" clip-rule="evenodd" d="M57.021 73.7917H63.7293V80.5H60.3752V77.1459H57.021V73.7917Z" fill="black"/>
<path fill-rule="evenodd" clip-rule="evenodd" d="M73.7918 73.7917H77.146V77.1459H80.5002H83.8544V80.5H80.5002H77.146V83.8542H80.5002H83.8544V87.2083H73.7918V93.9167H70.4377V90.5625V87.2083H67.0835V83.8542H70.4377H73.7918V80.5V77.1459V73.7917Z" fill="black"/>
<path fill-rule="evenodd" clip-rule="evenodd" d="M114.042 73.7917V77.1459V80.5H117.396V83.8542H107.333V80.5H110.688V77.1459V73.7917H114.042Z" fill="black"/>
<path fill-rule="evenodd" clip-rule="evenodd" d="M60.3752 80.5V90.5625H57.021V87.2083V83.8542V80.5H60.3752Z" fill="black"/>
<path fill-rule="evenodd" clip-rule="evenodd" d="M63.729 80.5H67.0832V83.8542H63.729V80.5Z" fill="black"/>
<path fill-rule="evenodd" clip-rule="evenodd" d="M83.854 83.8542V80.5H87.2082H90.5623V83.8542H83.854Z" fill="black"/>
<path fill-rule="evenodd" clip-rule="evenodd" d="M90.5625 87.2083V83.8542H93.9167H97.2708V87.2083H90.5625Z" fill="black"/>
<path fill-rule="evenodd" clip-rule="evenodd" d="M117.396 83.8542H120.75H124.104V87.2083H120.75H117.396V83.8542Z" fill="black"/>
<path fill-rule="evenodd" clip-rule="evenodd" d="M83.854 87.2084H90.5623V90.5625H87.2082H83.854V87.2084Z" fill="black"/>
<path fill-rule="evenodd" clip-rule="evenodd" d="M97.271 90.5625V87.2084H100.625H103.979V90.5625H97.271Z" fill="black"/>
<path fill-rule="evenodd" clip-rule="evenodd" d="M124.104 87.2084H127.458V90.5625V93.9167H130.812V97.2709H120.75V107.333H117.396V103.979H114.042H110.687V107.333V114.042H107.333V103.979V100.625H103.979V97.2709H110.687V100.625H114.042H117.396V97.2709H114.042H110.687V93.9167H120.75H124.104V90.5625V87.2084Z" fill="black"/>
<path fill-rule="evenodd" clip-rule="evenodd" d="M60.375 90.5625H63.7292V93.9167H60.375V90.5625Z" fill="black"/>
<path fill-rule="evenodd" clip-rule="evenodd" d="M90.5625 90.5625H97.2708V93.9167H93.9167H90.5625V90.5625Z" fill="black"/>
<path fill-rule="evenodd" clip-rule="evenodd" d="M103.979 93.9167V90.5625H107.333H110.687V93.9167H103.979Z" fill="black"/>
<path fill-rule="evenodd" clip-rule="evenodd" d="M63.729 93.9166H70.4373V97.2708V100.625H67.0832V97.2708H63.729V93.9166Z" fill="black"/>
<path fill-rule="evenodd" clip-rule="evenodd" d="M97.271 93.9166H103.979V97.2708H100.625H97.271V93.9166Z" fill="black"/>
<path fill-rule="evenodd" clip-rule="evenodd" d="M130.812 97.2709H134.167V100.625V103.979H137.521V107.333H130.812V97.2709Z" fill="black"/>
<path fill-rule="evenodd" clip-rule="evenodd" d="M67.0832 100.625V103.979V107.333H63.729V103.979V100.625H67.0832Z" fill="black"/>
<path fill-rule="evenodd" clip-rule="evenodd" d="M60.375 110.688V107.333H63.7292V110.688H60.375Z" fill="black"/>
<path fill-rule="evenodd" clip-rule="evenodd" d="M120.75 107.333H130.812V110.688H120.75V107.333Z" fill="black"/>
<path fill-rule="evenodd" clip-rule="evenodd" d="M137.521 110.688V107.333H140.875H144.229V110.688H137.521Z" fill="black"/>
<path fill-rule="evenodd" clip-rule="evenodd" d="M60.3752 110.688V114.042V117.396H57.021V114.042V110.688H60.3752Z" fill="black"/>
<path fill-rule="evenodd" clip-rule="evenodd" d="M130.812 110.688H137.521V114.042H134.167H130.812V110.688Z" fill="black"/>
<path fill-rule="evenodd" clip-rule="evenodd" d="M144.229 114.042V110.688H147.583H150.937V114.042H144.229Z" fill="black"/>
<path fill-rule="evenodd" clip-rule="evenodd" d="M107.333 114.042V117.396V120.75V124.104H103.979V120.75V117.396V114.042H107.333Z" fill="black"/>
<path fill-rule="evenodd" clip-rule="evenodd" d="M137.521 114.042H144.229V117.396H140.875H137.521V114.042Z" fill="black"/>
<path fill-rule="evenodd" clip-rule="evenodd" d="M150.938 117.396V114.042H154.292H157.646V117.396H150.938Z" fill="black"/>
<path fill-rule="evenodd" clip-rule="evenodd" d="M46.9585 120.75V117.396H50.3127H53.6668H57.021V130.813H53.6668V127.458V124.104V120.75H46.9585Z" fill="black"/>
<path fill-rule="evenodd" clip-rule="evenodd" d="M144.229 117.396H150.937V120.75H147.583H144.229V117.396Z" fill="black"/>
<path fill-rule="evenodd" clip-rule="evenodd" d="M157.646 117.396H161V124.104H157.646H154.292H150.938V120.75H154.292H157.646V117.396Z" fill="black"/>
<path fill-rule="evenodd" clip-rule="evenodd" d="M43.604 124.104V120.75H46.9582V124.104H43.604Z" fill="black"/>
<path fill-rule="evenodd" clip-rule="evenodd" d="M90.5625 124.104V120.75H93.9167H97.2708H100.625V124.104H90.5625Z" fill="black"/>
<path fill-rule="evenodd" clip-rule="evenodd" d="M43.6042 124.104V137.521H40.25V134.167V130.812V127.458V124.104H43.6042Z" fill="black"/>
<path fill-rule="evenodd" clip-rule="evenodd" d="M87.2085 127.458V124.104H90.5627V127.458H87.2085Z" fill="black"/>
<path fill-rule="evenodd" clip-rule="evenodd" d="M100.625 124.104H103.979V130.812H100.625V127.458V124.104Z" fill="black"/>
<path fill-rule="evenodd" clip-rule="evenodd" d="M87.2082 127.458V130.813V134.167H83.854V130.813V127.458H87.2082Z" fill="black"/>
<path fill-rule="evenodd" clip-rule="evenodd" d="M57.021 130.812H60.3752V134.167H57.021V130.812Z" fill="black"/>
<path fill-rule="evenodd" clip-rule="evenodd" d="M103.979 130.812H107.333V134.167V137.521V140.875V144.229V147.583H103.979V137.521V130.812Z" fill="black"/>
<path fill-rule="evenodd" clip-rule="evenodd" d="M60.375 134.167H63.7292H67.0833H70.4375V137.521H67.0833H63.7292V140.875H60.375V137.521V134.167Z" fill="black"/>
<path fill-rule="evenodd" clip-rule="evenodd" d="M83.8542 134.167V144.229H80.5V140.875H77.1458H73.7917H70.4375V137.521H73.7917H77.1458H80.5V134.167H83.8542Z" fill="black"/>
<path fill-rule="evenodd" clip-rule="evenodd" d="M43.604 137.521H46.9582V140.875H43.604V137.521Z" fill="black"/>
<path fill-rule="evenodd" clip-rule="evenodd" d="M46.9585 140.875H50.3127V144.229H46.9585V140.875Z" fill="black"/>
<path fill-rule="evenodd" clip-rule="evenodd" d="M63.7292 140.875H67.0833V144.229V147.583V150.938V157.646H60.375V154.292H63.7292V150.938V140.875Z" fill="black"/>
<path fill-rule="evenodd" clip-rule="evenodd" d="M50.3125 144.229H53.6667H57.0208H60.375V147.583V150.937V154.292H57.0208V150.937V147.583H53.6667H50.3125V144.229Z" fill="black"/>
<path fill-rule="evenodd" clip-rule="evenodd" d="M83.854 144.229H87.2082V147.583H83.854V144.229Z" fill="black"/>
<path fill-rule="evenodd" clip-rule="evenodd" d="M87.2085 147.583H90.5627V150.938H93.9168H97.271V154.292H93.9168H87.2085V147.583Z" fill="black"/>
<path fill-rule="evenodd" clip-rule="evenodd" d="M103.979 147.583V161H83.854V157.646V154.292H87.2082V157.646H90.5623H93.9165H97.2707H100.625V154.292V150.938V147.583H103.979Z" fill="black"/>
<path fill-rule="evenodd" clip-rule="evenodd" d="M63.729 3.35419H67.0832V6.70835H63.729V3.35419Z" fill="#BD3539"/>
<path fill-rule="evenodd" clip-rule="evenodd" d="M87.2082 3.35419H90.5623V6.70835V10.0625H93.9165V13.4167V16.7709H97.2707V13.4167V10.0625H100.625V6.70835H103.979V13.4167H100.625V16.7709V20.125H97.2707V23.4792V26.8334H93.9165V23.4792H90.5623H87.2082H83.854V26.8334H77.1457V23.4792H73.7915H70.4373H67.0832V20.125H63.729H57.0207H53.6665V16.7709H57.0207H70.4373V13.4167V10.0625H67.0832V6.70835H70.4373H73.7915V10.0625H77.1457V13.4167H80.4998H83.854H87.2082V10.0625V3.35419Z" fill="#BD3539"/>
<path fill-rule="evenodd" clip-rule="evenodd" d="M73.7917 40.25V43.6042H70.4375V40.25H73.7917Z" fill="#FAFAFA"/>
<path fill-rule="evenodd" clip-rule="evenodd" d="M87.2085 43.6042V40.25H90.5627V43.6042H87.2085Z" fill="#FAFAFA"/>
<path fill-rule="evenodd" clip-rule="evenodd" d="M77.146 53.6667H80.5002H83.8543H87.2085V57.0209H83.8543H80.5002H77.146V53.6667Z" fill="#FAECE3"/>
<path fill-rule="evenodd" clip-rule="evenodd" d="M77.146 57.0208H80.5002H87.2085V63.7291H83.8543H77.146V60.375V57.0208Z" fill="#7A2F2F"/>
<path fill-rule="evenodd" clip-rule="evenodd" d="M3.354 50.3125V46.9583H6.70817H10.0623H13.4165H16.7707H26.8332V50.3125H30.1873H33.5415V57.0208H36.8957V60.375H33.5415H30.1873H26.8332H23.479H20.1248V57.0208H16.7707H13.4165V53.6666H10.0623H6.70817V50.3125H3.354Z" fill="#D7D1C5"/>
<path fill-rule="evenodd" clip-rule="evenodd" d="M36.896 63.7292V60.375H40.2502H43.6043V63.7292H40.2502H36.896Z" fill="#959595"/>
<path fill-rule="evenodd" clip-rule="evenodd" d="M43.604 63.7292H46.9582H50.3123V67.0833H46.9582H43.604V63.7292Z" fill="#959595"/>
<path fill-rule="evenodd" clip-rule="evenodd" d="M50.3125 67.0833H53.6667H57.0208V70.4375H53.6667H50.3125V67.0833Z" fill="#959595"/>
<path fill-rule="evenodd" clip-rule="evenodd" d="M57.021 70.4375H60.3752H63.7293V73.7917H60.3752H57.021V70.4375Z" fill="#959595"/>
<path fill-rule="evenodd" clip-rule="evenodd" d="M83.8544 83.8542H77.146V80.5H80.5002H83.8544V83.8542Z" fill="#959595"/>
<path fill-rule="evenodd" clip-rule="evenodd" d="M83.854 83.8542H87.2082H90.5623V87.2083H87.2082H83.854V83.8542Z" fill="#959595"/>
<path fill-rule="evenodd" clip-rule="evenodd" d="M90.5625 87.2084H93.9167H97.2708V90.5625H93.9167H90.5625V87.2084Z" fill="#959595"/>
<path fill-rule="evenodd" clip-rule="evenodd" d="M97.271 90.5625H100.625H103.979V93.9167H100.625H97.271V90.5625Z" fill="#959595"/>
<path fill-rule="evenodd" clip-rule="evenodd" d="M103.979 93.9166H107.333H110.687V97.2708H107.333H103.979V93.9166Z" fill="#959595"/>
<path fill-rule="evenodd" clip-rule="evenodd" d="M110.688 97.2709H117.396V100.625H114.042H110.688V97.2709Z" fill="#959595"/>
<path fill-rule="evenodd" clip-rule="evenodd" d="M137.521 110.688H134.167H130.812V107.333H134.167H137.521V110.688Z" fill="#959595"/>
<path fill-rule="evenodd" clip-rule="evenodd" d="M137.521 110.688H140.875H144.229V114.042H140.875H137.521V110.688Z" fill="#959595"/>
<path fill-rule="evenodd" clip-rule="evenodd" d="M144.229 114.042H147.583H150.937V117.396H147.583H144.229V114.042Z" fill="#959595"/>
<path fill-rule="evenodd" clip-rule="evenodd" d="M150.938 120.75V117.396H157.646V120.75H154.292H150.938Z" fill="#959595"/>
<path fill-rule="evenodd" clip-rule="evenodd" d="M77.1457 40.25H87.2082V43.6042V46.9583H90.5623V50.3125H80.4998H73.7915V46.9583H77.1457V43.6042V40.25Z" fill="#C1ED32"/>
<path fill-rule="evenodd" clip-rule="evenodd" d="M93.9165 73.7917V83.8542H90.5623V80.5H87.2082H83.854V77.1459H80.4998H77.1457V73.7917H73.7915V63.7292H77.1457V67.0834H80.4998H83.854H87.2082V63.7292H90.5623V67.0834V70.4375V73.7917H93.9165Z" fill="#C1ED32"/>
<path fill-rule="evenodd" clip-rule="evenodd" d="M93.9167 93.9167V97.2709H90.5625V100.625V103.979V107.333H87.2083V110.688V114.042H83.8542V117.396V120.75H80.5V124.104V127.458V137.521H70.4375V134.167H67.0833H63.7292H60.375V124.104H63.7292V120.75V117.396V114.042H67.0833V110.688H70.4375V107.333H73.7917V103.979V100.625H77.1458V97.2709V87.2084H80.5H83.8542V90.5625H87.2083H90.5625V93.9167H93.9167Z" fill="#C1ED32"/>
<path fill-rule="evenodd" clip-rule="evenodd" d="M80.5 30.1875H83.8542V33.5417H80.5V30.1875Z" fill="#1C853D"/>
<path fill-rule="evenodd" clip-rule="evenodd" d="M100.625 40.25H103.979V43.6042V46.9583V50.3125H100.625V40.25Z" fill="#1C853D"/>
<path fill-rule="evenodd" clip-rule="evenodd" d="M100.625 60.375H103.979V63.7292V67.0833H100.625V63.7292V60.375Z" fill="#1C853D"/>
<path fill-rule="evenodd" clip-rule="evenodd" d="M63.729 87.2084H67.0832V90.5625V93.9167H63.729V90.5625V87.2084Z" fill="#1C853D"/>
<path fill-rule="evenodd" clip-rule="evenodd" d="M114.042 87.2084V93.9167H110.688V90.5625V87.2084H114.042Z" fill="#1C853D"/>
<path fill-rule="evenodd" clip-rule="evenodd" d="M97.271 110.687V107.333V103.979H100.625V107.333V110.687H97.271Z" fill="#1C853D"/>
<path fill-rule="evenodd" clip-rule="evenodd" d="M46.9585 134.167V130.812H50.3127V134.167H46.9585Z" fill="#1C853D"/>
<path fill-rule="evenodd" clip-rule="evenodd" d="M50.3125 134.167H53.6667V137.521H50.3125V134.167Z" fill="#1C853D"/>
<path fill-rule="evenodd" clip-rule="evenodd" d="M93.9167 140.875H90.5625V134.167H93.9167V137.521V140.875Z" fill="#1C853D"/>
<path fill-rule="evenodd" clip-rule="evenodd" d="M83.8542 26.8333H93.9167V30.1875H100.625V33.5416H103.979V36.8958H107.333V43.6041H110.687V53.6666H114.042V73.7916H110.687V80.5H107.333V83.8541H117.396V87.2083H124.104V93.9166H114.042V87.2083H110.687V90.5625H103.979V87.2083H97.2708V83.8541H93.9167V73.7916H90.5625V46.9583H93.9167V36.8958H87.2083V40.25H77.1458V36.8958H70.4375V33.5416H77.1458V30.1875H80.5V33.5416H83.8542V26.8333ZM100.625 50.3125H103.979V40.25H100.625V50.3125ZM100.625 63.7291V67.0833H103.979V60.375H100.625V63.7291Z" fill="#27BB55"/>
<path fill-rule="evenodd" clip-rule="evenodd" d="M70.4377 36.8958V40.25V43.6041V46.9583H73.7918V50.3125V53.6666V67.0833H70.4377V63.7291V60.375V57.0208V53.6666H67.0835V50.3125V36.8958H70.4377Z" fill="#27BB55"/>
<path fill-rule="evenodd" clip-rule="evenodd" d="M67.0832 83.8542V80.5H63.729V73.7917H67.0832H73.7915V83.8542H67.0832Z" fill="#27BB55"/>
<path fill-rule="evenodd" clip-rule="evenodd" d="M63.7292 80.5V83.8542H67.0833V87.2083H63.7292V90.5625H60.375V83.8542V80.5H63.7292Z" fill="#27BB55"/>
<path fill-rule="evenodd" clip-rule="evenodd" d="M67.0835 87.2084H70.4377V90.5625V93.9167H67.0835V90.5625V87.2084Z" fill="#27BB55"/>
<path fill-rule="evenodd" clip-rule="evenodd" d="M57.021 130.813V120.75V117.396H60.3752V114.042V110.688H63.7293V107.333H67.0835V103.979V100.625H70.4377V97.2709V93.9167H73.7918V90.5625V87.2084H77.146V90.5625V100.625H73.7918V103.979V107.333H70.4377V110.688H67.0835V114.042H63.7293V117.396V120.75V124.104H60.3752V127.458V130.813H57.021Z" fill="#27BB55"/>
<path fill-rule="evenodd" clip-rule="evenodd" d="M100.625 124.104V120.75H90.5625V124.104H87.2083V127.458H83.8542V134.167H80.5V120.75H83.8542V114.042H87.2083V107.333H90.5625V97.2708H93.9167V93.9166H97.2708V97.2708H103.979V100.625H107.333V114.042H103.979V124.104H100.625ZM97.2708 107.333V110.687H100.625V103.979H97.2708V107.333Z" fill="#27BB55"/>
<path fill-rule="evenodd" clip-rule="evenodd" d="M130.812 97.2709V107.333H120.75V97.2709H130.812Z" fill="#27BB55"/>
<path fill-rule="evenodd" clip-rule="evenodd" d="M57.0207 130.812V134.167H60.3748V140.875H63.729V154.292H60.3748V144.229H50.3123V140.875H46.9582V137.521H43.604V124.104H46.9582V120.75H53.6665V130.812H57.0207ZM50.3123 134.167V137.521H53.6665V134.167H50.3123V130.812H46.9582V134.167H50.3123Z" fill="#27BB55"/>
<path fill-rule="evenodd" clip-rule="evenodd" d="M90.5623 124.104H100.625V130.812H103.979V147.583H100.625V157.646H87.2082V154.292H97.2707V150.937H90.5623V147.583H87.2082V144.229H83.854V134.167H87.2082V127.458H90.5623V124.104ZM90.5623 137.521V140.875H93.9165V134.167H90.5623V137.521Z" fill="#27BB55"/>
</svg>
