<svg width="122" height="183" viewBox="0 0 122 183" fill="none" xmlns="http://www.w3.org/2000/svg">
<path fill-rule="evenodd" clip-rule="evenodd" d="M34.3125 3.8125V0H38.125V3.8125H34.3125Z" fill="black"/>
<path fill-rule="evenodd" clip-rule="evenodd" d="M34.3125 3.8125V19.0625H38.125V22.875V26.6875V30.5H34.3125V26.6875V22.875H30.5V19.0625V15.25V11.4375V7.625V3.8125H34.3125Z" fill="black"/>
<path fill-rule="evenodd" clip-rule="evenodd" d="M38.125 3.8125H41.9375V7.625V11.4375H38.125V7.625V3.8125Z" fill="black"/>
<path fill-rule="evenodd" clip-rule="evenodd" d="M41.9375 11.4375H45.75V15.25H41.9375V11.4375Z" fill="black"/>
<path fill-rule="evenodd" clip-rule="evenodd" d="M45.75 19.0625V15.25H49.5625V19.0625H45.75Z" fill="black"/>
<path fill-rule="evenodd" clip-rule="evenodd" d="M45.75 19.0625V22.875V30.5H41.9375V26.6875V22.875V19.0625H45.75Z" fill="black"/>
<path fill-rule="evenodd" clip-rule="evenodd" d="M61 30.5V26.6875H64.8125H68.625H72.4375H76.25V30.5H61Z" fill="black"/>
<path fill-rule="evenodd" clip-rule="evenodd" d="M38.125 30.5H41.9375V41.9375H38.125V38.125V34.3125V30.5Z" fill="black"/>
<path fill-rule="evenodd" clip-rule="evenodd" d="M45.75 30.5H49.5625V34.3125V38.125V41.9375H45.75V30.5Z" fill="black"/>
<path fill-rule="evenodd" clip-rule="evenodd" d="M61 30.5V34.3125H64.8125H68.625V38.125H57.1875V49.5625H53.375V53.375H49.5625V41.9375H53.375V38.125V34.3125H57.1875V30.5H61Z" fill="black"/>
<path fill-rule="evenodd" clip-rule="evenodd" d="M76.25 34.3125V30.5H80.0625V34.3125H76.25Z" fill="black"/>
<path fill-rule="evenodd" clip-rule="evenodd" d="M72.4375 38.125V34.3125H76.25V38.125H72.4375Z" fill="black"/>
<path fill-rule="evenodd" clip-rule="evenodd" d="M80.0625 34.3125H83.875V38.125V41.9375V45.75V49.5625V53.375H80.0625V49.5625V45.75V41.9375H76.25V38.125H80.0625V34.3125Z" fill="black"/>
<path fill-rule="evenodd" clip-rule="evenodd" d="M68.625 41.9375V38.125H72.4375V41.9375H68.625Z" fill="black"/>
<path fill-rule="evenodd" clip-rule="evenodd" d="M41.9375 41.9375H45.75V53.375H41.9375V49.5625V45.75V41.9375Z" fill="black"/>
<path fill-rule="evenodd" clip-rule="evenodd" d="M64.8125 45.75V41.9375H68.625V45.75H64.8125Z" fill="black"/>
<path fill-rule="evenodd" clip-rule="evenodd" d="M72.4375 41.9375H76.25V45.75V49.5625V53.375H80.0625V57.1875H72.4375V53.375H68.625H57.1875V49.5625H61V45.75H64.8125V49.5625H68.625H72.4375V45.75V41.9375Z" fill="black"/>
<path fill-rule="evenodd" clip-rule="evenodd" d="M15.25 53.375H11.4375V57.1875V61H7.625V57.1875V53.375V49.5625H11.4375H15.25V53.375Z" fill="black"/>
<path fill-rule="evenodd" clip-rule="evenodd" d="M30.5 53.375V49.5625H38.125V72.4375H34.3125V68.625V64.8125V61V57.1875V53.375H30.5Z" fill="black"/>
<path fill-rule="evenodd" clip-rule="evenodd" d="M15.25 53.375H19.0625V57.1875H22.875H26.6875V53.375H30.5V57.1875V61H26.6875H15.25V53.375Z" fill="black"/>
<path fill-rule="evenodd" clip-rule="evenodd" d="M45.75 53.375H49.5625V64.8125H53.375V61V57.1875V53.375H57.1875V64.8125H68.625V68.625H45.75V53.375Z" fill="black"/>
<path fill-rule="evenodd" clip-rule="evenodd" d="M72.4375 57.1875V61H76.25V64.8125H68.625V61V57.1875H72.4375Z" fill="black"/>
<path fill-rule="evenodd" clip-rule="evenodd" d="M80.0625 57.1875H83.875V61V64.8125V68.625V72.4375V76.25H80.0625V72.4375V68.625H76.25V64.8125H80.0625V61V57.1875Z" fill="black"/>
<path fill-rule="evenodd" clip-rule="evenodd" d="M11.4375 61H15.25V64.8125V68.625V72.4375H11.4375V61Z" fill="black"/>
<path fill-rule="evenodd" clip-rule="evenodd" d="M41.9375 72.4375V68.625H45.75V72.4375H41.9375Z" fill="black"/>
<path fill-rule="evenodd" clip-rule="evenodd" d="M68.625 72.4375V68.625H76.25V72.4375H72.4375H68.625Z" fill="black"/>
<path fill-rule="evenodd" clip-rule="evenodd" d="M11.4375 72.4375V76.25V80.0625H7.625V76.25V72.4375H11.4375Z" fill="black"/>
<path fill-rule="evenodd" clip-rule="evenodd" d="M38.125 76.25V72.4375H41.9375V76.25H38.125Z" fill="black"/>
<path fill-rule="evenodd" clip-rule="evenodd" d="M45.75 76.25V72.4375H68.625V76.25H64.8125V80.0625H61H57.1875V83.875H53.375V80.0625V76.25H49.5625H45.75Z" fill="black"/>
<path fill-rule="evenodd" clip-rule="evenodd" d="M38.125 76.25V83.875H34.3125V80.0625V76.25H38.125Z" fill="black"/>
<path fill-rule="evenodd" clip-rule="evenodd" d="M41.9375 76.25H45.75V80.0625H49.5625V83.875H41.9375V76.25Z" fill="black"/>
<path fill-rule="evenodd" clip-rule="evenodd" d="M80.0625 76.25V83.875H64.8125V80.0625H68.625H72.4375H76.25V76.25H80.0625Z" fill="black"/>
<path fill-rule="evenodd" clip-rule="evenodd" d="M7.625 80.0625V83.875V87.6875H3.8125V83.875V80.0625H7.625Z" fill="black"/>
<path fill-rule="evenodd" clip-rule="evenodd" d="M26.6875 83.875V80.0625H30.5V83.875H26.6875Z" fill="black"/>
<path fill-rule="evenodd" clip-rule="evenodd" d="M26.6875 83.875V91.5H22.875V87.6875V83.875H26.6875Z" fill="black"/>
<path fill-rule="evenodd" clip-rule="evenodd" d="M30.5 83.875H34.3125V91.5H30.5V83.875Z" fill="black"/>
<path fill-rule="evenodd" clip-rule="evenodd" d="M38.125 83.875H41.9375V87.6875V91.5H38.125V83.875Z" fill="black"/>
<path fill-rule="evenodd" clip-rule="evenodd" d="M49.5625 83.875H53.375V87.6875H49.5625V83.875Z" fill="black"/>
<path fill-rule="evenodd" clip-rule="evenodd" d="M61 87.6875V83.875H64.8125V87.6875H61Z" fill="black"/>
<path fill-rule="evenodd" clip-rule="evenodd" d="M80.0625 83.875H83.875V87.6875V91.5V95.3125H87.6875H91.5V99.125H87.6875H83.875H80.0625V102.938V106.75H76.25V110.562H72.4375H68.625V114.375H64.8125V110.562V106.75H68.625H72.4375V102.938H76.25V99.125V95.3125H80.0625V91.5V83.875Z" fill="black"/>
<path fill-rule="evenodd" clip-rule="evenodd" d="M0 87.6875H3.8125V95.3125H0V87.6875Z" fill="black"/>
<path fill-rule="evenodd" clip-rule="evenodd" d="M53.375 87.6875H61V95.3125H57.1875V91.5H53.375V87.6875Z" fill="black"/>
<path fill-rule="evenodd" clip-rule="evenodd" d="M19.0625 95.3125V91.5H22.875V95.3125H19.0625Z" fill="black"/>
<path fill-rule="evenodd" clip-rule="evenodd" d="M26.6875 95.3125V91.5H30.5V95.3125H26.6875Z" fill="black"/>
<path fill-rule="evenodd" clip-rule="evenodd" d="M34.3125 95.3125V91.5H38.125V95.3125H34.3125Z" fill="black"/>
<path fill-rule="evenodd" clip-rule="evenodd" d="M3.8125 95.3125H7.625V99.125H3.8125V95.3125Z" fill="black"/>
<path fill-rule="evenodd" clip-rule="evenodd" d="M15.25 99.125V95.3125H19.0625V99.125H15.25Z" fill="black"/>
<path fill-rule="evenodd" clip-rule="evenodd" d="M22.875 95.3125H26.6875V99.125H30.5V102.937H26.6875V106.75V110.562V114.375H22.875V106.75V95.3125Z" fill="black"/>
<path fill-rule="evenodd" clip-rule="evenodd" d="M30.5 99.125V95.3125H34.3125V99.125H30.5Z" fill="black"/>
<path fill-rule="evenodd" clip-rule="evenodd" d="M61 95.3125H64.8125H68.625V99.125H64.8125V102.937V106.75H61V102.937V99.125V95.3125Z" fill="black"/>
<path fill-rule="evenodd" clip-rule="evenodd" d="M7.625 99.125H15.25V102.938H11.4375H7.625V99.125Z" fill="black"/>
<path fill-rule="evenodd" clip-rule="evenodd" d="M68.625 99.125H72.4375V102.938H68.625V99.125Z" fill="black"/>
<path fill-rule="evenodd" clip-rule="evenodd" d="M91.5 99.125H102.938V102.938H99.125V106.75H95.3125V102.938H91.5V99.125Z" fill="black"/>
<path fill-rule="evenodd" clip-rule="evenodd" d="M102.938 106.75V102.938H106.75V106.75H102.938Z" fill="black"/>
<path fill-rule="evenodd" clip-rule="evenodd" d="M99.125 106.75H102.938V118.188H99.125V114.375V110.562V106.75Z" fill="black"/>
<path fill-rule="evenodd" clip-rule="evenodd" d="M106.75 106.75H110.562V110.562V114.375H106.75V110.562V106.75Z" fill="black"/>
<path fill-rule="evenodd" clip-rule="evenodd" d="M76.25 110.562H80.0625V114.375V118.188V122V125.812V129.625H76.25V125.812H72.4375V122H76.25V118.188V114.375V110.562Z" fill="black"/>
<path fill-rule="evenodd" clip-rule="evenodd" d="M22.875 114.375V137.25H19.0625V133.438V129.625V125.812V122V118.188V114.375H22.875Z" fill="black"/>
<path fill-rule="evenodd" clip-rule="evenodd" d="M68.625 114.375H72.4375V118.188V122H68.625V114.375Z" fill="black"/>
<path fill-rule="evenodd" clip-rule="evenodd" d="M110.562 114.375H114.375V118.188V122V125.812H110.562V122V118.188V114.375Z" fill="black"/>
<path fill-rule="evenodd" clip-rule="evenodd" d="M34.3125 125.812H30.5V122V118.188H34.3125V122V125.812Z" fill="black"/>
<path fill-rule="evenodd" clip-rule="evenodd" d="M53.375 129.625V125.812V122V118.188H57.1875V125.812V129.625H53.375Z" fill="black"/>
<path fill-rule="evenodd" clip-rule="evenodd" d="M87.6875 129.625H83.875V118.188H87.6875V122V129.625Z" fill="black"/>
<path fill-rule="evenodd" clip-rule="evenodd" d="M102.938 118.188H106.75V122V125.812V129.625V133.438V137.25V141.062H110.562V144.875H106.75V148.688V152.5V156.312H102.938V137.25V129.625V118.188Z" fill="black"/>
<path fill-rule="evenodd" clip-rule="evenodd" d="M64.8125 125.812V122H68.625V125.812H64.8125Z" fill="black"/>
<path fill-rule="evenodd" clip-rule="evenodd" d="M34.3125 125.812H38.125V129.625V133.438H41.9375V137.25V141.062V148.688H38.125V152.5V156.312V160.125V163.938V167.75V171.562V175.375H34.3125V133.438V125.812Z" fill="black"/>
<path fill-rule="evenodd" clip-rule="evenodd" d="M64.8125 125.812V129.625H68.625H72.4375H76.25V133.438H72.4375H68.625H64.8125H61V129.625V125.812H64.8125Z" fill="black"/>
<path fill-rule="evenodd" clip-rule="evenodd" d="M114.375 125.812H118.188V129.625V133.438H114.375V129.625V125.812Z" fill="black"/>
<path fill-rule="evenodd" clip-rule="evenodd" d="M53.375 129.625V133.438V137.25H57.1875H64.8125H76.25V141.062H53.375V156.312V160.125H49.5625V144.875V133.438V129.625H53.375Z" fill="black"/>
<path fill-rule="evenodd" clip-rule="evenodd" d="M87.6875 129.625H91.5V133.438V137.25H95.3125V141.062V144.875H91.5V148.688V152.5V156.312V160.125V163.938V167.75V171.562V175.375H87.6875V163.938V137.25H76.25V133.438H80.0625H83.875H87.6875V129.625Z" fill="black"/>
<path fill-rule="evenodd" clip-rule="evenodd" d="M118.188 137.25V133.438H122V137.25H118.188Z" fill="black"/>
<path fill-rule="evenodd" clip-rule="evenodd" d="M22.875 137.25H26.6875V141.062V144.875V156.312H22.875V152.5V148.688V144.875V137.25Z" fill="black"/>
<path fill-rule="evenodd" clip-rule="evenodd" d="M118.188 137.25V141.062V144.875H114.375V141.062V137.25H118.188Z" fill="black"/>
<path fill-rule="evenodd" clip-rule="evenodd" d="M76.25 141.062H80.0625V144.875V148.688V152.5H76.25V148.688V144.875V141.062Z" fill="black"/>
<path fill-rule="evenodd" clip-rule="evenodd" d="M95.3125 144.875H99.125V148.688V152.5V156.312H95.3125V152.5V148.688V144.875Z" fill="black"/>
<path fill-rule="evenodd" clip-rule="evenodd" d="M110.562 144.875H114.375V148.688H110.562V144.875Z" fill="black"/>
<path fill-rule="evenodd" clip-rule="evenodd" d="M41.9375 148.688H45.75V152.5V156.312V160.125H41.9375V156.312V152.5V148.688Z" fill="black"/>
<path fill-rule="evenodd" clip-rule="evenodd" d="M80.0625 152.5H83.875V156.312V160.125V163.938V175.375H80.0625V152.5Z" fill="black"/>
<path fill-rule="evenodd" clip-rule="evenodd" d="M26.6875 156.312H30.5V160.125V163.938V175.375H26.6875V167.75V156.312Z" fill="black"/>
<path fill-rule="evenodd" clip-rule="evenodd" d="M99.125 156.312H102.938V167.75V175.375H99.125V167.75V156.312Z" fill="black"/>
<path fill-rule="evenodd" clip-rule="evenodd" d="M106.75 156.312H110.562V160.125V163.938V167.75V175.375H106.75V167.75V156.312Z" fill="black"/>
<path fill-rule="evenodd" clip-rule="evenodd" d="M45.75 160.125H49.5625V175.375H45.75V160.125Z" fill="black"/>
<path fill-rule="evenodd" clip-rule="evenodd" d="M53.375 160.125H57.1875V163.938V167.75V171.562V175.375H53.375V160.125Z" fill="black"/>
<path fill-rule="evenodd" clip-rule="evenodd" d="M26.6875 175.375V179.188H30.5V175.375H34.3125V183H30.5H22.875V179.188V175.375H26.6875Z" fill="black"/>
<path fill-rule="evenodd" clip-rule="evenodd" d="M45.75 175.375V179.188H49.5625V175.375H53.375V183H41.9375V179.188V175.375H45.75Z" fill="black"/>
<path fill-rule="evenodd" clip-rule="evenodd" d="M80.0625 175.375V179.188H83.875V175.375H87.6875V183H76.25V179.188V175.375H80.0625Z" fill="black"/>
<path fill-rule="evenodd" clip-rule="evenodd" d="M99.125 175.375V179.188H102.938V175.375H106.75V183H95.3125V179.188V175.375H99.125Z" fill="black"/>
<path fill-rule="evenodd" clip-rule="evenodd" d="M38.125 3.8125V7.625V11.4375H41.9375V15.25H45.75V19.0625H41.9375V22.875V26.6875V30.5H38.125V26.6875V22.875V19.0625H34.3125V11.4375V7.625V3.8125H38.125Z" fill="#BE8E8E"/>
<path fill-rule="evenodd" clip-rule="evenodd" d="M45.75 30.5V38.125V41.9375H41.9375V38.125V34.3125V30.5H45.75Z" fill="#5F3434"/>
<path fill-rule="evenodd" clip-rule="evenodd" d="M45.75 41.9375H49.5625V45.75V49.5625V53.375H45.75V49.5625V45.75V41.9375Z" fill="#5F3434"/>
<path fill-rule="evenodd" clip-rule="evenodd" d="M49.5625 53.375H53.375V57.1875V61V64.8125H49.5625V53.375Z" fill="#5F3434"/>
<path fill-rule="evenodd" clip-rule="evenodd" d="M76.25 45.75H80.0625V49.5625H76.25V45.75Z" fill="#9C4848"/>
<path fill-rule="evenodd" clip-rule="evenodd" d="M57.1875 83.875V80.0625H61V83.875H57.1875Z" fill="#9C4848"/>
<path fill-rule="evenodd" clip-rule="evenodd" d="M53.375 87.6875V83.875H57.1875V87.6875H53.375Z" fill="#9C4848"/>
<path fill-rule="evenodd" clip-rule="evenodd" d="M80.0625 83.875V87.6875H76.25V91.5V95.3125H72.4375V99.125H68.625V95.3125H64.8125H61V91.5H64.8125V87.6875H68.625V83.875H80.0625Z" fill="#9C4848"/>
<path fill-rule="evenodd" clip-rule="evenodd" d="M76.25 41.9375H80.0625V45.75H76.25V41.9375Z" fill="#683030"/>
<path fill-rule="evenodd" clip-rule="evenodd" d="M80.0625 49.5625V53.375H76.25V49.5625H80.0625Z" fill="#683030"/>
<path fill-rule="evenodd" clip-rule="evenodd" d="M61 83.875V80.0625H64.8125V83.875H61Z" fill="#683030"/>
<path fill-rule="evenodd" clip-rule="evenodd" d="M57.1875 87.6875V83.875H61V87.6875H57.1875Z" fill="#683030"/>
<path fill-rule="evenodd" clip-rule="evenodd" d="M64.8125 87.6875V83.875H68.625V87.6875H64.8125Z" fill="#683030"/>
<path fill-rule="evenodd" clip-rule="evenodd" d="M61 87.6875H64.8125V91.5H61V87.6875Z" fill="#683030"/>
<path fill-rule="evenodd" clip-rule="evenodd" d="M80.0625 87.6875V95.3125H76.25V91.5V87.6875H80.0625Z" fill="#683030"/>
<path fill-rule="evenodd" clip-rule="evenodd" d="M76.25 95.3125V102.937H72.4375V99.125V95.3125H76.25Z" fill="#683030"/>
<path fill-rule="evenodd" clip-rule="evenodd" d="M68.625 41.9375H72.4375V45.75V49.5625H68.625H64.8125V45.75H68.625V41.9375Z" fill="#644A44"/>
<path fill-rule="evenodd" clip-rule="evenodd" d="M76.25 64.8125V68.625H68.625V64.8125H72.4375H76.25Z" fill="#644A44"/>
<path fill-rule="evenodd" clip-rule="evenodd" d="M64.8125 99.125H68.625V102.938H72.4375V106.75H68.625H64.8125V102.938V99.125Z" fill="#644A44"/>
<path fill-rule="evenodd" clip-rule="evenodd" d="M61 30.5H68.625V34.3125H64.8125H61V30.5Z" fill="#C2B5AE"/>
<path fill-rule="evenodd" clip-rule="evenodd" d="M57.1875 38.125H61V41.9375V45.75V49.5625H57.1875V38.125Z" fill="#C2B5AE"/>
<path fill-rule="evenodd" clip-rule="evenodd" d="M64.8125 41.9375V38.125H68.625V41.9375H64.8125Z" fill="#C2B5AE"/>
<path fill-rule="evenodd" clip-rule="evenodd" d="M72.4375 41.9375V38.125H76.25V41.9375H72.4375Z" fill="#C2B5AE"/>
<path fill-rule="evenodd" clip-rule="evenodd" d="M61 53.375H64.8125V57.1875H68.625V61H61V57.1875H57.1875V53.375H61Z" fill="#C2B5AE"/>
<path fill-rule="evenodd" clip-rule="evenodd" d="M80.0625 57.1875V61H72.4375V57.1875H76.25H80.0625Z" fill="#C2B5AE"/>
<path fill-rule="evenodd" clip-rule="evenodd" d="M45.75 72.4375V68.625H49.5625V72.4375H45.75Z" fill="#C2B5AE"/>
<path fill-rule="evenodd" clip-rule="evenodd" d="M53.375 68.625H57.1875H61V72.4375H57.1875H53.375V68.625Z" fill="#C2B5AE"/>
<path fill-rule="evenodd" clip-rule="evenodd" d="M72.4375 114.375H68.625V110.562H72.4375V114.375Z" fill="#C2B5AE"/>
<path fill-rule="evenodd" clip-rule="evenodd" d="M72.4375 114.375H76.25V118.188H72.4375V114.375Z" fill="#C2B5AE"/>
<path fill-rule="evenodd" clip-rule="evenodd" d="M68.625 125.812V122H72.4375V125.812H68.625Z" fill="#C2B5AE"/>
<path fill-rule="evenodd" clip-rule="evenodd" d="M64.8125 129.625V125.812H68.625V129.625H64.8125Z" fill="#C2B5AE"/>
<path fill-rule="evenodd" clip-rule="evenodd" d="M68.625 30.5H76.25V34.3125H72.4375V38.125H68.625V34.3125V30.5Z" fill="#948A85"/>
<path fill-rule="evenodd" clip-rule="evenodd" d="M76.25 34.3125H80.0625V38.125H76.25V34.3125Z" fill="#948A85"/>
<path fill-rule="evenodd" clip-rule="evenodd" d="M61 38.125H64.8125V41.9375V45.75H61V41.9375V38.125Z" fill="#948A85"/>
<path fill-rule="evenodd" clip-rule="evenodd" d="M64.8125 53.375H68.625H72.4375V57.1875H68.625H64.8125V53.375Z" fill="#948A85"/>
<path fill-rule="evenodd" clip-rule="evenodd" d="M68.625 61V64.8125H64.8125H61H57.1875V61V57.1875H61V61H64.8125H68.625Z" fill="#948A85"/>
<path fill-rule="evenodd" clip-rule="evenodd" d="M80.0625 61V64.8125H76.25V61H80.0625Z" fill="#948A85"/>
<path fill-rule="evenodd" clip-rule="evenodd" d="M49.5625 72.4375V68.625H53.375V72.4375H49.5625Z" fill="#948A85"/>
<path fill-rule="evenodd" clip-rule="evenodd" d="M68.625 72.4375H64.8125H61V68.625H64.8125H68.625V72.4375Z" fill="#948A85"/>
<path fill-rule="evenodd" clip-rule="evenodd" d="M80.0625 68.625V76.25H76.25V80.0625H72.4375H68.625H64.8125V76.25H68.625V72.4375H72.4375H76.25V68.625H80.0625Z" fill="#948A85"/>
<path fill-rule="evenodd" clip-rule="evenodd" d="M72.4375 114.375V110.562H76.25V114.375H72.4375Z" fill="#948A85"/>
<path fill-rule="evenodd" clip-rule="evenodd" d="M72.4375 122V118.188H76.25V122H72.4375Z" fill="#948A85"/>
<path fill-rule="evenodd" clip-rule="evenodd" d="M68.625 129.625V125.812H72.4375H76.25V129.625H68.625Z" fill="#948A85"/>
<path fill-rule="evenodd" clip-rule="evenodd" d="M41.9375 76.25V72.4375H45.75V76.25H41.9375Z" fill="#ABA16E"/>
<path fill-rule="evenodd" clip-rule="evenodd" d="M38.125 76.25H41.9375V80.0625H38.125V76.25Z" fill="#ABA16E"/>
<path fill-rule="evenodd" clip-rule="evenodd" d="M38.125 83.875V80.0625H41.9375V83.875H38.125Z" fill="#977E4E"/>
<path fill-rule="evenodd" clip-rule="evenodd" d="M38.125 83.875V87.6875V91.5H34.3125V87.6875V83.875H38.125Z" fill="#977E4E"/>
<path fill-rule="evenodd" clip-rule="evenodd" d="M30.5 95.3125V91.5H34.3125V95.3125H30.5Z" fill="#977E4E"/>
<path fill-rule="evenodd" clip-rule="evenodd" d="M26.6875 95.3125H30.5V99.125H26.6875V95.3125Z" fill="#977E4E"/>
<path fill-rule="evenodd" clip-rule="evenodd" d="M22.875 72.4375V68.625H26.6875V72.4375H22.875Z" fill="#C26A44"/>
<path fill-rule="evenodd" clip-rule="evenodd" d="M99.125 106.75V102.938H102.938V106.75H99.125Z" fill="#62768E"/>
<path fill-rule="evenodd" clip-rule="evenodd" d="M102.938 106.75H106.75V110.562H102.938V106.75Z" fill="#62768E"/>
<path fill-rule="evenodd" clip-rule="evenodd" d="M110.562 114.375V118.188V122H106.75V118.188V114.375H110.562Z" fill="#62768E"/>
<path fill-rule="evenodd" clip-rule="evenodd" d="M106.75 110.562V114.375V118.188H102.938V114.375V110.562H106.75Z" fill="#4B5B6E"/>
<path fill-rule="evenodd" clip-rule="evenodd" d="M118.188 133.438V137.25H114.375V141.062V144.875H110.562V141.062H106.75V137.25V133.438V129.625V122H110.562V125.812H114.375V129.625V133.438H118.188Z" fill="#4B5B6E"/>
<path fill-rule="evenodd" clip-rule="evenodd" d="M26.6875 83.875H30.5V87.6875V91.5H26.6875V83.875Z" fill="#646D8A"/>
<path fill-rule="evenodd" clip-rule="evenodd" d="M3.8125 95.3125V91.5H7.625H15.25V99.125H11.4375H7.625V95.3125H3.8125Z" fill="#646D8A"/>
<path fill-rule="evenodd" clip-rule="evenodd" d="M26.6875 91.5V95.3125H22.875V91.5H26.6875Z" fill="#646D8A"/>
<path fill-rule="evenodd" clip-rule="evenodd" d="M30.5 102.938V99.125H34.3125V102.938H30.5Z" fill="#646D8A"/>
<path fill-rule="evenodd" clip-rule="evenodd" d="M30.5 102.938V110.562H26.6875V106.75V102.938H30.5Z" fill="#646D8A"/>
<path fill-rule="evenodd" clip-rule="evenodd" d="M76.25 133.438V137.25H64.8125H53.375V129.625H57.1875H61V133.438H64.8125H76.25Z" fill="#646D8A"/>
<path fill-rule="evenodd" clip-rule="evenodd" d="M76.25 133.438V129.625H80.0625H83.875H87.6875V133.438H76.25Z" fill="#646D8A"/>
<path fill-rule="evenodd" clip-rule="evenodd" d="M34.3125 163.938H30.5V156.312H34.3125V160.125V163.938Z" fill="#646D8A"/>
<path fill-rule="evenodd" clip-rule="evenodd" d="M30.5 64.8125H34.3125V68.625V72.4375H38.125V76.25H34.3125V80.0625V83.875H30.5V80.0625H26.6875V76.25V72.4375H30.5V68.625V64.8125Z" fill="#1D2028"/>
<path fill-rule="evenodd" clip-rule="evenodd" d="M26.6875 80.0625V83.875H22.875V80.0625H26.6875Z" fill="#1D2028"/>
<path fill-rule="evenodd" clip-rule="evenodd" d="M41.9375 91.5V87.6875V83.875H45.75H49.5625V87.6875H45.75V91.5H41.9375Z" fill="#1D2028"/>
<path fill-rule="evenodd" clip-rule="evenodd" d="M19.0625 91.5V87.6875H22.875V91.5H19.0625Z" fill="#1D2028"/>
<path fill-rule="evenodd" clip-rule="evenodd" d="M15.25 95.3125V91.5H19.0625V95.3125H15.25Z" fill="#1D2028"/>
<path fill-rule="evenodd" clip-rule="evenodd" d="M38.125 95.3125V91.5H41.9375V95.3125H38.125Z" fill="#1D2028"/>
<path fill-rule="evenodd" clip-rule="evenodd" d="M61 106.75H57.1875V102.938V99.125H53.375V91.5H57.1875V95.3125H61V99.125V102.938V106.75Z" fill="#1D2028"/>
<path fill-rule="evenodd" clip-rule="evenodd" d="M38.125 95.3125V99.125H34.3125V95.3125H38.125Z" fill="#1D2028"/>
<path fill-rule="evenodd" clip-rule="evenodd" d="M80.0625 106.75V99.125H83.875V102.938V106.75H80.0625Z" fill="#1D2028"/>
<path fill-rule="evenodd" clip-rule="evenodd" d="M61 106.75H64.8125V110.562H61V106.75Z" fill="#1D2028"/>
<path fill-rule="evenodd" clip-rule="evenodd" d="M80.0625 106.75V110.562H76.25V106.75H80.0625Z" fill="#1D2028"/>
<path fill-rule="evenodd" clip-rule="evenodd" d="M34.3125 156.312H26.6875V141.062V137.25V133.438V129.625V125.812V122V118.188V114.375H30.5V122V125.812H34.3125V129.625V133.438V141.062V156.312Z" fill="#1D2028"/>
<path fill-rule="evenodd" clip-rule="evenodd" d="M64.8125 114.375H68.625V118.188V122H64.8125V118.188V114.375Z" fill="#1D2028"/>
<path fill-rule="evenodd" clip-rule="evenodd" d="M83.875 114.375V122V125.812V129.625H80.0625V122V118.188V114.375H83.875Z" fill="#1D2028"/>
<path fill-rule="evenodd" clip-rule="evenodd" d="M87.6875 137.25V152.5V156.312H83.875V152.5H80.0625V148.688V144.875V141.062H76.25V137.25H87.6875Z" fill="#1D2028"/>
<path fill-rule="evenodd" clip-rule="evenodd" d="M30.5 53.375H34.3125V57.1875V64.8125H30.5V61V53.375Z" fill="#808AAF"/>
<path fill-rule="evenodd" clip-rule="evenodd" d="M11.4375 61V57.1875H15.25V61H11.4375Z" fill="#808AAF"/>
<path fill-rule="evenodd" clip-rule="evenodd" d="M3.8125 91.5V87.6875H7.625H11.4375V91.5H7.625H3.8125Z" fill="#808AAF"/>
<path fill-rule="evenodd" clip-rule="evenodd" d="M34.3125 102.938V114.375V118.188H30.5V114.375H26.6875V110.562H30.5V106.75V102.938H34.3125Z" fill="#808AAF"/>
<path fill-rule="evenodd" clip-rule="evenodd" d="M57.1875 129.625V125.812H61V129.625H57.1875Z" fill="#808AAF"/>
<path fill-rule="evenodd" clip-rule="evenodd" d="M49.5625 160.125H45.75V156.312H49.5625V160.125Z" fill="#808AAF"/>
<path fill-rule="evenodd" clip-rule="evenodd" d="M87.6875 175.375H83.875V171.562V167.75V163.938V160.125V156.312H87.6875V163.938V175.375Z" fill="#808AAF"/>
<path fill-rule="evenodd" clip-rule="evenodd" d="M106.75 156.312V167.75V171.562V175.375H102.938V171.562V167.75V163.938V160.125V156.312H106.75Z" fill="#808AAF"/>
<path fill-rule="evenodd" clip-rule="evenodd" d="M49.5625 160.125H53.375V163.938V167.75V175.375H49.5625V160.125Z" fill="#808AAF"/>
<path fill-rule="evenodd" clip-rule="evenodd" d="M34.3125 175.375H30.5V171.562V167.75V163.938H34.3125V175.375Z" fill="#808AAF"/>
<path fill-rule="evenodd" clip-rule="evenodd" d="M11.4375 53.375H15.25V57.1875H11.4375V53.375Z" fill="#313543"/>
<path fill-rule="evenodd" clip-rule="evenodd" d="M26.6875 72.4375V68.625H22.875V72.4375H26.6875V76.25V80.0625H22.875V83.875V87.6875H19.0625V91.5H15.25H11.4375V87.6875H7.625V80.0625H11.4375V76.25V72.4375H15.25V68.625V61H30.5V64.8125V68.625V72.4375H26.6875Z" fill="#313543"/>
<path fill-rule="evenodd" clip-rule="evenodd" d="M45.75 87.6875H53.375V95.3125V99.125H57.1875V102.938V106.75H61V110.562H64.8125V114.375V125.812H57.1875V122V118.188H53.375V122V125.812V129.625H49.5625V133.438V144.875V156.312H45.75V152.5V148.688H41.9375V144.875V141.062V137.25V133.438H38.125V129.625V125.812H34.3125V122V118.188V114.375V102.938V99.125H38.125V95.3125H41.9375V91.5H45.75V87.6875Z" fill="#313543"/>
<path fill-rule="evenodd" clip-rule="evenodd" d="M102.938 118.188V129.625V148.688V156.313H99.125V152.5V148.688V144.875H95.3125V141.063V137.25H91.5V133.438V129.625H87.6875V125.813V122V118.188H83.875V114.375H80.0625V110.563V106.75H83.875V102.938V99.125H87.6875H91.5V102.938H95.3125V106.75H99.125V110.563V114.375V118.188H102.938Z" fill="#313543"/>
<path fill-rule="evenodd" clip-rule="evenodd" d="M26.6875 114.375V137.25H22.875V133.438V129.625V125.812V122V118.188V114.375H26.6875Z" fill="#313543"/>
<path fill-rule="evenodd" clip-rule="evenodd" d="M26.6875 179.188V175.375H30.5V179.188H26.6875Z" fill="#313543"/>
<path fill-rule="evenodd" clip-rule="evenodd" d="M45.75 179.188V175.375H49.5625V179.188H45.75Z" fill="#313543"/>
<path fill-rule="evenodd" clip-rule="evenodd" d="M80.0625 179.188V175.375H83.875V179.188H80.0625Z" fill="#313543"/>
<path fill-rule="evenodd" clip-rule="evenodd" d="M99.125 179.188V175.375H102.938V179.188H99.125Z" fill="#313543"/>
</svg>
