<svg
  width="32"
  height="32"
  viewBox="0 0 32 32"
  fill="none"
  xmlns="http://www.w3.org/2000/svg"
>
  <path
    fill-rule="evenodd"
    clip-rule="evenodd"
    d="M2 16C2 8.26801 8.26801 2 16 2C23.732 2 30 8.26801 30 16C30 23.732 23.732 30 16 30C8.26801 30 2 23.732 2 16ZM17.4062 13.4336V24H14.5742V13.4336H17.4062ZM14.8281 9.6543C14.5482 9.92773 14.4082 10.276 14.4082 10.6992C14.4082 11.1289 14.5514 11.4805 14.8379 11.7539C15.1309 12.0273 15.515 12.1641 15.9902 12.1641C16.4655 12.1641 16.8464 12.0273 17.1328 11.7539C17.4258 11.4805 17.5723 11.1289 17.5723 10.6992C17.5723 10.276 17.429 9.92773 17.1426 9.6543C16.8561 9.38086 16.472 9.24414 15.9902 9.24414C15.502 9.24414 15.1146 9.38086 14.8281 9.6543Z"
    fill="currentColor"
  />
</svg>
