<svg
  width="20"
  height="20"
  viewBox="0 0 20 20"
  fill="none"
  xmlns="http://www.w3.org/2000/svg"
>
  <path
    fill-rule="evenodd"
    clip-rule="evenodd"
    d="M3 10C3 13.866 6.134 17 9.99999 17C13.866 17 17 13.866 17 10C17 6.13401 13.866 3 9.99999 3C6.134 3 3 6.13401 3 10ZM9.99999 1C5.02943 1 1 5.02944 1 10C1 14.9706 5.02943 19 9.99999 19C14.9706 19 19 14.9706 19 10C19 5.02944 14.9706 1 9.99999 1Z"
    fill="currentColor"
  />
  <path
    d="M10 5L11.4166 8.05027L14.7553 8.45492L12.292 10.7447L12.9389 14.0451L10 12.41L7.06107 14.0451L7.70795 10.7447L5.24472 8.45492L8.58344 8.05027L10 5Z"
    fill="currentColor"
  />
</svg>
