<svg
  width="20"
  height="21"
  viewBox="0 0 20 21"
  fill="none"
  xmlns="http://www.w3.org/2000/svg"
>
  <path
    fill-rule="evenodd"
    clip-rule="evenodd"
    d="M9.89355 17.1002L13.911 12.5919C15.887 10.3745 15.6928 6.97556 13.4772 4.9976C11.4357 3.17503 8.3514 3.17503 6.30987 4.9976C4.09429 6.97556 3.90015 10.3745 5.8761 12.5919L9.89355 17.1002ZM15.4042 13.9225C18.1145 10.881 17.8482 6.21874 14.8092 3.50565C12.0089 1.00568 7.77823 1.00569 4.97792 3.50565C1.93889 6.21874 1.67259 10.881 4.38295 13.9225L9.89355 20.1063L15.4042 13.9225Z"
    fill="currentColor"
  />
  <path
    d="M12 8.89332C12 9.99789 11.1046 10.8933 9.99998 10.8933C8.89541 10.8933 7.99998 9.99789 7.99998 8.89332C7.99998 7.78875 8.89541 6.89332 9.99998 6.89332C11.1046 6.89332 12 7.78875 12 8.89332Z"
    fill="currentColor"
  />
</svg>
