<svg width="106" height="30" viewBox="0 0 106 30" fill="none" xmlns="http://www.w3.org/2000/svg">
<path d="M13.299 3.09278C13.299 4.80088 11.9143 6.18557 10.2062 6.18557C8.49809 6.18557 7.1134 4.80088 7.1134 3.09278C7.1134 1.38469 8.49809 0 10.2062 0C11.9143 0 13.299 1.38469 13.299 3.09278Z" fill="#FFCB12"/>
<path fill-rule="evenodd" clip-rule="evenodd" d="M20.7216 7.42268H0V23.8144L8.46166 29.9684V30H8.50515L8.46166 29.9684V15.1764H3.1097V12.4098H17.293V15.1764H11.8686V29.9731L11.8299 30H11.8686V29.9731L20.7216 23.8144V7.42268Z" fill="#FFCB12"/>
<path d="M42.7363 21.6882H37.4568L36.4178 25.3608H32.8418L38.6045 7.77063H41.6852L47.3392 25.3608H43.7632L42.7363 21.6882ZM38.2904 18.8008H41.9389L40.1388 12.3252L38.2904 18.8008Z" fill="currentColor"/>
<path d="M58.4539 12.0474C58.9613 12.0474 59.4285 12.0836 59.8553 12.1561C60.2903 12.2205 60.6406 12.293 60.9064 12.3736L60.4111 15.7201C59.9681 15.6153 59.513 15.5388 59.0459 15.4905C58.5868 15.4341 58.1479 15.4059 57.729 15.4059C56.7867 15.4059 56.0296 15.5872 55.4578 15.9496C54.894 16.312 54.4711 16.8315 54.1893 17.5081V25.3608H50.8307V12.289H53.9597L54.1168 14.4274C54.6483 13.6864 55.2846 13.1065 56.0256 12.6877C56.7666 12.2608 57.576 12.0474 58.4539 12.0474Z" fill="currentColor"/>
<path d="M70.2693 25.6025C69.2625 25.6025 68.3484 25.4374 67.5269 25.1071C66.7054 24.7769 66.0006 24.3299 65.4127 23.7661C64.8247 23.1943 64.3697 22.5258 64.0475 21.7606C63.7334 20.9874 63.5763 20.1619 63.5763 19.284V18.8008C63.5763 17.802 63.7334 16.8919 64.0475 16.0704C64.3616 15.2408 64.8006 14.528 65.3643 13.932C65.9281 13.336 66.5966 12.8729 67.3698 12.5427C68.143 12.2125 68.9847 12.0474 69.8948 12.0474C70.8371 12.0474 71.6748 12.2044 72.4077 12.5185C73.1487 12.8246 73.7729 13.2595 74.2803 13.8233C74.7957 14.3871 75.1864 15.0677 75.4521 15.865C75.7179 16.6543 75.8508 17.5282 75.8508 18.4866V19.9122H66.9832C67.0477 20.3552 67.1765 20.7619 67.3698 21.1324C67.5712 21.4949 67.8249 21.809 68.1309 22.0748C68.437 22.3405 68.7873 22.5459 69.182 22.6909C69.5767 22.8359 70.0075 22.9084 70.4747 22.9084C70.8049 22.9084 71.1311 22.8761 71.4533 22.8117C71.7835 22.7473 72.0976 22.6547 72.3956 22.5338C72.6936 22.405 72.9715 22.2479 73.2292 22.0627C73.4869 21.8774 73.7124 21.66 73.9057 21.4103L75.585 23.2225C75.3756 23.5205 75.1018 23.8144 74.7635 24.1044C74.4333 24.3863 74.0386 24.64 73.5796 24.8655C73.1285 25.083 72.6251 25.2602 72.0694 25.3971C71.5137 25.534 70.9136 25.6025 70.2693 25.6025ZM69.8706 14.7656C69.4921 14.7656 69.1458 14.8341 68.8316 14.971C68.5175 15.0999 68.2397 15.2892 67.998 15.5388C67.7645 15.7885 67.5672 16.0865 67.4061 16.4328C67.245 16.7792 67.1242 17.1658 67.0436 17.5926H72.5527V17.3268C72.5365 16.9725 72.4681 16.6382 72.3473 16.3241C72.2265 16.01 72.0533 15.7402 71.8278 15.5147C71.6023 15.2811 71.3244 15.0999 70.9942 14.971C70.672 14.8341 70.2975 14.7656 69.8706 14.7656Z" fill="currentColor"/>
<path d="M81.831 12.289L82.0364 14.1012C82.5035 13.4488 83.0713 12.9454 83.7398 12.591C84.4083 12.2286 85.1493 12.0474 85.9628 12.0474C86.6232 12.0474 87.2273 12.144 87.7749 12.3373C88.3226 12.5306 88.7938 12.8407 89.1884 13.2676C89.5912 13.6864 89.9012 14.23 90.1187 14.8985C90.3442 15.559 90.457 16.3644 90.457 17.3148V25.3608H87.0984V17.3631C87.0984 16.8476 87.038 16.4248 86.9172 16.0946C86.8044 15.7563 86.6393 15.4905 86.4219 15.2972C86.2044 15.1039 85.9426 14.971 85.6366 14.8985C85.3305 14.818 84.9842 14.7777 84.5976 14.7777C84.0258 14.7777 83.5385 14.8945 83.1358 15.1281C82.7331 15.3536 82.4069 15.6677 82.1572 16.0704V25.3608H78.7865V12.289H81.831Z" fill="currentColor"/>
<path d="M101.813 25.3608C101.733 25.1998 101.664 25.0145 101.608 24.8051C101.552 24.5957 101.503 24.3742 101.463 24.1406C101.278 24.342 101.064 24.5313 100.823 24.7085C100.581 24.8856 100.311 25.0427 100.013 25.1796C99.7232 25.3085 99.4011 25.4092 99.0467 25.4816C98.6923 25.5622 98.3097 25.6025 97.899 25.6025C97.2305 25.6025 96.6143 25.5058 96.0506 25.3125C95.4948 25.1192 95.0156 24.8494 94.6129 24.5031C94.2102 24.1567 93.8961 23.746 93.6706 23.2708C93.445 22.7875 93.3323 22.264 93.3323 21.7002C93.3323 20.323 93.8437 19.2598 94.8666 18.5108C95.8975 17.7537 97.4318 17.3752 99.4695 17.3752H101.342V16.602C101.342 15.9738 101.137 15.4784 100.726 15.116C100.315 14.7455 99.7232 14.5603 98.95 14.5603C98.2654 14.5603 97.7661 14.7093 97.452 15.0073C97.1379 15.2972 96.9808 15.6878 96.9808 16.1791H93.6222C93.6222 15.6234 93.7431 15.0959 93.9847 14.5965C94.2344 14.0971 94.5928 13.6582 95.0599 13.2797C95.5351 12.9011 96.111 12.6031 96.7875 12.3856C97.4721 12.1601 98.2534 12.0474 99.1313 12.0474C99.9206 12.0474 100.653 12.144 101.33 12.3373C102.015 12.5306 102.607 12.8165 103.106 13.1951C103.605 13.5736 103.996 14.0528 104.278 14.6327C104.56 15.2046 104.701 15.8691 104.701 16.6261V22.2318C104.701 22.9325 104.745 23.5124 104.834 23.9715C104.922 24.4306 105.051 24.8252 105.22 25.1555V25.3608H101.813ZM98.6118 23.005C98.95 23.005 99.2642 22.9647 99.5541 22.8842C99.844 22.8037 100.106 22.6989 100.339 22.5701C100.573 22.4412 100.774 22.2962 100.943 22.1352C101.113 21.966 101.245 21.7969 101.342 21.6278V19.3806H99.6266C99.1031 19.3806 98.6561 19.433 98.2856 19.5377C97.9151 19.6344 97.6131 19.7753 97.3795 19.9605C97.1459 20.1377 96.9728 20.3552 96.86 20.6129C96.7472 20.8626 96.6909 21.1364 96.6909 21.4345C96.6909 21.8855 96.8479 22.26 97.162 22.558C97.4842 22.856 97.9674 23.005 98.6118 23.005Z" fill="currentColor"/>
</svg>
