<svg
  width="30"
  height="30"
  viewBox="0 0 30 30"
  fill="none"
  xmlns="http://www.w3.org/2000/svg"
>
  <path
    fill-rule="evenodd"
    clip-rule="evenodd"
    d="M2.51111 15.1643C3.60631 12.5077 7.5811 7.5 15.0008 7.5C22.4205 7.5 26.3953 12.5077 27.4905 15.1643L25.6415 15.9266C24.7712 13.8157 21.4109 9.5 15.0008 9.5C8.59067 9.5 5.23039 13.8157 4.36015 15.9266L2.51111 15.1643Z"
    fill="currentColor"
  />
  <path
    fill-rule="evenodd"
    clip-rule="evenodd"
    d="M15.0001 15.5417C13.4813 15.5417 12.2501 16.7729 12.2501 18.2917C12.2501 19.8104 13.4813 21.0417 15.0001 21.0417C16.5189 21.0417 17.7501 19.8104 17.7501 18.2917C17.7501 16.7729 16.5189 15.5417 15.0001 15.5417ZM10.2501 18.2917C10.2501 15.6683 12.3767 13.5417 15.0001 13.5417C17.6234 13.5417 19.7501 15.6683 19.7501 18.2917C19.7501 20.915 17.6234 23.0417 15.0001 23.0417C12.3767 23.0417 10.2501 20.915 10.2501 18.2917Z"
    fill="currentColor"
  />
</svg>
