<svg
  width="20"
  height="21"
  viewBox="0 0 20 21"
  fill="none"
  xmlns="http://www.w3.org/2000/svg"
>
  <path
    fill-rule="evenodd"
    clip-rule="evenodd"
    d="M3.00002 6.89331H20V18.8933H3.00002V6.89331ZM5.00002 8.89331V12.8933V14.8933V16.8933H18V8.89331H17H15H5.00002Z"
    fill="currentColor"
  />
  <path
    d="M13.5002 12.8933C13.5002 13.9979 12.6048 14.8933 11.5002 14.8933C10.3957 14.8933 9.50024 13.9979 9.50024 12.8933C9.50024 11.7887 10.3957 10.8933 11.5002 10.8933C12.6048 10.8933 13.5002 11.7887 13.5002 12.8933Z"
    fill="currentColor"
  />
  <path
    fill-rule="evenodd"
    clip-rule="evenodd"
    d="M17 2.89331H0V14.8933H5.00002V12.8933H2V4.89331H15V8.89331H17V2.89331ZM11.5002 14.8933C12.6048 14.8933 13.5002 13.9979 13.5002 12.8933C13.5002 11.7887 12.6048 10.8933 11.5002 10.8933C10.3957 10.8933 9.50024 11.7887 9.50024 12.8933C9.50024 13.9979 10.3957 14.8933 11.5002 14.8933Z"
    fill="currentColor"
  />
</svg>
