<svg
  width="20"
  height="20"
  viewBox="0 0 20 20"
  fill="none"
  xmlns="http://www.w3.org/2000/svg"
>
  <path d="M8.00001 19L7.50001 16H12.5L12 19H8.00001Z" fill="currentColor" />
  <path d="M8.00001 1L7.50001 4H12.5L12 1H8.00001Z" fill="currentColor" />
  <path
    d="M16.7943 16.2321L13.9462 15.1651L16.4462 10.8349L18.7943 12.7679L16.7943 16.2321Z"
    fill="currentColor"
  />
  <path
    d="M1.20582 7.23205L3.5539 9.16506L6.0539 4.83494L3.20582 3.76795L1.20582 7.23205Z"
    fill="currentColor"
  />
  <path
    d="M18.7943 7.23203L16.4462 9.16504L13.9462 4.83491L16.7943 3.76793L18.7943 7.23203Z"
    fill="currentColor"
  />
  <path
    d="M3.20581 16.232L6.05389 15.165L3.55389 10.8349L1.20581 12.7679L3.20581 16.232Z"
    fill="currentColor"
  />
  <path
    fill-rule="evenodd"
    clip-rule="evenodd"
    d="M10 3C6.13402 3 3.00001 6.13401 3.00001 10C3.00001 13.866 6.13402 17 10 17C13.866 17 17 13.866 17 10C17 6.13401 13.866 3 10 3ZM7.00001 10C7.00001 11.6569 8.34316 13 10 13C11.6569 13 13 11.6569 13 10C13 8.34315 11.6569 7 10 7C8.34316 7 7.00001 8.34315 7.00001 10Z"
    fill="currentColor"
  />
</svg>
