<svg width="20" height="20" viewBox="0 0 20 20" fill="none" xmlns="http://www.w3.org/2000/svg">
<path d="M10 20C15.5228 20 20 15.5228 20 10C20 4.47715 15.5228 0 10 0C4.47715 0 0 4.47715 0 10C0 15.5228 4.47715 20 10 20Z" fill="#FFCD28"/>
<path d="M5.47656 14.9168V13.2067C5.47656 12.9602 5.72796 12.7944 5.95355 12.8923C7.00559 13.3497 8.15957 13.5705 9.41549 13.5705C11.1359 13.5705 12.132 13.0955 12.132 12.2578C12.132 11.5105 11.4757 11.1484 10.14 11.1484H8.26753C8.07613 11.1484 7.92151 10.9933 7.92151 10.8026V9.18515C7.92151 8.99419 8.07635 8.83913 8.26753 8.83913H10.14C11.2267 8.83913 11.7701 8.49999 11.7701 7.84343C11.7701 7.11892 11.0002 6.75677 9.46108 6.75677C8.27656 6.75677 7.20861 6.94021 6.25764 7.32064C6.03484 7.40967 5.79398 7.24386 5.79398 7.00343V5.37225C5.79398 5.15999 5.92516 4.9729 6.12172 4.8929C7.22215 4.44515 8.58065 4.22128 10.1626 4.22128C11.5437 4.22128 12.6981 4.51548 13.626 5.10408C14.5542 5.69225 15.0295 6.43956 15.0295 7.32257C15.0295 8.47827 14.5613 9.26322 13.6252 9.65978C13.5533 9.6901 13.5566 9.79569 13.6295 9.82343C14.6929 10.2288 15.4824 11.1067 15.4824 12.4381C15.4824 13.5026 14.9619 14.3856 13.9209 15.0864C12.9017 15.7664 11.5434 16.1058 9.86839 16.1058C8.24151 16.1058 6.8957 15.8615 5.79635 15.3914C5.60452 15.3099 5.47656 15.1252 5.47656 14.9168Z" fill="#212223"/>
</svg>
