<svg width="20" height="20" viewBox="0 0 20 20" fill="none" xmlns="http://www.w3.org/2000/svg">
<path fill-rule="evenodd" clip-rule="evenodd" d="M15.32 17.4822C15.5883 17.6722 15.9341 17.7197 16.2425 17.6031C16.5508 17.4856 16.7775 17.2223 16.8458 16.9031C17.5699 13.4998 19.3266 4.88587 19.9857 1.79011C20.0357 1.55678 19.9524 1.31428 19.769 1.15845C19.5857 1.00262 19.3316 0.957624 19.1049 1.04179C15.6108 2.33509 4.85022 6.3725 0.451988 7.99996C0.172828 8.10329 -0.00883492 8.37162 0.000331537 8.66578C0.0103313 8.96078 0.20866 9.2166 0.494487 9.30243C2.46694 9.89242 5.05605 10.7132 5.05605 10.7132C5.05605 10.7132 6.26602 14.3673 6.89684 16.2256C6.97601 16.4589 7.1585 16.6423 7.39933 16.7056C7.63932 16.7681 7.89599 16.7023 8.07515 16.5331C9.08846 15.5765 10.6551 14.0973 10.6551 14.0973C10.6551 14.0973 13.6317 16.2798 15.32 17.4822V17.4822ZM6.14519 10.2516L7.54433 14.8665L7.85515 11.944C7.85515 11.944 13.2609 7.06832 16.3425 4.28922C16.4325 4.20755 16.445 4.07089 16.37 3.97506C16.2958 3.87923 16.1591 3.85673 16.0566 3.92172C12.485 6.20251 6.14519 10.2516 6.14519 10.2516Z" fill="#0088CC"/>
</svg>
