<svg width="20" height="20" viewBox="0 0 20 20" fill="none" xmlns="http://www.w3.org/2000/svg">
<path d="M16.2473 18.2258V12.8495H18.0215V20H2V12.8495H3.77419V18.2258H16.2473Z" fill="#F48024"/>
<path d="M5.76339 12.3656L14.4731 14.1936L14.8494 12.4731L6.13974 10.6452L5.76339 12.3656V12.3656ZM6.89243 8.17204L14.9569 11.9355L15.7096 10.3226L7.64511 6.55914L6.89243 8.17204ZM9.15049 4.19355L15.9784 9.89248L17.1075 8.54839L10.2795 2.84946L9.15049 4.19355V4.19355ZM13.5591 0L12.1075 1.07527L17.4301 8.22581L18.8817 7.15054L13.5591 0ZM5.54834 16.3979H14.4731V14.6237H5.54834V16.3979Z" fill="#F48024"/>
</svg>
