<svg width="20" height="20" viewBox="0 0 20 20" fill="none" xmlns="http://www.w3.org/2000/svg">
<path d="M14.5939 20C17.5797 20 20.0002 17.5795 20.0002 14.5936C20.0002 11.6078 17.5797 9.18729 14.5939 9.18729C11.608 9.18729 9.1875 11.6078 9.1875 14.5936C9.1875 17.5795 11.608 20 14.5939 20Z" fill="#97CF26"/>
<path d="M4.44047 17.1025C5.82607 17.1025 6.94931 15.9792 6.94931 14.5936C6.94931 13.2081 5.82607 12.0848 4.44047 12.0848C3.05488 12.0848 1.93164 13.2081 1.93164 14.5936C1.93164 15.9792 3.05488 17.1025 4.44047 17.1025Z" fill="#A169F7"/>
<path d="M14.5938 7.9152C16.5128 7.9152 18.0685 6.35954 18.0685 4.44053C18.0685 2.52151 16.5128 0.965851 14.5938 0.965851C12.6748 0.965851 11.1191 2.52151 11.1191 4.44053C11.1191 6.35954 12.6748 7.9152 14.5938 7.9152Z" fill="#FF6163"/>
<path d="M4.44052 8.88104C6.89295 8.88104 8.88104 6.89295 8.88104 4.44052C8.88104 1.98809 6.89295 0 4.44052 0C1.98809 0 0 1.98809 0 4.44052C0 6.89295 1.98809 8.88104 4.44052 8.88104Z" fill="#00AAFF"/>
</svg>
