<svg width="20" height="20" viewBox="0 0 20 20" fill="none" xmlns="http://www.w3.org/2000/svg">
<path fill-rule="evenodd" clip-rule="evenodd" d="M19.9995 9.99986C19.9995 15.5263 15.5222 20 9.99986 20C4.47781 20 0 15.526 0 9.99986C0 4.47781 4.47781 0 9.99986 0C15.5225 0 19.9995 4.47781 19.9995 9.99986" fill="#C5222A"/>
<path fill-rule="evenodd" clip-rule="evenodd" d="M5.63617 5.15918V8.59002C6.15829 7.96762 6.78451 7.65397 7.51101 7.65397C7.88489 7.65397 8.22007 7.72482 8.52037 7.86734C8.82149 8.00795 9.04712 8.1889 9.19891 8.40799C9.35206 8.62954 9.45561 8.87207 9.5112 9.1394C9.56679 9.40509 9.59459 9.8193 9.59459 10.3807V14.0497H7.97127V10.745C7.97127 10.0896 7.94211 9.67405 7.88025 9.49774C7.81839 9.32007 7.71021 9.18082 7.55406 9.07754C7.39819 8.97235 7.20335 8.9203 6.96818 8.9203C6.69976 8.9203 6.45859 8.98788 6.24876 9.12114C6.0343 9.25548 5.88034 9.45632 5.78278 9.72528C5.68359 9.99397 5.63426 10.3913 5.63617 10.9169L5.63426 14.0499H4.01367V5.15918H5.63617Z" fill="white"/>
<path fill-rule="evenodd" clip-rule="evenodd" d="M12.0275 5.15918V8.59002C12.5499 7.96762 13.1756 7.65397 13.9018 7.65397C14.2746 7.65397 14.6114 7.72482 14.9128 7.86734C15.2126 8.00795 15.4387 8.1889 15.59 8.40799C15.7426 8.62954 15.8461 8.87207 15.902 9.1394C15.9576 9.40509 15.9857 9.8193 15.9857 10.3807V14.0497H14.3643V10.745C14.3643 10.0896 14.3337 9.67405 14.2716 9.49774C14.2097 9.32007 14.1018 9.18082 13.9451 9.07754C13.7904 8.97235 13.5942 8.9203 13.3593 8.9203C13.0903 8.9203 12.8491 8.98788 12.639 9.12114C12.4276 9.25548 12.273 9.45632 12.1741 9.72528C12.0768 9.99397 12.0275 10.3913 12.0275 10.9169V14.0499H10.4061V5.15918H12.0275Z" fill="white"/>
</svg>
