<svg width="18" height="18" viewBox="0 0 18 18" fill="none" xmlns="http://www.w3.org/2000/svg">
<path d="M2.16344 0C0.967889 0 0.000193423 0.969436 0 2.16228C0 3.35628 0.967695 4.32552 2.16363 4.32552C3.35628 4.32552 4.32533 3.35628 4.32533 2.16228C4.32533 0.969243 3.35608 0 2.16344 0Z" fill="#0077B5"/>
<path d="M4.02742 5.96634H0.296875V17.969H4.02742V5.96634Z" fill="#0077B5"/>
<path d="M13.5248 5.66782C11.7101 5.66782 10.4933 6.66278 9.99522 7.6063H9.94532V5.96627H6.36738H6.36719V17.9687H10.0944V12.031C10.0944 10.4657 10.3925 8.94943 12.3333 8.94943C14.2463 8.94943 14.2718 10.7398 14.2718 12.1314V17.9686H17.9996V11.3852C17.9996 8.15369 17.3024 5.66782 13.5248 5.66782Z" fill="#0077B5"/>
</svg>
