<svg width="20" height="20" viewBox="0 0 20 20" fill="none" xmlns="http://www.w3.org/2000/svg">
<path d="M0.00390204 10.3639C-0.0507655 13.0154 1.77551 15.5458 4.28775 16.371C6.65411 17.166 9.56358 16.5713 11.1382 14.5447C12.2879 13.1247 12.5491 11.2317 12.4247 9.46313C10.3982 9.44499 8.3716 9.45104 6.34808 9.45406C6.34479 10.176 6.34808 10.8952 6.3511 11.6171C7.5645 11.6506 8.77818 11.6353 9.99158 11.6597C9.68527 12.7094 8.98751 13.6863 7.9285 14.0654C5.88382 14.9664 3.27489 13.7893 2.63151 11.6443C1.85491 9.59032 3.12627 7.1116 5.22534 6.5141C6.52692 6.05616 7.86778 6.57179 8.98146 7.24841C9.54572 6.72041 10.0737 6.15616 10.5924 5.58586C9.32705 4.52712 7.70103 3.87798 6.02942 4.02055C2.74964 4.05956 -0.120542 7.08743 0.00390204 10.3639Z" fill="#DC4E41"/>
<path d="M16.3691 7.63254C16.3631 8.23635 16.3568 8.84319 16.3537 9.44673C15.7469 9.45277 15.1434 9.4558 14.5396 9.45882C14.5396 10.0626 14.5396 10.6632 14.5396 11.267C15.1434 11.27 15.7502 11.273 16.3537 11.2793C16.3598 11.8831 16.3598 12.4867 16.3658 13.0935C16.9666 13.0935 17.5704 13.0905 18.174 13.0935C18.1773 12.4867 18.18 11.8831 18.1863 11.2763C18.7899 11.2733 19.3967 11.2703 20.0005 11.2672C20.0005 10.6634 20.0005 10.0629 20.0005 9.45909C19.397 9.45607 18.7902 9.45305 18.1863 9.447C18.183 8.84319 18.1773 8.23635 18.174 7.63281C17.5704 7.63254 16.9696 7.63254 16.3691 7.63254Z" fill="#DC4E41"/>
<path d="M0.0039024 10.3632C-0.120542 7.0867 2.74936 4.05883 6.02914 4.01954C7.70076 3.87697 9.32705 4.52611 10.5921 5.58485C10.0732 6.15542 9.54517 6.71941 8.98118 7.2474C7.86751 6.57079 6.52664 6.05515 5.22506 6.5131C3.12572 7.11087 1.85436 9.58959 2.63124 11.6433C3.27461 13.7883 5.88354 14.9654 7.92822 14.0644C8.98695 13.6853 9.68499 12.7084 9.9913 11.6587C8.7779 11.6345 7.56422 11.6496 6.35083 11.6161C6.3478 10.8942 6.34478 10.175 6.3478 9.45306C8.37133 9.45003 10.3979 9.44399 12.4244 9.46212C12.5489 11.231 12.2879 13.124 11.1379 14.5437C9.5633 16.5703 6.65411 17.165 4.28747 16.37C1.77579 15.545 -0.0507651 13.0147 0.0039024 10.3632Z" fill="#DC4E41"/>
<path d="M16.3691 7.63254C16.9699 7.63254 17.5704 7.63254 18.174 7.63254C18.1773 8.23635 18.183 8.84319 18.1863 9.44673C18.7899 9.45277 19.3967 9.4558 20.0005 9.45882C20.0005 10.0626 20.0005 10.6632 20.0005 11.267C19.397 11.27 18.7902 11.273 18.1863 11.276C18.1803 11.8829 18.1773 12.4864 18.174 13.0932C17.5704 13.0902 16.9663 13.0932 16.3658 13.0932C16.3601 12.4864 16.3601 11.8829 16.3537 11.2791C15.7502 11.2727 15.1434 11.27 14.5396 11.2667C14.5396 10.6629 14.5396 10.0624 14.5396 9.45854C15.1434 9.45552 15.7472 9.4525 16.3537 9.44646C16.3568 8.84319 16.3628 8.23635 16.3691 7.63254Z" fill="#DC4E41"/>
</svg>
