<svg width="20" height="20" viewBox="0 0 20 20" fill="none" xmlns="http://www.w3.org/2000/svg">
<path d="M8.4 10.0008C8.4 11.7681 6.96731 13.2008 5.2 13.2008C3.43269 13.2008 2 11.7681 2 10.0008C2 8.23347 3.43269 6.80078 5.2 6.80078C6.96731 6.80078 8.4 8.23347 8.4 10.0008Z" fill="#26BDFC"/>
<path d="M18.1812 4.2C18.1812 5.96731 16.7486 7.4 14.9812 7.4C13.2139 7.4 11.7812 5.96731 11.7812 4.2C11.7812 2.43269 13.2139 1 14.9812 1C16.7486 1 18.1812 2.43269 18.1812 4.2Z" fill="#26BDFC"/>
<path d="M18.1812 15.7996C18.1812 17.5669 16.7486 18.9996 14.9812 18.9996C13.2139 18.9996 11.7812 17.5669 11.7812 15.7996C11.7812 14.0323 13.2139 12.5996 14.9812 12.5996C16.7486 12.5996 18.1812 14.0323 18.1812 15.7996Z" fill="#26BDFC"/>
<path fill-rule="evenodd" clip-rule="evenodd" d="M14.3359 16.6329L5.33594 11.6329L6.44534 9.96875L15.4453 14.9688L14.3359 16.6329Z" fill="#26BDFC"/>
<path fill-rule="evenodd" clip-rule="evenodd" d="M15.4453 5.03129L6.44534 10.0313L5.33594 8.36719L14.3359 3.36719L15.4453 5.03129Z" fill="#26BDFC"/>
</svg>
