<svg width="20" height="20" viewBox="0 0 20 20" fill="none" xmlns="http://www.w3.org/2000/svg">
<path d="M0.649068 1.00005C0.55555 0.998847 0.462901 1.01813 0.377627 1.05654C0.292352 1.09495 0.21652 1.15156 0.155453 1.2224C0.0943858 1.29324 0.0495652 1.37658 0.0241377 1.46658C-0.00128983 1.55659 -0.00670781 1.65107 0.00826414 1.74339L2.72848 18.2569C2.76237 18.459 2.86638 18.6427 3.02224 18.7757C3.17811 18.9087 3.37585 18.9825 3.58075 18.9842H16.6307C16.7843 18.9862 16.9335 18.9329 17.0511 18.8341C17.1687 18.7353 17.247 18.5976 17.2715 18.4459L19.9917 1.74659C20.0067 1.65427 20.0013 1.55979 19.9759 1.46979C19.9504 1.37979 19.9056 1.29644 19.8445 1.2256C19.7835 1.15476 19.7076 1.09815 19.6224 1.05974C19.5371 1.02133 19.4445 1.00205 19.3509 1.00326L0.649068 1.00005ZM12.1034 12.935H7.93821L6.8104 7.04284H13.1127L12.1034 12.935Z" fill="#2684FF"/>
<path d="M19.1266 7.04283H13.1127L12.1034 12.935H7.93819L3.02002 18.7727C3.1759 18.9075 3.37465 18.9825 3.58072 18.9842H16.6339C16.7875 18.9862 16.9367 18.9329 17.0543 18.8341C17.1719 18.7353 17.2501 18.5976 17.2747 18.4459L19.1266 7.04283Z" fill="url(#paint0_linear)"/>
<defs>
<linearGradient id="paint0_linear" x1="20.5172" y1="8.6929" x2="10.5783" y2="16.4498" gradientUnits="userSpaceOnUse">
<stop offset="0.18" stop-color="#0052CC"/>
<stop offset="1" stop-color="#2684FF"/>
</linearGradient>
</defs>
</svg>
