<svg width="20" height="20" viewBox="0 0 20 20" fill="none" xmlns="http://www.w3.org/2000/svg">
<path d="M0 10C0 4.485 4.485 0 10 0C15.515 0 20 4.485 20 10C20 15.515 15.515 20 10 20C4.485 20 0 15.515 0 10ZM2.2225 10C2.2225 14.2875 5.7125 17.7775 10 17.7775C14.2875 17.7775 17.7775 14.2875 17.7775 10C17.7775 5.7125 14.2875 2.2225 10 2.2225C5.7125 2.2225 2.2225 5.7125 2.2225 10V10ZM10.1558 7.31333C10.935 6.47667 11.8833 6 13.1642 6H13.7267V9.03667C10.675 9.03667 10.1567 9.08167 10.1567 10.2075V14H7.19333V6H10.1567V7.31333H10.1558Z" fill="#FF5252"/>
</svg>
