<svg width="20" height="20" viewBox="0 0 20 20" fill="none" xmlns="http://www.w3.org/2000/svg">
<path d="M19.1715 14.1682C18.576 13.454 17.8753 12.8444 17.2122 12.1971C16.6141 11.6137 16.5763 11.2752 17.0572 10.6018C17.582 9.86683 18.1464 9.16005 18.6759 8.4284C19.1703 7.74462 19.6756 7.06272 19.9357 6.24401C20.1007 5.72315 19.9548 5.49309 19.4207 5.40189C19.3286 5.38593 19.2335 5.3851 19.1398 5.3851L15.9709 5.38137C15.5806 5.37557 15.3649 5.54573 15.2268 5.89166C15.0405 6.35925 14.8484 6.82643 14.6264 7.27765C14.1227 8.30072 13.5602 9.28959 12.7715 10.1269C12.5976 10.3116 12.4053 10.545 12.1147 10.4488C11.7512 10.3162 11.644 9.71718 11.65 9.51468L11.6469 5.85705C11.5764 5.33453 11.4606 5.10156 10.9418 5L7.64998 5.00062C7.21058 5.00062 6.99025 5.17037 6.75563 5.44521C6.62028 5.60397 6.57945 5.70699 6.8576 5.75963C7.40396 5.86327 7.71175 6.21686 7.79341 6.76467C7.9244 7.63996 7.91528 8.51877 7.83984 9.39758C7.81766 9.65417 7.77351 9.91015 7.67175 10.1497C7.51257 10.5264 7.25556 10.603 6.91792 10.3713C6.6122 10.1616 6.39747 9.86558 6.1873 9.56836C5.39782 8.45285 4.76794 7.24988 4.25433 5.98576C4.10593 5.62056 3.84996 5.3992 3.46299 5.39318C2.51226 5.37805 1.56132 5.37557 0.610587 5.39401C0.0385316 5.40479 -0.132049 5.68253 0.100919 6.20111C1.13642 8.50446 2.28903 10.7438 3.79358 12.7837C4.56606 13.8306 5.45296 14.7548 6.59873 15.4098C7.89725 16.1522 9.29506 16.3756 10.7673 16.3068C11.4566 16.2745 11.6637 16.0952 11.6956 15.4081C11.7172 14.938 11.7704 14.4706 12.0024 14.0482C12.23 13.6337 12.5746 13.5547 12.972 13.8126C13.1707 13.9417 13.3382 14.1061 13.4964 14.2793C13.8844 14.7038 14.2585 15.1411 14.6612 15.5513C15.1663 16.0653 15.7647 16.369 16.5171 16.307L19.4296 16.3076C19.8988 16.277 20.1422 15.7016 19.8727 15.1778C19.6835 14.811 19.4352 14.4843 19.1715 14.1682Z" fill="currentColor"/>
</svg>
