<svg width="20" height="20" viewBox="0 0 20 20" fill="none" xmlns="http://www.w3.org/2000/svg">
<path d="M15.26 19.6758C13.8852 19.6758 12.7598 18.5647 12.7598 17.1758C12.7598 15.8016 13.8709 14.6758 15.2598 14.6758C16.6485 14.6758 17.7598 15.8016 17.7598 17.1758C17.7598 18.5502 16.634 19.6758 15.2597 19.6758H15.2598H15.26Z" fill="#D6001C"/>
<path d="M8.90586 5.64288V5.30603C8.90586 3.28492 8.401 2.5268 7.05277 2.5268C5.70536 2.5268 5.2005 3.28492 5.2005 5.30603V11.7906C5.2005 13.8961 5.70536 14.6543 7.05277 14.6543C8.31658 14.6543 8.90586 13.8961 8.90586 11.7906V10.9481H12.0219V11.6218C12.0219 14.5699 10.927 17.0958 7.05277 17.0958C3.01055 17.0958 2 14.5699 2 11.6218V5.64288C2 1.85227 3.68426 0 7.05277 0C10.2533 0 11.9375 1.76868 11.9375 4.80034V5.64288H8.90586Z" fill="#0C100E"/>
</svg>
