<svg width="20" height="20" viewBox="0 0 20 20" fill="none" xmlns="http://www.w3.org/2000/svg">
<path d="M9.0202 14.0872C7.46976 13.9255 6.0718 13.5436 4.87493 12.6076C4.72642 12.4911 4.5731 12.3788 4.43757 12.2488C3.91371 11.7456 3.86092 11.1694 4.27545 10.5756C4.63007 10.0674 5.22536 9.93146 5.84412 10.2232C5.96393 10.2798 6.07809 10.3504 6.18743 10.4262C8.41799 11.9589 11.4822 12.0012 13.7212 10.4951C13.943 10.325 14.1801 10.1864 14.4549 10.1156C14.9893 9.97838 15.4876 10.1747 15.7743 10.6422C16.1019 11.1761 16.0977 11.6972 15.6941 12.1118C15.0749 12.7473 14.3303 13.207 13.5029 13.5279C12.7206 13.8312 11.8637 13.9839 11.0155 14.0853C11.1435 14.2246 11.2038 14.2931 11.2839 14.3735C12.4355 15.5306 13.5921 16.6829 14.74 17.8435C15.1311 18.239 15.2128 18.7293 14.9974 19.1893C14.762 19.692 14.235 20.0228 13.7182 19.9874C13.3908 19.9647 13.1355 19.8018 12.9087 19.5732C12.0396 18.6987 11.1542 17.8404 10.3027 16.9493C10.0549 16.6902 9.93576 16.7392 9.71708 16.9642C8.84278 17.8642 7.95424 18.7505 7.06047 19.6317C6.65914 20.0274 6.18156 20.0986 5.71613 19.8726C5.22138 19.6327 4.90656 19.1277 4.93086 18.6202C4.94762 18.2769 5.11644 18.0146 5.35209 17.7794C6.49178 16.6414 7.62832 15.5004 8.76528 14.3606C8.84048 14.2847 8.91065 14.2043 9.0202 14.0872Z" fill="#ED812B"/>
<path d="M9.96454 10.1231C7.19859 10.1137 4.93053 7.82073 4.94665 5.05038C4.96257 2.24944 7.2321 -0.00773022 10.0253 1.98982e-05C12.8241 0.00756056 15.0706 2.2972 15.0566 5.12725C15.0423 7.89195 12.7586 10.1328 9.96454 10.1231ZM12.4783 5.05708C12.4735 3.68154 11.378 2.58647 10.0052 2.58521C8.62084 2.58374 7.51551 3.69871 7.52619 5.08682C7.53645 6.45713 8.64137 7.54445 10.018 7.53942C11.3904 7.5346 12.4829 6.43241 12.4783 5.05708Z" fill="#ED812B"/>
</svg>
