<svg width="20" height="20" viewBox="0 0 20 20" fill="none" xmlns="http://www.w3.org/2000/svg">
<rect width="20" height="20" rx="10" fill="#075399"/>
<path d="M10.3864 5.54688H12.2734V11.4829C12.2734 12.259 12.2052 12.856 12.0687 13.274C11.8854 13.8198 11.5528 14.259 11.0709 14.5917C10.589 14.92 9.95361 15.0842 9.1647 15.0842C8.23932 15.0842 7.52717 14.8262 7.02823 14.3102C6.5293 13.7899 6.2777 13.0288 6.27344 12.0266L8.05809 11.8219C8.07941 12.3592 8.1583 12.7388 8.29476 12.9605C8.49945 13.2974 8.81075 13.4659 9.22866 13.4659C9.65084 13.4659 9.94934 13.3464 10.1242 13.1076C10.299 12.8646 10.3864 12.3635 10.3864 11.6044V5.54688Z" fill="white"/>
</svg>
